<?xml version="1.0" encoding="utf-8" standalone="no"?>
<!DOCTYPE svg PUBLIC "-//W3C//DTD SVG 1.1//EN"
  "http://www.w3.org/Graphics/SVG/1.1/DTD/svg11.dtd">
<svg height="351.353437pt" version="1.1" viewBox="0 0 903.8125 351.353437" width="903.8125pt" xmlns="http://www.w3.org/2000/svg" xmlns:xlink="http://www.w3.org/1999/xlink">
 <metadata>
  <rdf:RDF xmlns:cc="http://creativecommons.org/ns#" xmlns:dc="http://purl.org/dc/elements/1.1/" xmlns:rdf="http://www.w3.org/1999/02/22-rdf-syntax-ns#">
   <cc:Work>
    <dc:type rdf:resource="http://purl.org/dc/dcmitype/StillImage"/>
    <dc:date>2021-12-03T17:44:25.893430</dc:date>
    <dc:format>image/svg+xml</dc:format>
    <dc:creator>
     <cc:Agent>
      <dc:title>Matplotlib v3.4.3, https://matplotlib.org/</dc:title>
     </cc:Agent>
    </dc:creator>
   </cc:Work>
  </rdf:RDF>
 </metadata>
 <defs>
  <style type="text/css">*{stroke-linecap:butt;stroke-linejoin:round;}</style>
 </defs>
 <g id="figure_1">
  <g id="patch_1">
   <path d="M 0 351.353437 
L 903.8125 351.353437 
L 903.8125 0 
L 0 0 
z
" style="fill:#ffffff;"/>
  </g>
  <g id="axes_1">
   <g id="patch_2">
    <path d="M 59.6125 299.559375 
L 440.067045 299.559375 
L 440.067045 27.759375 
L 59.6125 27.759375 
z
" style="fill:#ffffff;"/>
   </g>
   <g id="matplotlib.axis_1">
    <g id="xtick_1">
     <g id="line2d_1">
      <path clip-path="url(#p3a119ad9f6)" d="M 76.905888 299.559375 
L 76.905888 27.759375 
" style="fill:none;stroke:#cccccc;stroke-linecap:round;"/>
     </g>
     <g id="text_1">
      <!-- 0 -->
      <g style="fill:#262626;" transform="translate(72.457138 320.511875)scale(0.16 -0.16)">
       <defs>
        <path d="M 266 2259 
Q 266 3072 433 3567 
Q 600 4063 929 4331 
Q 1259 4600 1759 4600 
Q 2128 4600 2406 4451 
Q 2684 4303 2865 4023 
Q 3047 3744 3150 3342 
Q 3253 2941 3253 2259 
Q 3253 1453 3087 958 
Q 2922 463 2592 192 
Q 2263 -78 1759 -78 
Q 1097 -78 719 397 
Q 266 969 266 2259 
z
M 844 2259 
Q 844 1131 1108 757 
Q 1372 384 1759 384 
Q 2147 384 2411 759 
Q 2675 1134 2675 2259 
Q 2675 3391 2411 3762 
Q 2147 4134 1753 4134 
Q 1366 4134 1134 3806 
Q 844 3388 844 2259 
z
" id="ArialMT-30" transform="scale(0.015625)"/>
       </defs>
       <use xlink:href="#ArialMT-30"/>
      </g>
     </g>
    </g>
    <g id="xtick_2">
     <g id="line2d_2">
      <path clip-path="url(#p3a119ad9f6)" d="M 163.807338 299.559375 
L 163.807338 27.759375 
" style="fill:none;stroke:#cccccc;stroke-linecap:round;"/>
     </g>
     <g id="text_2">
      <!-- 50 -->
      <g style="fill:#262626;" transform="translate(154.909838 320.511875)scale(0.16 -0.16)">
       <defs>
        <path d="M 266 1200 
L 856 1250 
Q 922 819 1161 601 
Q 1400 384 1738 384 
Q 2144 384 2425 690 
Q 2706 997 2706 1503 
Q 2706 1984 2436 2262 
Q 2166 2541 1728 2541 
Q 1456 2541 1237 2417 
Q 1019 2294 894 2097 
L 366 2166 
L 809 4519 
L 3088 4519 
L 3088 3981 
L 1259 3981 
L 1013 2750 
Q 1425 3038 1878 3038 
Q 2478 3038 2890 2622 
Q 3303 2206 3303 1553 
Q 3303 931 2941 478 
Q 2500 -78 1738 -78 
Q 1113 -78 717 272 
Q 322 622 266 1200 
z
" id="ArialMT-35" transform="scale(0.015625)"/>
       </defs>
       <use xlink:href="#ArialMT-35"/>
       <use x="55.615234" xlink:href="#ArialMT-30"/>
      </g>
     </g>
    </g>
    <g id="xtick_3">
     <g id="line2d_3">
      <path clip-path="url(#p3a119ad9f6)" d="M 250.708787 299.559375 
L 250.708787 27.759375 
" style="fill:none;stroke:#cccccc;stroke-linecap:round;"/>
     </g>
     <g id="text_3">
      <!-- 100 -->
      <g style="fill:#262626;" transform="translate(237.362537 320.511875)scale(0.16 -0.16)">
       <defs>
        <path d="M 2384 0 
L 1822 0 
L 1822 3584 
Q 1619 3391 1289 3197 
Q 959 3003 697 2906 
L 697 3450 
Q 1169 3672 1522 3987 
Q 1875 4303 2022 4600 
L 2384 4600 
L 2384 0 
z
" id="ArialMT-31" transform="scale(0.015625)"/>
       </defs>
       <use xlink:href="#ArialMT-31"/>
       <use x="55.615234" xlink:href="#ArialMT-30"/>
       <use x="111.230469" xlink:href="#ArialMT-30"/>
      </g>
     </g>
    </g>
    <g id="xtick_4">
     <g id="line2d_4">
      <path clip-path="url(#p3a119ad9f6)" d="M 337.610237 299.559375 
L 337.610237 27.759375 
" style="fill:none;stroke:#cccccc;stroke-linecap:round;"/>
     </g>
     <g id="text_4">
      <!-- 150 -->
      <g style="fill:#262626;" transform="translate(324.263987 320.511875)scale(0.16 -0.16)">
       <use xlink:href="#ArialMT-31"/>
       <use x="55.615234" xlink:href="#ArialMT-35"/>
       <use x="111.230469" xlink:href="#ArialMT-30"/>
      </g>
     </g>
    </g>
    <g id="xtick_5">
     <g id="line2d_5">
      <path clip-path="url(#p3a119ad9f6)" d="M 424.511686 299.559375 
L 424.511686 27.759375 
" style="fill:none;stroke:#cccccc;stroke-linecap:round;"/>
     </g>
     <g id="text_5">
      <!-- 200 -->
      <g style="fill:#262626;" transform="translate(411.165436 320.511875)scale(0.16 -0.16)">
       <defs>
        <path d="M 3222 541 
L 3222 0 
L 194 0 
Q 188 203 259 391 
Q 375 700 629 1000 
Q 884 1300 1366 1694 
Q 2113 2306 2375 2664 
Q 2638 3022 2638 3341 
Q 2638 3675 2398 3904 
Q 2159 4134 1775 4134 
Q 1369 4134 1125 3890 
Q 881 3647 878 3216 
L 300 3275 
Q 359 3922 746 4261 
Q 1134 4600 1788 4600 
Q 2447 4600 2831 4234 
Q 3216 3869 3216 3328 
Q 3216 3053 3103 2787 
Q 2991 2522 2730 2228 
Q 2469 1934 1863 1422 
Q 1356 997 1212 845 
Q 1069 694 975 541 
L 3222 541 
z
" id="ArialMT-32" transform="scale(0.015625)"/>
       </defs>
       <use xlink:href="#ArialMT-32"/>
       <use x="55.615234" xlink:href="#ArialMT-30"/>
       <use x="111.230469" xlink:href="#ArialMT-30"/>
      </g>
     </g>
    </g>
    <g id="text_6">
     <!-- Epochs -->
     <g style="fill:#262626;" transform="translate(219.82196 340.575938)scale(0.18 -0.18)">
      <defs>
       <path d="M 506 0 
L 506 4581 
L 3819 4581 
L 3819 4041 
L 1113 4041 
L 1113 2638 
L 3647 2638 
L 3647 2100 
L 1113 2100 
L 1113 541 
L 3925 541 
L 3925 0 
L 506 0 
z
" id="ArialMT-45" transform="scale(0.015625)"/>
       <path d="M 422 -1272 
L 422 3319 
L 934 3319 
L 934 2888 
Q 1116 3141 1344 3267 
Q 1572 3394 1897 3394 
Q 2322 3394 2647 3175 
Q 2972 2956 3137 2557 
Q 3303 2159 3303 1684 
Q 3303 1175 3120 767 
Q 2938 359 2589 142 
Q 2241 -75 1856 -75 
Q 1575 -75 1351 44 
Q 1128 163 984 344 
L 984 -1272 
L 422 -1272 
z
M 931 1641 
Q 931 1000 1190 694 
Q 1450 388 1819 388 
Q 2194 388 2461 705 
Q 2728 1022 2728 1688 
Q 2728 2322 2467 2637 
Q 2206 2953 1844 2953 
Q 1484 2953 1207 2617 
Q 931 2281 931 1641 
z
" id="ArialMT-70" transform="scale(0.015625)"/>
       <path d="M 213 1659 
Q 213 2581 725 3025 
Q 1153 3394 1769 3394 
Q 2453 3394 2887 2945 
Q 3322 2497 3322 1706 
Q 3322 1066 3130 698 
Q 2938 331 2570 128 
Q 2203 -75 1769 -75 
Q 1072 -75 642 372 
Q 213 819 213 1659 
z
M 791 1659 
Q 791 1022 1069 705 
Q 1347 388 1769 388 
Q 2188 388 2466 706 
Q 2744 1025 2744 1678 
Q 2744 2294 2464 2611 
Q 2184 2928 1769 2928 
Q 1347 2928 1069 2612 
Q 791 2297 791 1659 
z
" id="ArialMT-6f" transform="scale(0.015625)"/>
       <path d="M 2588 1216 
L 3141 1144 
Q 3050 572 2676 248 
Q 2303 -75 1759 -75 
Q 1078 -75 664 370 
Q 250 816 250 1647 
Q 250 2184 428 2587 
Q 606 2991 970 3192 
Q 1334 3394 1763 3394 
Q 2303 3394 2647 3120 
Q 2991 2847 3088 2344 
L 2541 2259 
Q 2463 2594 2264 2762 
Q 2066 2931 1784 2931 
Q 1359 2931 1093 2626 
Q 828 2322 828 1663 
Q 828 994 1084 691 
Q 1341 388 1753 388 
Q 2084 388 2306 591 
Q 2528 794 2588 1216 
z
" id="ArialMT-63" transform="scale(0.015625)"/>
       <path d="M 422 0 
L 422 4581 
L 984 4581 
L 984 2938 
Q 1378 3394 1978 3394 
Q 2347 3394 2619 3248 
Q 2891 3103 3008 2847 
Q 3125 2591 3125 2103 
L 3125 0 
L 2563 0 
L 2563 2103 
Q 2563 2525 2380 2717 
Q 2197 2909 1863 2909 
Q 1613 2909 1392 2779 
Q 1172 2650 1078 2428 
Q 984 2206 984 1816 
L 984 0 
L 422 0 
z
" id="ArialMT-68" transform="scale(0.015625)"/>
       <path d="M 197 991 
L 753 1078 
Q 800 744 1014 566 
Q 1228 388 1613 388 
Q 2000 388 2187 545 
Q 2375 703 2375 916 
Q 2375 1106 2209 1216 
Q 2094 1291 1634 1406 
Q 1016 1563 777 1677 
Q 538 1791 414 1992 
Q 291 2194 291 2438 
Q 291 2659 392 2848 
Q 494 3038 669 3163 
Q 800 3259 1026 3326 
Q 1253 3394 1513 3394 
Q 1903 3394 2198 3281 
Q 2494 3169 2634 2976 
Q 2775 2784 2828 2463 
L 2278 2388 
Q 2241 2644 2061 2787 
Q 1881 2931 1553 2931 
Q 1166 2931 1000 2803 
Q 834 2675 834 2503 
Q 834 2394 903 2306 
Q 972 2216 1119 2156 
Q 1203 2125 1616 2013 
Q 2213 1853 2448 1751 
Q 2684 1650 2818 1456 
Q 2953 1263 2953 975 
Q 2953 694 2789 445 
Q 2625 197 2315 61 
Q 2006 -75 1616 -75 
Q 969 -75 630 194 
Q 291 463 197 991 
z
" id="ArialMT-73" transform="scale(0.015625)"/>
      </defs>
      <use xlink:href="#ArialMT-45"/>
      <use x="66.699219" xlink:href="#ArialMT-70"/>
      <use x="122.314453" xlink:href="#ArialMT-6f"/>
      <use x="177.929688" xlink:href="#ArialMT-63"/>
      <use x="227.929688" xlink:href="#ArialMT-68"/>
      <use x="283.544922" xlink:href="#ArialMT-73"/>
     </g>
    </g>
   </g>
   <g id="matplotlib.axis_2">
    <g id="ytick_1">
     <g id="line2d_6">
      <path clip-path="url(#p3a119ad9f6)" d="M 59.6125 254.259375 
L 440.067045 254.259375 
" style="fill:none;stroke:#cccccc;stroke-linecap:round;"/>
     </g>
     <g id="text_7">
      <!-- 0.6 -->
      <g style="fill:#262626;" transform="translate(27.8725 259.985625)scale(0.16 -0.16)">
       <defs>
        <path d="M 581 0 
L 581 641 
L 1222 641 
L 1222 0 
L 581 0 
z
" id="ArialMT-2e" transform="scale(0.015625)"/>
        <path d="M 3184 3459 
L 2625 3416 
Q 2550 3747 2413 3897 
Q 2184 4138 1850 4138 
Q 1581 4138 1378 3988 
Q 1113 3794 959 3422 
Q 806 3050 800 2363 
Q 1003 2672 1297 2822 
Q 1591 2972 1913 2972 
Q 2475 2972 2870 2558 
Q 3266 2144 3266 1488 
Q 3266 1056 3080 686 
Q 2894 316 2569 119 
Q 2244 -78 1831 -78 
Q 1128 -78 684 439 
Q 241 956 241 2144 
Q 241 3472 731 4075 
Q 1159 4600 1884 4600 
Q 2425 4600 2770 4297 
Q 3116 3994 3184 3459 
z
M 888 1484 
Q 888 1194 1011 928 
Q 1134 663 1356 523 
Q 1578 384 1822 384 
Q 2178 384 2434 671 
Q 2691 959 2691 1453 
Q 2691 1928 2437 2201 
Q 2184 2475 1800 2475 
Q 1419 2475 1153 2201 
Q 888 1928 888 1484 
z
" id="ArialMT-36" transform="scale(0.015625)"/>
       </defs>
       <use xlink:href="#ArialMT-30"/>
       <use x="55.615234" xlink:href="#ArialMT-2e"/>
       <use x="83.398438" xlink:href="#ArialMT-36"/>
      </g>
     </g>
    </g>
    <g id="ytick_2">
     <g id="line2d_7">
      <path clip-path="url(#p3a119ad9f6)" d="M 59.6125 197.634375 
L 440.067045 197.634375 
" style="fill:none;stroke:#cccccc;stroke-linecap:round;"/>
     </g>
     <g id="text_8">
      <!-- 0.7 -->
      <g style="fill:#262626;" transform="translate(27.8725 203.360625)scale(0.16 -0.16)">
       <defs>
        <path d="M 303 3981 
L 303 4522 
L 3269 4522 
L 3269 4084 
Q 2831 3619 2401 2847 
Q 1972 2075 1738 1259 
Q 1569 684 1522 0 
L 944 0 
Q 953 541 1156 1306 
Q 1359 2072 1739 2783 
Q 2119 3494 2547 3981 
L 303 3981 
z
" id="ArialMT-37" transform="scale(0.015625)"/>
       </defs>
       <use xlink:href="#ArialMT-30"/>
       <use x="55.615234" xlink:href="#ArialMT-2e"/>
       <use x="83.398438" xlink:href="#ArialMT-37"/>
      </g>
     </g>
    </g>
    <g id="ytick_3">
     <g id="line2d_8">
      <path clip-path="url(#p3a119ad9f6)" d="M 59.6125 141.009375 
L 440.067045 141.009375 
" style="fill:none;stroke:#cccccc;stroke-linecap:round;"/>
     </g>
     <g id="text_9">
      <!-- 0.8 -->
      <g style="fill:#262626;" transform="translate(27.8725 146.735625)scale(0.16 -0.16)">
       <defs>
        <path d="M 1131 2484 
Q 781 2613 612 2850 
Q 444 3088 444 3419 
Q 444 3919 803 4259 
Q 1163 4600 1759 4600 
Q 2359 4600 2725 4251 
Q 3091 3903 3091 3403 
Q 3091 3084 2923 2848 
Q 2756 2613 2416 2484 
Q 2838 2347 3058 2040 
Q 3278 1734 3278 1309 
Q 3278 722 2862 322 
Q 2447 -78 1769 -78 
Q 1091 -78 675 323 
Q 259 725 259 1325 
Q 259 1772 486 2073 
Q 713 2375 1131 2484 
z
M 1019 3438 
Q 1019 3113 1228 2906 
Q 1438 2700 1772 2700 
Q 2097 2700 2305 2904 
Q 2513 3109 2513 3406 
Q 2513 3716 2298 3927 
Q 2084 4138 1766 4138 
Q 1444 4138 1231 3931 
Q 1019 3725 1019 3438 
z
M 838 1322 
Q 838 1081 952 856 
Q 1066 631 1291 507 
Q 1516 384 1775 384 
Q 2178 384 2440 643 
Q 2703 903 2703 1303 
Q 2703 1709 2433 1975 
Q 2163 2241 1756 2241 
Q 1359 2241 1098 1978 
Q 838 1716 838 1322 
z
" id="ArialMT-38" transform="scale(0.015625)"/>
       </defs>
       <use xlink:href="#ArialMT-30"/>
       <use x="55.615234" xlink:href="#ArialMT-2e"/>
       <use x="83.398438" xlink:href="#ArialMT-38"/>
      </g>
     </g>
    </g>
    <g id="ytick_4">
     <g id="line2d_9">
      <path clip-path="url(#p3a119ad9f6)" d="M 59.6125 84.384375 
L 440.067045 84.384375 
" style="fill:none;stroke:#cccccc;stroke-linecap:round;"/>
     </g>
     <g id="text_10">
      <!-- 0.9 -->
      <g style="fill:#262626;" transform="translate(27.8725 90.110625)scale(0.16 -0.16)">
       <defs>
        <path d="M 350 1059 
L 891 1109 
Q 959 728 1153 556 
Q 1347 384 1650 384 
Q 1909 384 2104 503 
Q 2300 622 2425 820 
Q 2550 1019 2634 1356 
Q 2719 1694 2719 2044 
Q 2719 2081 2716 2156 
Q 2547 1888 2255 1720 
Q 1963 1553 1622 1553 
Q 1053 1553 659 1965 
Q 266 2378 266 3053 
Q 266 3750 677 4175 
Q 1088 4600 1706 4600 
Q 2153 4600 2523 4359 
Q 2894 4119 3086 3673 
Q 3278 3228 3278 2384 
Q 3278 1506 3087 986 
Q 2897 466 2520 194 
Q 2144 -78 1638 -78 
Q 1100 -78 759 220 
Q 419 519 350 1059 
z
M 2653 3081 
Q 2653 3566 2395 3850 
Q 2138 4134 1775 4134 
Q 1400 4134 1122 3828 
Q 844 3522 844 3034 
Q 844 2597 1108 2323 
Q 1372 2050 1759 2050 
Q 2150 2050 2401 2323 
Q 2653 2597 2653 3081 
z
" id="ArialMT-39" transform="scale(0.015625)"/>
       </defs>
       <use xlink:href="#ArialMT-30"/>
       <use x="55.615234" xlink:href="#ArialMT-2e"/>
       <use x="83.398438" xlink:href="#ArialMT-39"/>
      </g>
     </g>
    </g>
    <g id="ytick_5">
     <g id="line2d_10">
      <path clip-path="url(#p3a119ad9f6)" d="M 59.6125 27.759375 
L 440.067045 27.759375 
" style="fill:none;stroke:#cccccc;stroke-linecap:round;"/>
     </g>
     <g id="text_11">
      <!-- 1.0 -->
      <g style="fill:#262626;" transform="translate(27.8725 33.485625)scale(0.16 -0.16)">
       <use xlink:href="#ArialMT-31"/>
       <use x="55.615234" xlink:href="#ArialMT-2e"/>
       <use x="83.398438" xlink:href="#ArialMT-30"/>
      </g>
     </g>
    </g>
    <g id="text_12">
     <!-- Accuracy -->
     <g style="fill:#262626;" transform="translate(20.084063 200.669062)rotate(-90)scale(0.18 -0.18)">
      <defs>
       <path d="M -9 0 
L 1750 4581 
L 2403 4581 
L 4278 0 
L 3588 0 
L 3053 1388 
L 1138 1388 
L 634 0 
L -9 0 
z
M 1313 1881 
L 2866 1881 
L 2388 3150 
Q 2169 3728 2063 4100 
Q 1975 3659 1816 3225 
L 1313 1881 
z
" id="ArialMT-41" transform="scale(0.015625)"/>
       <path d="M 2597 0 
L 2597 488 
Q 2209 -75 1544 -75 
Q 1250 -75 995 37 
Q 741 150 617 320 
Q 494 491 444 738 
Q 409 903 409 1263 
L 409 3319 
L 972 3319 
L 972 1478 
Q 972 1038 1006 884 
Q 1059 663 1231 536 
Q 1403 409 1656 409 
Q 1909 409 2131 539 
Q 2353 669 2445 892 
Q 2538 1116 2538 1541 
L 2538 3319 
L 3100 3319 
L 3100 0 
L 2597 0 
z
" id="ArialMT-75" transform="scale(0.015625)"/>
       <path d="M 416 0 
L 416 3319 
L 922 3319 
L 922 2816 
Q 1116 3169 1280 3281 
Q 1444 3394 1641 3394 
Q 1925 3394 2219 3213 
L 2025 2691 
Q 1819 2813 1613 2813 
Q 1428 2813 1281 2702 
Q 1134 2591 1072 2394 
Q 978 2094 978 1738 
L 978 0 
L 416 0 
z
" id="ArialMT-72" transform="scale(0.015625)"/>
       <path d="M 2588 409 
Q 2275 144 1986 34 
Q 1697 -75 1366 -75 
Q 819 -75 525 192 
Q 231 459 231 875 
Q 231 1119 342 1320 
Q 453 1522 633 1644 
Q 813 1766 1038 1828 
Q 1203 1872 1538 1913 
Q 2219 1994 2541 2106 
Q 2544 2222 2544 2253 
Q 2544 2597 2384 2738 
Q 2169 2928 1744 2928 
Q 1347 2928 1158 2789 
Q 969 2650 878 2297 
L 328 2372 
Q 403 2725 575 2942 
Q 747 3159 1072 3276 
Q 1397 3394 1825 3394 
Q 2250 3394 2515 3294 
Q 2781 3194 2906 3042 
Q 3031 2891 3081 2659 
Q 3109 2516 3109 2141 
L 3109 1391 
Q 3109 606 3145 398 
Q 3181 191 3288 0 
L 2700 0 
Q 2613 175 2588 409 
z
M 2541 1666 
Q 2234 1541 1622 1453 
Q 1275 1403 1131 1340 
Q 988 1278 909 1158 
Q 831 1038 831 891 
Q 831 666 1001 516 
Q 1172 366 1500 366 
Q 1825 366 2078 508 
Q 2331 650 2450 897 
Q 2541 1088 2541 1459 
L 2541 1666 
z
" id="ArialMT-61" transform="scale(0.015625)"/>
       <path d="M 397 -1278 
L 334 -750 
Q 519 -800 656 -800 
Q 844 -800 956 -737 
Q 1069 -675 1141 -563 
Q 1194 -478 1313 -144 
Q 1328 -97 1363 -6 
L 103 3319 
L 709 3319 
L 1400 1397 
Q 1534 1031 1641 628 
Q 1738 1016 1872 1384 
L 2581 3319 
L 3144 3319 
L 1881 -56 
Q 1678 -603 1566 -809 
Q 1416 -1088 1222 -1217 
Q 1028 -1347 759 -1347 
Q 597 -1347 397 -1278 
z
" id="ArialMT-79" transform="scale(0.015625)"/>
      </defs>
      <use xlink:href="#ArialMT-41"/>
      <use x="66.699219" xlink:href="#ArialMT-63"/>
      <use x="116.699219" xlink:href="#ArialMT-63"/>
      <use x="166.699219" xlink:href="#ArialMT-75"/>
      <use x="222.314453" xlink:href="#ArialMT-72"/>
      <use x="255.615234" xlink:href="#ArialMT-61"/>
      <use x="311.230469" xlink:href="#ArialMT-63"/>
      <use x="361.230469" xlink:href="#ArialMT-79"/>
     </g>
    </g>
   </g>
   <g id="line2d_11">
    <path clip-path="url(#p3a119ad9f6)" d="M 77.53122 352.353437 
L 78.643917 132.972279 
L 82.119975 101.554533 
L 83.858004 89.864222 
L 85.596033 103.746467 
L 87.334062 87.672289 
L 89.072091 77.443232 
L 90.81012 78.904521 
L 92.548149 75.981943 
L 94.286178 89.133578 
L 96.024207 93.517444 
L 97.762236 70.136788 
L 99.500265 66.483565 
L 101.238294 72.328721 
L 102.976323 83.288422 
L 104.714352 77.443232 
L 106.452381 73.79001 
L 108.19041 72.328721 
L 109.928439 77.443232 
L 111.666468 88.402933 
L 113.404497 83.288422 
L 115.142526 65.752921 
L 116.880555 77.443232 
L 118.618584 92.7868 
L 120.356613 65.752921 
L 122.094642 68.675499 
L 125.5707 67.21421 
L 127.308729 70.136788 
L 129.046758 66.483565 
L 130.784787 69.406143 
L 132.522816 66.483565 
L 134.260845 62.099699 
L 135.998874 75.251299 
L 137.736903 63.560988 
L 139.474932 70.136788 
L 141.212961 75.251299 
L 142.95099 65.022276 
L 144.689019 63.560988 
L 146.427048 74.520654 
L 148.165077 63.560988 
L 149.903106 67.944854 
L 151.641135 71.598077 
L 153.379164 63.560988 
L 155.117193 72.328721 
L 156.855222 64.291632 
L 158.593251 69.406143 
L 160.33128 65.752921 
L 162.069309 73.79001 
L 163.807338 67.944854 
L 165.545367 73.059366 
L 167.283396 72.328721 
L 169.021425 65.752921 
L 170.759454 73.059366 
L 172.497483 74.520654 
L 174.235512 67.944854 
L 175.973541 72.328721 
L 177.71157 67.21421 
L 179.449599 71.598077 
L 181.187628 66.483565 
L 182.925657 60.63841 
L 184.663686 63.560988 
L 186.401715 64.291632 
L 188.139744 71.598077 
L 189.877773 70.136788 
L 191.615802 65.752921 
L 193.353831 63.560988 
L 195.09186 67.21421 
L 196.829889 65.022276 
L 198.567918 70.136788 
L 200.305947 64.291632 
L 202.043976 66.483565 
L 203.782005 66.483565 
L 205.520034 63.560988 
L 207.258063 69.406143 
L 208.996092 71.598077 
L 210.73412 63.560988 
L 212.472149 65.752921 
L 214.210178 72.328721 
L 215.948207 61.369054 
L 217.686236 65.022276 
L 219.424265 65.752921 
L 221.162294 65.752921 
L 222.900323 70.136788 
L 224.638352 62.830343 
L 226.376381 62.830343 
L 228.11441 65.022276 
L 229.852439 79.635166 
L 231.590468 59.907765 
L 233.328497 68.675499 
L 235.066526 65.752921 
L 238.542584 62.830343 
L 240.280613 63.560988 
L 242.018642 70.867432 
L 243.756671 73.79001 
L 245.4947 69.406143 
L 247.232729 67.944854 
L 248.970758 79.635166 
L 250.708787 69.406143 
L 252.446816 75.981943 
L 254.184845 62.099699 
L 255.922874 66.483565 
L 257.660903 65.022276 
L 259.398932 65.022276 
L 261.136961 59.907765 
L 262.87499 67.21421 
L 266.351048 64.291632 
L 268.089077 69.406143 
L 269.827106 66.483565 
L 271.565135 62.099699 
L 273.303164 65.022276 
L 275.041193 60.63841 
L 276.779222 78.904521 
L 278.517251 67.944854 
L 280.25528 62.099699 
L 281.993309 62.099699 
L 283.731338 68.675499 
L 285.469367 59.907765 
L 287.207396 72.328721 
L 288.945425 62.830343 
L 290.683454 60.63841 
L 292.421483 66.483565 
L 294.159512 65.752921 
L 295.897541 63.560988 
L 297.63557 63.560988 
L 299.373599 66.483565 
L 301.111628 62.830343 
L 302.849657 69.406143 
L 304.587686 62.830343 
L 306.325715 67.944854 
L 308.063744 74.520654 
L 309.801773 70.136788 
L 311.539802 60.63841 
L 313.277831 64.291632 
L 315.01586 61.369054 
L 316.753889 61.369054 
L 318.491918 62.830343 
L 320.229947 57.715832 
L 321.967976 58.446476 
L 323.706005 63.560988 
L 325.444034 63.560988 
L 327.182063 64.291632 
L 328.920092 63.560988 
L 330.658121 63.560988 
L 334.134179 62.099699 
L 337.610237 66.483565 
L 339.348266 62.830343 
L 341.086295 59.907765 
L 342.824324 59.177121 
L 344.562353 62.830343 
L 346.300382 60.63841 
L 348.038411 61.369054 
L 349.77644 63.560988 
L 351.514469 59.177121 
L 353.252498 69.406143 
L 354.990526 65.022276 
L 356.728555 62.830343 
L 358.466584 67.21421 
L 360.204613 62.830343 
L 361.942642 67.21421 
L 363.680671 63.560988 
L 365.4187 60.63841 
L 367.156729 67.944854 
L 368.894758 58.446476 
L 370.632787 62.830343 
L 372.370816 66.483565 
L 374.108845 61.369054 
L 375.846874 73.059366 
L 377.584903 75.981943 
L 379.322932 69.406143 
L 381.060961 62.099699 
L 382.79899 59.907765 
L 384.537019 67.21421 
L 386.275048 61.369054 
L 388.013077 64.291632 
L 389.751106 62.099699 
L 391.489135 59.177121 
L 393.227164 59.177121 
L 394.965193 66.483565 
L 396.703222 65.752921 
L 398.441251 70.867432 
L 400.17928 63.560988 
L 401.917309 64.291632 
L 403.655338 71.598077 
L 405.393367 62.099699 
L 407.131396 65.022276 
L 408.869425 60.63841 
L 410.607454 62.099699 
L 412.345483 65.022276 
L 414.083512 73.79001 
L 415.821541 62.099699 
L 417.55957 58.446476 
L 419.297599 64.291632 
L 422.773657 64.291632 
L 422.773657 64.291632 
" style="fill:none;stroke:#4c72b0;stroke-linecap:round;stroke-width:1.5;"/>
   </g>
   <g id="line2d_12">
    <path clip-path="url(#p3a119ad9f6)" d="M 76.905888 325.131959 
L 78.643917 149.046457 
L 80.381946 105.207756 
L 82.119975 93.517444 
L 83.858004 101.554533 
L 85.596033 98.631956 
L 87.334062 94.248089 
L 89.072091 103.015822 
L 90.81012 89.133578 
L 92.548149 89.864222 
L 94.286178 87.672289 
L 96.024207 96.440022 
L 97.762236 77.443232 
L 99.500265 101.554533 
L 101.238294 86.941644 
L 102.976323 91.325511 
L 104.714352 89.133578 
L 106.452381 100.093244 
L 108.19041 82.557777 
L 109.928439 89.133578 
L 111.666468 88.402933 
L 113.404497 86.941644 
L 115.142526 94.978733 
L 116.880555 82.557777 
L 118.618584 87.672289 
L 120.356613 78.173877 
L 122.094642 85.480355 
L 123.832671 81.827133 
L 125.5707 84.749711 
L 127.308729 73.79001 
L 129.046758 81.096488 
L 130.784787 79.635166 
L 132.522816 81.096488 
L 134.260845 79.635166 
L 135.998874 92.7868 
L 137.736903 77.443232 
L 139.474932 81.096488 
L 141.212961 94.978733 
L 142.95099 83.288422 
L 144.689019 78.173877 
L 146.427048 73.79001 
L 148.165077 80.36581 
L 149.903106 84.019066 
L 151.641135 80.36581 
L 153.379164 70.867432 
L 155.117193 83.288422 
L 156.855222 75.981943 
L 158.593251 77.443232 
L 160.33128 75.251299 
L 162.069309 81.096488 
L 163.807338 80.36581 
L 165.545367 78.904521 
L 167.283396 74.520654 
L 169.021425 75.251299 
L 170.759454 75.251299 
L 172.497483 78.173877 
L 174.235512 79.635166 
L 175.973541 78.904521 
L 177.71157 76.712588 
L 179.449599 77.443232 
L 181.187628 74.520654 
L 182.925657 77.443232 
L 184.663686 83.288422 
L 186.401715 73.059366 
L 188.139744 67.21421 
L 189.877773 75.251299 
L 191.615802 78.173877 
L 195.09186 73.79001 
L 196.829889 72.328721 
L 198.567918 78.904521 
L 200.305947 74.520654 
L 202.043976 78.904521 
L 203.782005 79.635166 
L 205.520034 79.635166 
L 207.258063 74.520654 
L 208.996092 77.443232 
L 210.73412 71.598077 
L 212.472149 74.520654 
L 214.210178 76.712588 
L 215.948207 71.598077 
L 217.686236 73.059366 
L 219.424265 81.096488 
L 221.162294 74.520654 
L 222.900323 79.635166 
L 224.638352 68.675499 
L 226.376381 72.328721 
L 228.11441 73.059366 
L 229.852439 67.944854 
L 231.590468 81.096488 
L 233.328497 71.598077 
L 235.066526 68.675499 
L 236.804555 70.136788 
L 238.542584 74.520654 
L 240.280613 67.944854 
L 242.018642 75.251299 
L 243.756671 68.675499 
L 245.4947 76.712588 
L 247.232729 69.406143 
L 250.708787 73.79001 
L 252.446816 67.21421 
L 254.184845 77.443232 
L 255.922874 75.251299 
L 257.660903 67.21421 
L 259.398932 78.173877 
L 261.136961 67.21421 
L 264.613019 71.598077 
L 266.351048 75.251299 
L 268.089077 71.598077 
L 269.827106 75.251299 
L 271.565135 79.635166 
L 273.303164 71.598077 
L 276.779222 73.059366 
L 278.517251 74.520654 
L 280.25528 68.675499 
L 281.993309 71.598077 
L 283.731338 70.136788 
L 285.469367 77.443232 
L 287.207396 68.675499 
L 288.945425 73.059366 
L 290.683454 67.944854 
L 292.421483 74.520654 
L 294.159512 73.059366 
L 295.897541 69.406143 
L 297.63557 69.406143 
L 299.373599 70.136788 
L 301.111628 71.598077 
L 302.849657 73.79001 
L 304.587686 67.944854 
L 309.801773 72.328721 
L 311.539802 70.136788 
L 313.277831 80.36581 
L 315.01586 70.136788 
L 316.753889 70.136788 
L 318.491918 67.944854 
L 320.229947 70.136788 
L 321.967976 71.598077 
L 323.706005 74.520654 
L 325.444034 75.981943 
L 327.182063 67.21421 
L 328.920092 75.981943 
L 330.658121 66.483565 
L 332.39615 73.79001 
L 334.134179 72.328721 
L 335.872208 67.21421 
L 337.610237 73.79001 
L 339.348266 74.520654 
L 341.086295 66.483565 
L 342.824324 75.251299 
L 344.562353 67.21421 
L 346.300382 75.251299 
L 348.038411 72.328721 
L 349.77644 75.251299 
L 351.514469 70.867432 
L 353.252498 74.520654 
L 354.990526 70.867432 
L 356.728555 62.099699 
L 358.466584 77.443232 
L 360.204613 70.867432 
L 361.942642 70.136788 
L 363.680671 75.981943 
L 365.4187 71.598077 
L 367.156729 75.981943 
L 368.894758 79.635166 
L 370.632787 77.443232 
L 372.370816 76.712588 
L 374.108845 67.944854 
L 375.846874 78.173877 
L 377.584903 73.79001 
L 379.322932 73.059366 
L 381.060961 64.291632 
L 382.79899 70.136788 
L 384.537019 71.598077 
L 386.275048 75.981943 
L 388.013077 67.944854 
L 389.751106 69.406143 
L 391.489135 67.944854 
L 393.227164 69.406143 
L 394.965193 72.328721 
L 396.703222 73.059366 
L 398.441251 78.904521 
L 400.17928 68.675499 
L 401.917309 65.752921 
L 403.655338 70.867432 
L 405.393367 73.79001 
L 407.131396 74.520654 
L 408.869425 76.712588 
L 410.607454 72.328721 
L 412.345483 76.712588 
L 414.083512 68.675499 
L 415.821541 73.059366 
L 417.55957 69.406143 
L 419.297599 70.136788 
L 421.035628 66.483565 
L 422.773657 80.36581 
L 422.773657 80.36581 
" style="fill:none;stroke:#dd8452;stroke-linecap:round;stroke-width:1.5;"/>
   </g>
   <g id="line2d_13">
    <path clip-path="url(#p3a119ad9f6)" d="M 76.905888 349.973888 
L 78.643917 205.306149 
L 80.381946 195.807771 
L 83.858004 197.26906 
L 85.596033 183.386781 
L 87.334062 179.733559 
L 89.072091 187.040037 
L 90.81012 179.733559 
L 92.548149 190.693259 
L 94.286178 180.464203 
L 96.024207 178.27227 
L 97.762236 181.925492 
L 99.500265 173.888403 
L 101.238294 176.080336 
L 102.976323 171.69647 
L 104.714352 170.965825 
L 106.452381 172.427114 
L 108.19041 181.925492 
L 109.928439 174.619047 
L 111.666468 173.888403 
L 113.404497 179.002914 
L 115.142526 165.851314 
L 116.880555 171.69647 
L 118.618584 173.157758 
L 120.356613 168.773892 
L 122.094642 173.888403 
L 123.832671 169.504536 
L 125.5707 176.080336 
L 127.308729 167.312603 
L 129.046758 172.427114 
L 130.784787 168.773892 
L 132.522816 168.773892 
L 134.260845 171.69647 
L 135.998874 167.312603 
L 137.736903 165.120669 
L 139.474932 174.619047 
L 141.212961 170.965825 
L 142.95099 165.851314 
L 144.689019 164.390025 
L 146.427048 164.390025 
L 148.165077 165.120669 
L 149.903106 173.888403 
L 151.641135 170.235181 
L 153.379164 168.043247 
L 155.117193 170.235181 
L 156.855222 169.504536 
L 158.593251 172.427114 
L 160.33128 162.198091 
L 162.069309 166.581958 
L 163.807338 162.928736 
L 165.545367 168.043247 
L 167.283396 162.198091 
L 169.021425 160.736803 
L 170.759454 165.120669 
L 172.497483 163.65938 
L 174.235512 165.120669 
L 175.973541 168.043247 
L 177.71157 164.390025 
L 179.449599 159.275514 
L 181.187628 160.736803 
L 182.925657 159.275514 
L 184.663686 163.65938 
L 186.401715 163.65938 
L 188.139744 164.390025 
L 189.877773 164.390025 
L 191.615802 162.928736 
L 193.353831 167.312603 
L 195.09186 160.736803 
L 196.829889 163.65938 
L 198.567918 159.275514 
L 200.305947 168.043247 
L 202.043976 165.120669 
L 203.782005 161.467447 
L 205.520034 158.544869 
L 207.258063 162.198091 
L 208.996092 159.275514 
L 210.73412 154.891647 
L 212.472149 165.120669 
L 214.210178 156.352936 
L 215.948207 160.736803 
L 217.686236 152.699713 
L 219.424265 160.006158 
L 221.162294 156.352936 
L 222.900323 157.814225 
L 224.638352 168.043247 
L 226.376381 157.814225 
L 228.11441 161.467447 
L 229.852439 157.814225 
L 231.590468 155.622291 
L 233.328497 151.238391 
L 235.066526 154.161002 
L 236.804555 162.198091 
L 238.542584 161.467447 
L 240.280613 160.006158 
L 242.018642 154.891647 
L 243.756671 152.699713 
L 245.4947 160.736803 
L 248.970758 156.352936 
L 250.708787 160.006158 
L 252.446816 156.352936 
L 254.184845 154.161002 
L 255.922874 158.544869 
L 257.660903 151.238391 
L 259.398932 152.699713 
L 261.136961 161.467447 
L 262.87499 155.622291 
L 264.613019 159.275514 
L 266.351048 154.891647 
L 268.089077 157.814225 
L 269.827106 149.777102 
L 271.565135 156.352936 
L 273.303164 149.777102 
L 275.041193 159.275514 
L 276.779222 152.699713 
L 278.517251 158.544869 
L 280.25528 155.622291 
L 281.993309 157.08358 
L 283.731338 163.65938 
L 285.469367 154.161002 
L 287.207396 151.238391 
L 288.945425 155.622291 
L 290.683454 158.544869 
L 292.421483 155.622291 
L 294.159512 158.544869 
L 295.897541 150.507746 
L 297.63557 150.507746 
L 299.373599 159.275514 
L 301.111628 152.699713 
L 302.849657 156.352936 
L 304.587686 154.161002 
L 306.325715 155.622291 
L 308.063744 151.238391 
L 309.801773 153.430358 
L 311.539802 149.777102 
L 313.277831 156.352936 
L 315.01586 157.08358 
L 316.753889 150.507746 
L 318.491918 154.161002 
L 320.229947 154.891647 
L 321.967976 156.352936 
L 323.706005 154.161002 
L 325.444034 152.699713 
L 327.182063 154.891647 
L 328.920092 157.814225 
L 330.658121 154.891647 
L 332.39615 158.544869 
L 334.134179 154.161002 
L 335.872208 157.08358 
L 337.610237 157.814225 
L 339.348266 150.507746 
L 341.086295 152.699713 
L 342.824324 150.507746 
L 344.562353 151.238391 
L 346.300382 145.393235 
L 348.038411 154.891647 
L 349.77644 163.65938 
L 351.514469 148.315813 
L 354.990526 152.699713 
L 356.728555 154.161002 
L 358.466584 151.969069 
L 360.204613 152.699713 
L 361.942642 154.891647 
L 365.4187 157.814225 
L 367.156729 157.08358 
L 368.894758 151.969069 
L 370.632787 147.585168 
L 372.370816 159.275514 
L 374.108845 152.699713 
L 375.846874 152.699713 
L 377.584903 151.969069 
L 379.322932 159.275514 
L 381.060961 156.352936 
L 382.79899 150.507746 
L 384.537019 153.430358 
L 386.275048 153.430358 
L 388.013077 155.622291 
L 389.751106 154.891647 
L 391.489135 152.699713 
L 393.227164 147.585168 
L 394.965193 153.430358 
L 396.703222 153.430358 
L 398.441251 150.507746 
L 400.17928 151.238391 
L 401.917309 151.238391 
L 403.655338 151.969069 
L 405.393367 154.891647 
L 407.131396 153.430358 
L 408.869425 153.430358 
L 410.607454 154.161002 
L 412.345483 149.046457 
L 414.083512 154.161002 
L 415.821541 154.891647 
L 417.55957 151.238391 
L 419.297599 149.777102 
L 421.035628 152.699713 
L 422.773657 153.430358 
L 422.773657 153.430358 
" style="fill:none;stroke:#55a868;stroke-linecap:round;stroke-width:1.5;"/>
   </g>
   <g id="patch_3">
    <path d="M 59.6125 299.559375 
L 59.6125 27.759375 
" style="fill:none;stroke:#cccccc;stroke-linecap:square;stroke-linejoin:miter;stroke-width:1.25;"/>
   </g>
   <g id="patch_4">
    <path d="M 440.067045 299.559375 
L 440.067045 27.759375 
" style="fill:none;stroke:#cccccc;stroke-linecap:square;stroke-linejoin:miter;stroke-width:1.25;"/>
   </g>
   <g id="patch_5">
    <path d="M 59.6125 299.559375 
L 440.067045 299.559375 
" style="fill:none;stroke:#cccccc;stroke-linecap:square;stroke-linejoin:miter;stroke-width:1.25;"/>
   </g>
   <g id="patch_6">
    <path d="M 59.6125 27.759375 
L 440.067045 27.759375 
" style="fill:none;stroke:#cccccc;stroke-linecap:square;stroke-linejoin:miter;stroke-width:1.25;"/>
   </g>
   <g id="text_13">
    <!-- Accuracy for model without ancient samples -->
    <g style="fill:#262626;" transform="translate(54.76321 21.759375)scale(0.2 -0.2)">
     <defs>
      <path id="ArialMT-20" transform="scale(0.015625)"/>
      <path d="M 556 0 
L 556 2881 
L 59 2881 
L 59 3319 
L 556 3319 
L 556 3672 
Q 556 4006 616 4169 
Q 697 4388 901 4523 
Q 1106 4659 1475 4659 
Q 1713 4659 2000 4603 
L 1916 4113 
Q 1741 4144 1584 4144 
Q 1328 4144 1222 4034 
Q 1116 3925 1116 3625 
L 1116 3319 
L 1763 3319 
L 1763 2881 
L 1116 2881 
L 1116 0 
L 556 0 
z
" id="ArialMT-66" transform="scale(0.015625)"/>
      <path d="M 422 0 
L 422 3319 
L 925 3319 
L 925 2853 
Q 1081 3097 1340 3245 
Q 1600 3394 1931 3394 
Q 2300 3394 2536 3241 
Q 2772 3088 2869 2813 
Q 3263 3394 3894 3394 
Q 4388 3394 4653 3120 
Q 4919 2847 4919 2278 
L 4919 0 
L 4359 0 
L 4359 2091 
Q 4359 2428 4304 2576 
Q 4250 2725 4106 2815 
Q 3963 2906 3769 2906 
Q 3419 2906 3187 2673 
Q 2956 2441 2956 1928 
L 2956 0 
L 2394 0 
L 2394 2156 
Q 2394 2531 2256 2718 
Q 2119 2906 1806 2906 
Q 1569 2906 1367 2781 
Q 1166 2656 1075 2415 
Q 984 2175 984 1722 
L 984 0 
L 422 0 
z
" id="ArialMT-6d" transform="scale(0.015625)"/>
      <path d="M 2575 0 
L 2575 419 
Q 2259 -75 1647 -75 
Q 1250 -75 917 144 
Q 584 363 401 755 
Q 219 1147 219 1656 
Q 219 2153 384 2558 
Q 550 2963 881 3178 
Q 1213 3394 1622 3394 
Q 1922 3394 2156 3267 
Q 2391 3141 2538 2938 
L 2538 4581 
L 3097 4581 
L 3097 0 
L 2575 0 
z
M 797 1656 
Q 797 1019 1065 703 
Q 1334 388 1700 388 
Q 2069 388 2326 689 
Q 2584 991 2584 1609 
Q 2584 2291 2321 2609 
Q 2059 2928 1675 2928 
Q 1300 2928 1048 2622 
Q 797 2316 797 1656 
z
" id="ArialMT-64" transform="scale(0.015625)"/>
      <path d="M 2694 1069 
L 3275 997 
Q 3138 488 2766 206 
Q 2394 -75 1816 -75 
Q 1088 -75 661 373 
Q 234 822 234 1631 
Q 234 2469 665 2931 
Q 1097 3394 1784 3394 
Q 2450 3394 2872 2941 
Q 3294 2488 3294 1666 
Q 3294 1616 3291 1516 
L 816 1516 
Q 847 969 1125 678 
Q 1403 388 1819 388 
Q 2128 388 2347 550 
Q 2566 713 2694 1069 
z
M 847 1978 
L 2700 1978 
Q 2663 2397 2488 2606 
Q 2219 2931 1791 2931 
Q 1403 2931 1139 2672 
Q 875 2413 847 1978 
z
" id="ArialMT-65" transform="scale(0.015625)"/>
      <path d="M 409 0 
L 409 4581 
L 972 4581 
L 972 0 
L 409 0 
z
" id="ArialMT-6c" transform="scale(0.015625)"/>
      <path d="M 1034 0 
L 19 3319 
L 600 3319 
L 1128 1403 
L 1325 691 
Q 1338 744 1497 1375 
L 2025 3319 
L 2603 3319 
L 3100 1394 
L 3266 759 
L 3456 1400 
L 4025 3319 
L 4572 3319 
L 3534 0 
L 2950 0 
L 2422 1988 
L 2294 2553 
L 1622 0 
L 1034 0 
z
" id="ArialMT-77" transform="scale(0.015625)"/>
      <path d="M 425 3934 
L 425 4581 
L 988 4581 
L 988 3934 
L 425 3934 
z
M 425 0 
L 425 3319 
L 988 3319 
L 988 0 
L 425 0 
z
" id="ArialMT-69" transform="scale(0.015625)"/>
      <path d="M 1650 503 
L 1731 6 
Q 1494 -44 1306 -44 
Q 1000 -44 831 53 
Q 663 150 594 308 
Q 525 466 525 972 
L 525 2881 
L 113 2881 
L 113 3319 
L 525 3319 
L 525 4141 
L 1084 4478 
L 1084 3319 
L 1650 3319 
L 1650 2881 
L 1084 2881 
L 1084 941 
Q 1084 700 1114 631 
Q 1144 563 1211 522 
Q 1278 481 1403 481 
Q 1497 481 1650 503 
z
" id="ArialMT-74" transform="scale(0.015625)"/>
      <path d="M 422 0 
L 422 3319 
L 928 3319 
L 928 2847 
Q 1294 3394 1984 3394 
Q 2284 3394 2536 3286 
Q 2788 3178 2913 3003 
Q 3038 2828 3088 2588 
Q 3119 2431 3119 2041 
L 3119 0 
L 2556 0 
L 2556 2019 
Q 2556 2363 2490 2533 
Q 2425 2703 2258 2804 
Q 2091 2906 1866 2906 
Q 1506 2906 1245 2678 
Q 984 2450 984 1813 
L 984 0 
L 422 0 
z
" id="ArialMT-6e" transform="scale(0.015625)"/>
     </defs>
     <use xlink:href="#ArialMT-41"/>
     <use x="66.699219" xlink:href="#ArialMT-63"/>
     <use x="116.699219" xlink:href="#ArialMT-63"/>
     <use x="166.699219" xlink:href="#ArialMT-75"/>
     <use x="222.314453" xlink:href="#ArialMT-72"/>
     <use x="255.615234" xlink:href="#ArialMT-61"/>
     <use x="311.230469" xlink:href="#ArialMT-63"/>
     <use x="361.230469" xlink:href="#ArialMT-79"/>
     <use x="411.230469" xlink:href="#ArialMT-20"/>
     <use x="439.013672" xlink:href="#ArialMT-66"/>
     <use x="466.796875" xlink:href="#ArialMT-6f"/>
     <use x="522.412109" xlink:href="#ArialMT-72"/>
     <use x="555.712891" xlink:href="#ArialMT-20"/>
     <use x="583.496094" xlink:href="#ArialMT-6d"/>
     <use x="666.796875" xlink:href="#ArialMT-6f"/>
     <use x="722.412109" xlink:href="#ArialMT-64"/>
     <use x="778.027344" xlink:href="#ArialMT-65"/>
     <use x="833.642578" xlink:href="#ArialMT-6c"/>
     <use x="855.859375" xlink:href="#ArialMT-20"/>
     <use x="883.642578" xlink:href="#ArialMT-77"/>
     <use x="955.859375" xlink:href="#ArialMT-69"/>
     <use x="978.076172" xlink:href="#ArialMT-74"/>
     <use x="1005.859375" xlink:href="#ArialMT-68"/>
     <use x="1061.474609" xlink:href="#ArialMT-6f"/>
     <use x="1117.089844" xlink:href="#ArialMT-75"/>
     <use x="1172.705078" xlink:href="#ArialMT-74"/>
     <use x="1200.488281" xlink:href="#ArialMT-20"/>
     <use x="1228.271484" xlink:href="#ArialMT-61"/>
     <use x="1283.886719" xlink:href="#ArialMT-6e"/>
     <use x="1339.501953" xlink:href="#ArialMT-63"/>
     <use x="1389.501953" xlink:href="#ArialMT-69"/>
     <use x="1411.71875" xlink:href="#ArialMT-65"/>
     <use x="1467.333984" xlink:href="#ArialMT-6e"/>
     <use x="1522.949219" xlink:href="#ArialMT-74"/>
     <use x="1550.732422" xlink:href="#ArialMT-20"/>
     <use x="1578.515625" xlink:href="#ArialMT-73"/>
     <use x="1628.515625" xlink:href="#ArialMT-61"/>
     <use x="1684.130859" xlink:href="#ArialMT-6d"/>
     <use x="1767.431641" xlink:href="#ArialMT-70"/>
     <use x="1823.046875" xlink:href="#ArialMT-6c"/>
     <use x="1845.263672" xlink:href="#ArialMT-65"/>
     <use x="1900.878906" xlink:href="#ArialMT-73"/>
    </g>
   </g>
   <g id="legend_1">
    <g id="patch_7">
     <path d="M 354.978608 294.059375 
L 432.367045 294.059375 
Q 434.567045 294.059375 434.567045 291.859375 
L 434.567045 246.279844 
Q 434.567045 244.079844 432.367045 244.079844 
L 354.978608 244.079844 
Q 352.778608 244.079844 352.778608 246.279844 
L 352.778608 291.859375 
Q 352.778608 294.059375 354.978608 294.059375 
z
" style="fill:#ffffff;opacity:0.8;stroke:#cccccc;stroke-linejoin:miter;"/>
    </g>
    <g id="line2d_14">
     <path d="M 357.178608 252.503437 
L 379.178608 252.503437 
" style="fill:none;stroke:#4c72b0;stroke-linecap:round;stroke-width:1.5;"/>
    </g>
    <g id="line2d_15"/>
    <g id="text_14">
     <!-- 100 PCs -->
     <g style="fill:#262626;" transform="translate(387.978608 256.353437)scale(0.11 -0.11)">
      <defs>
       <path d="M 494 0 
L 494 4581 
L 2222 4581 
Q 2678 4581 2919 4538 
Q 3256 4481 3484 4323 
Q 3713 4166 3852 3881 
Q 3991 3597 3991 3256 
Q 3991 2672 3619 2267 
Q 3247 1863 2275 1863 
L 1100 1863 
L 1100 0 
L 494 0 
z
M 1100 2403 
L 2284 2403 
Q 2872 2403 3119 2622 
Q 3366 2841 3366 3238 
Q 3366 3525 3220 3729 
Q 3075 3934 2838 4000 
Q 2684 4041 2272 4041 
L 1100 4041 
L 1100 2403 
z
" id="ArialMT-50" transform="scale(0.015625)"/>
       <path d="M 3763 1606 
L 4369 1453 
Q 4178 706 3683 314 
Q 3188 -78 2472 -78 
Q 1731 -78 1267 223 
Q 803 525 561 1097 
Q 319 1669 319 2325 
Q 319 3041 592 3573 
Q 866 4106 1370 4382 
Q 1875 4659 2481 4659 
Q 3169 4659 3637 4309 
Q 4106 3959 4291 3325 
L 3694 3184 
Q 3534 3684 3231 3912 
Q 2928 4141 2469 4141 
Q 1941 4141 1586 3887 
Q 1231 3634 1087 3207 
Q 944 2781 944 2328 
Q 944 1744 1114 1308 
Q 1284 872 1643 656 
Q 2003 441 2422 441 
Q 2931 441 3284 734 
Q 3638 1028 3763 1606 
z
" id="ArialMT-43" transform="scale(0.015625)"/>
      </defs>
      <use xlink:href="#ArialMT-31"/>
      <use x="55.615234" xlink:href="#ArialMT-30"/>
      <use x="111.230469" xlink:href="#ArialMT-30"/>
      <use x="166.845703" xlink:href="#ArialMT-20"/>
      <use x="194.628906" xlink:href="#ArialMT-50"/>
      <use x="261.328125" xlink:href="#ArialMT-43"/>
      <use x="333.544922" xlink:href="#ArialMT-73"/>
     </g>
    </g>
    <g id="line2d_16">
     <path d="M 357.178608 268.063281 
L 379.178608 268.063281 
" style="fill:none;stroke:#dd8452;stroke-linecap:round;stroke-width:1.5;"/>
    </g>
    <g id="line2d_17"/>
    <g id="text_15">
     <!-- 20 PCs -->
     <g style="fill:#262626;" transform="translate(387.978608 271.913281)scale(0.11 -0.11)">
      <use xlink:href="#ArialMT-32"/>
      <use x="55.615234" xlink:href="#ArialMT-30"/>
      <use x="111.230469" xlink:href="#ArialMT-20"/>
      <use x="139.013672" xlink:href="#ArialMT-50"/>
      <use x="205.712891" xlink:href="#ArialMT-43"/>
      <use x="277.929688" xlink:href="#ArialMT-73"/>
     </g>
    </g>
    <g id="line2d_18">
     <path d="M 357.178608 283.623125 
L 379.178608 283.623125 
" style="fill:none;stroke:#55a868;stroke-linecap:round;stroke-width:1.5;"/>
    </g>
    <g id="line2d_19"/>
    <g id="text_16">
     <!-- 2 PCs -->
     <g style="fill:#262626;" transform="translate(387.978608 287.473125)scale(0.11 -0.11)">
      <use xlink:href="#ArialMT-32"/>
      <use x="55.615234" xlink:href="#ArialMT-20"/>
      <use x="83.398438" xlink:href="#ArialMT-50"/>
      <use x="150.097656" xlink:href="#ArialMT-43"/>
      <use x="222.314453" xlink:href="#ArialMT-73"/>
     </g>
    </g>
   </g>
  </g>
  <g id="axes_2">
   <g id="patch_8">
    <path d="M 516.157955 299.559375 
L 896.6125 299.559375 
L 896.6125 27.759375 
L 516.157955 27.759375 
z
" style="fill:#ffffff;"/>
   </g>
   <g id="matplotlib.axis_3">
    <g id="xtick_6">
     <g id="line2d_20">
      <path clip-path="url(#pc866b0fda6)" d="M 533.451343 299.559375 
L 533.451343 27.759375 
" style="fill:none;stroke:#cccccc;stroke-linecap:round;"/>
     </g>
     <g id="text_17">
      <!-- 0 -->
      <g style="fill:#262626;" transform="translate(529.002593 320.511875)scale(0.16 -0.16)">
       <use xlink:href="#ArialMT-30"/>
      </g>
     </g>
    </g>
    <g id="xtick_7">
     <g id="line2d_21">
      <path clip-path="url(#pc866b0fda6)" d="M 620.352792 299.559375 
L 620.352792 27.759375 
" style="fill:none;stroke:#cccccc;stroke-linecap:round;"/>
     </g>
     <g id="text_18">
      <!-- 50 -->
      <g style="fill:#262626;" transform="translate(611.455292 320.511875)scale(0.16 -0.16)">
       <use xlink:href="#ArialMT-35"/>
       <use x="55.615234" xlink:href="#ArialMT-30"/>
      </g>
     </g>
    </g>
    <g id="xtick_8">
     <g id="line2d_22">
      <path clip-path="url(#pc866b0fda6)" d="M 707.254242 299.559375 
L 707.254242 27.759375 
" style="fill:none;stroke:#cccccc;stroke-linecap:round;"/>
     </g>
     <g id="text_19">
      <!-- 100 -->
      <g style="fill:#262626;" transform="translate(693.907992 320.511875)scale(0.16 -0.16)">
       <use xlink:href="#ArialMT-31"/>
       <use x="55.615234" xlink:href="#ArialMT-30"/>
       <use x="111.230469" xlink:href="#ArialMT-30"/>
      </g>
     </g>
    </g>
    <g id="xtick_9">
     <g id="line2d_23">
      <path clip-path="url(#pc866b0fda6)" d="M 794.155691 299.559375 
L 794.155691 27.759375 
" style="fill:none;stroke:#cccccc;stroke-linecap:round;"/>
     </g>
     <g id="text_20">
      <!-- 150 -->
      <g style="fill:#262626;" transform="translate(780.809441 320.511875)scale(0.16 -0.16)">
       <use xlink:href="#ArialMT-31"/>
       <use x="55.615234" xlink:href="#ArialMT-35"/>
       <use x="111.230469" xlink:href="#ArialMT-30"/>
      </g>
     </g>
    </g>
    <g id="xtick_10">
     <g id="line2d_24">
      <path clip-path="url(#pc866b0fda6)" d="M 881.057141 299.559375 
L 881.057141 27.759375 
" style="fill:none;stroke:#cccccc;stroke-linecap:round;"/>
     </g>
     <g id="text_21">
      <!-- 200 -->
      <g style="fill:#262626;" transform="translate(867.710891 320.511875)scale(0.16 -0.16)">
       <use xlink:href="#ArialMT-32"/>
       <use x="55.615234" xlink:href="#ArialMT-30"/>
       <use x="111.230469" xlink:href="#ArialMT-30"/>
      </g>
     </g>
    </g>
    <g id="text_22">
     <!-- Epochs -->
     <g style="fill:#262626;" transform="translate(676.367415 340.575938)scale(0.18 -0.18)">
      <use xlink:href="#ArialMT-45"/>
      <use x="66.699219" xlink:href="#ArialMT-70"/>
      <use x="122.314453" xlink:href="#ArialMT-6f"/>
      <use x="177.929688" xlink:href="#ArialMT-63"/>
      <use x="227.929688" xlink:href="#ArialMT-68"/>
      <use x="283.544922" xlink:href="#ArialMT-73"/>
     </g>
    </g>
   </g>
   <g id="matplotlib.axis_4">
    <g id="ytick_6">
     <g id="line2d_25">
      <path clip-path="url(#pc866b0fda6)" d="M 516.157955 299.559375 
L 896.6125 299.559375 
" style="fill:none;stroke:#cccccc;stroke-linecap:round;"/>
     </g>
     <g id="text_23">
      <!-- 0.0 -->
      <g style="fill:#262626;" transform="translate(484.417955 305.285625)scale(0.16 -0.16)">
       <use xlink:href="#ArialMT-30"/>
       <use x="55.615234" xlink:href="#ArialMT-2e"/>
       <use x="83.398438" xlink:href="#ArialMT-30"/>
      </g>
     </g>
    </g>
    <g id="ytick_7">
     <g id="line2d_26">
      <path clip-path="url(#pc866b0fda6)" d="M 516.157955 260.730804 
L 896.6125 260.730804 
" style="fill:none;stroke:#cccccc;stroke-linecap:round;"/>
     </g>
     <g id="text_24">
      <!-- 0.2 -->
      <g style="fill:#262626;" transform="translate(484.417955 266.457054)scale(0.16 -0.16)">
       <use xlink:href="#ArialMT-30"/>
       <use x="55.615234" xlink:href="#ArialMT-2e"/>
       <use x="83.398438" xlink:href="#ArialMT-32"/>
      </g>
     </g>
    </g>
    <g id="ytick_8">
     <g id="line2d_27">
      <path clip-path="url(#pc866b0fda6)" d="M 516.157955 221.902232 
L 896.6125 221.902232 
" style="fill:none;stroke:#cccccc;stroke-linecap:round;"/>
     </g>
     <g id="text_25">
      <!-- 0.4 -->
      <g style="fill:#262626;" transform="translate(484.417955 227.628482)scale(0.16 -0.16)">
       <defs>
        <path d="M 2069 0 
L 2069 1097 
L 81 1097 
L 81 1613 
L 2172 4581 
L 2631 4581 
L 2631 1613 
L 3250 1613 
L 3250 1097 
L 2631 1097 
L 2631 0 
L 2069 0 
z
M 2069 1613 
L 2069 3678 
L 634 1613 
L 2069 1613 
z
" id="ArialMT-34" transform="scale(0.015625)"/>
       </defs>
       <use xlink:href="#ArialMT-30"/>
       <use x="55.615234" xlink:href="#ArialMT-2e"/>
       <use x="83.398438" xlink:href="#ArialMT-34"/>
      </g>
     </g>
    </g>
    <g id="ytick_9">
     <g id="line2d_28">
      <path clip-path="url(#pc866b0fda6)" d="M 516.157955 183.073661 
L 896.6125 183.073661 
" style="fill:none;stroke:#cccccc;stroke-linecap:round;"/>
     </g>
     <g id="text_26">
      <!-- 0.6 -->
      <g style="fill:#262626;" transform="translate(484.417955 188.799911)scale(0.16 -0.16)">
       <use xlink:href="#ArialMT-30"/>
       <use x="55.615234" xlink:href="#ArialMT-2e"/>
       <use x="83.398438" xlink:href="#ArialMT-36"/>
      </g>
     </g>
    </g>
    <g id="ytick_10">
     <g id="line2d_29">
      <path clip-path="url(#pc866b0fda6)" d="M 516.157955 144.245089 
L 896.6125 144.245089 
" style="fill:none;stroke:#cccccc;stroke-linecap:round;"/>
     </g>
     <g id="text_27">
      <!-- 0.8 -->
      <g style="fill:#262626;" transform="translate(484.417955 149.971339)scale(0.16 -0.16)">
       <use xlink:href="#ArialMT-30"/>
       <use x="55.615234" xlink:href="#ArialMT-2e"/>
       <use x="83.398438" xlink:href="#ArialMT-38"/>
      </g>
     </g>
    </g>
    <g id="ytick_11">
     <g id="line2d_30">
      <path clip-path="url(#pc866b0fda6)" d="M 516.157955 105.416518 
L 896.6125 105.416518 
" style="fill:none;stroke:#cccccc;stroke-linecap:round;"/>
     </g>
     <g id="text_28">
      <!-- 1.0 -->
      <g style="fill:#262626;" transform="translate(484.417955 111.142768)scale(0.16 -0.16)">
       <use xlink:href="#ArialMT-31"/>
       <use x="55.615234" xlink:href="#ArialMT-2e"/>
       <use x="83.398438" xlink:href="#ArialMT-30"/>
      </g>
     </g>
    </g>
    <g id="ytick_12">
     <g id="line2d_31">
      <path clip-path="url(#pc866b0fda6)" d="M 516.157955 66.587946 
L 896.6125 66.587946 
" style="fill:none;stroke:#cccccc;stroke-linecap:round;"/>
     </g>
     <g id="text_29">
      <!-- 1.2 -->
      <g style="fill:#262626;" transform="translate(484.417955 72.314196)scale(0.16 -0.16)">
       <use xlink:href="#ArialMT-31"/>
       <use x="55.615234" xlink:href="#ArialMT-2e"/>
       <use x="83.398438" xlink:href="#ArialMT-32"/>
      </g>
     </g>
    </g>
    <g id="ytick_13">
     <g id="line2d_32">
      <path clip-path="url(#pc866b0fda6)" d="M 516.157955 27.759375 
L 896.6125 27.759375 
" style="fill:none;stroke:#cccccc;stroke-linecap:round;"/>
     </g>
     <g id="text_30">
      <!-- 1.4 -->
      <g style="fill:#262626;" transform="translate(484.417955 33.485625)scale(0.16 -0.16)">
       <use xlink:href="#ArialMT-31"/>
       <use x="55.615234" xlink:href="#ArialMT-2e"/>
       <use x="83.398438" xlink:href="#ArialMT-34"/>
      </g>
     </g>
    </g>
    <g id="text_31">
     <!-- Loss -->
     <g style="fill:#262626;" transform="translate(476.840455 182.669062)rotate(-90)scale(0.18 -0.18)">
      <defs>
       <path d="M 469 0 
L 469 4581 
L 1075 4581 
L 1075 541 
L 3331 541 
L 3331 0 
L 469 0 
z
" id="ArialMT-4c" transform="scale(0.015625)"/>
      </defs>
      <use xlink:href="#ArialMT-4c"/>
      <use x="55.615234" xlink:href="#ArialMT-6f"/>
      <use x="111.230469" xlink:href="#ArialMT-73"/>
      <use x="161.230469" xlink:href="#ArialMT-73"/>
     </g>
    </g>
   </g>
   <g id="line2d_33">
    <path clip-path="url(#pc866b0fda6)" d="M 534.128542 -1 
L 535.189372 216.08619 
L 536.927401 235.284753 
L 538.66543 241.683186 
L 540.403459 246.036202 
L 542.141488 236.51258 
L 543.879517 253.737602 
L 545.617546 260.281177 
L 547.355575 255.267092 
L 549.093604 258.032377 
L 550.831633 243.555899 
L 552.569662 241.199391 
L 554.307691 261.008625 
L 556.04572 263.482873 
L 557.783749 261.257471 
L 559.521778 251.106917 
L 561.259807 258.582845 
L 562.997836 260.802551 
L 564.735865 263.204441 
L 566.473894 258.045974 
L 568.211923 246.532367 
L 571.687981 262.907551 
L 573.42601 251.892496 
L 575.164039 237.430138 
L 576.902068 262.144124 
L 578.640097 264.310191 
L 580.378126 258.098872 
L 582.116155 255.795186 
L 583.854184 256.632772 
L 585.592213 259.028464 
L 587.330242 252.751136 
L 589.068271 258.97226 
L 590.8063 260.10035 
L 592.544329 257.554985 
L 594.282358 263.708142 
L 596.020387 258.633608 
L 597.758416 248.008369 
L 599.496445 262.363135 
L 601.234474 261.944796 
L 602.972502 250.552705 
L 604.710531 259.784362 
L 606.44856 259.204981 
L 608.186589 255.121446 
L 609.924618 262.094689 
L 611.662647 250.57446 
L 613.400676 259.395589 
L 615.138705 257.504743 
L 616.876734 252.350286 
L 618.614763 249.077085 
L 620.352792 257.111347 
L 622.090821 253.988334 
L 623.82885 251.456643 
L 625.566879 254.473792 
L 627.304908 246.952979 
L 629.042937 245.555335 
L 630.780966 255.701478 
L 632.518995 254.002692 
L 634.257024 252.877361 
L 635.995053 249.744287 
L 637.733082 256.66094 
L 639.471111 256.466786 
L 641.20914 255.236661 
L 642.947169 256.966954 
L 644.685198 247.348151 
L 646.423227 246.049938 
L 648.161256 253.202373 
L 649.899285 256.446003 
L 651.637314 247.221023 
L 653.375343 250.159113 
L 655.113372 245.035639 
L 656.851401 248.700266 
L 658.58943 249.869748 
L 660.327459 250.463932 
L 662.065488 252.535287 
L 663.803517 248.193877 
L 665.541546 253.309256 
L 667.279575 252.575537 
L 669.017604 246.558351 
L 670.755633 246.399042 
L 672.493662 250.945395 
L 674.231691 247.960022 
L 675.96972 245.728369 
L 677.707749 251.4331 
L 679.445778 241.981762 
L 681.183807 244.977329 
L 682.921836 247.557497 
L 684.659865 246.125056 
L 686.397894 230.536351 
L 688.135923 249.343016 
L 689.873952 239.997618 
L 691.611981 248.877772 
L 693.35001 247.193436 
L 695.088039 250.033003 
L 696.826068 246.525829 
L 698.564097 229.684833 
L 700.302126 220.789734 
L 702.040155 243.183703 
L 703.778184 242.810425 
L 705.516213 231.372906 
L 707.254242 233.878708 
L 708.992271 223.980084 
L 710.7303 244.954261 
L 712.468329 246.016079 
L 714.206358 241.032746 
L 715.944387 246.259556 
L 717.682416 249.705504 
L 719.420445 243.734128 
L 721.158474 240.597026 
L 722.896503 246.118808 
L 724.634532 237.537918 
L 726.372561 242.802915 
L 728.11059 247.634206 
L 729.848619 247.158246 
L 731.586648 246.079643 
L 733.324677 222.568773 
L 735.062706 243.466663 
L 736.800735 247.845814 
L 738.538764 245.761742 
L 740.276793 240.079269 
L 742.014822 243.41772 
L 743.752851 231.721455 
L 745.49088 247.460461 
L 747.228908 246.302626 
L 748.966937 242.855434 
L 750.704966 252.006565 
L 752.442995 252.224381 
L 754.181024 250.538825 
L 755.919053 246.540461 
L 757.657082 247.344315 
L 759.395111 235.623703 
L 761.13314 246.354236 
L 762.871169 240.150395 
L 764.609198 229.349788 
L 766.347227 228.403266 
L 768.085256 242.743801 
L 769.823285 239.629634 
L 771.561314 244.296733 
L 773.299343 243.006076 
L 775.037372 241.926946 
L 776.775401 246.097064 
L 778.51343 245.554901 
L 780.251459 242.167281 
L 781.989488 242.328268 
L 783.727517 239.810247 
L 785.465546 244.828429 
L 787.203575 239.364668 
L 788.941604 243.393564 
L 790.679633 237.435733 
L 792.417662 238.589079 
L 794.155691 240.9275 
L 795.89372 241.229629 
L 797.631749 244.68429 
L 799.369778 241.820705 
L 801.107807 239.519355 
L 802.845836 242.760979 
L 804.583865 243.135784 
L 806.321894 243.642607 
L 808.059923 245.928405 
L 809.797952 239.576739 
L 811.535981 239.796824 
L 813.27401 244.054396 
L 815.012039 234.710409 
L 816.750068 236.075009 
L 818.488097 225.437027 
L 820.226126 239.000561 
L 821.964155 242.161958 
L 823.702184 236.102417 
L 825.440213 236.862263 
L 827.178242 238.474229 
L 828.916271 229.145251 
L 830.6543 243.043424 
L 832.392329 233.493343 
L 834.130358 231.14066 
L 835.868387 235.605367 
L 837.606416 245.405961 
L 839.344445 248.211599 
L 841.082474 235.138016 
L 842.820503 239.399818 
L 844.558532 237.006732 
L 846.296561 243.094375 
L 848.03459 240.624139 
L 849.772619 245.971655 
L 851.510648 236.021519 
L 853.248677 239.499671 
L 854.986706 228.605315 
L 856.724735 243.025418 
L 858.462764 228.490766 
L 861.938822 242.956063 
L 863.676851 240.55671 
L 865.41488 244.619783 
L 867.152909 243.977675 
L 868.890938 230.878888 
L 870.628967 229.086182 
L 872.366996 245.7579 
L 874.105025 249.722543 
L 875.843054 237.181761 
L 877.581083 238.76346 
L 879.319112 239.552149 
L 879.319112 239.552149 
" style="fill:none;stroke:#4c72b0;stroke-linecap:round;stroke-width:1.5;"/>
   </g>
   <g id="line2d_34">
    <path clip-path="url(#pc866b0fda6)" d="M 533.451343 4.543239 
L 535.189372 211.633158 
L 536.927401 237.560877 
L 538.66543 244.520682 
L 540.403459 247.022856 
L 542.141488 244.537143 
L 543.879517 249.729903 
L 545.617546 246.892106 
L 547.355575 251.498666 
L 549.093604 251.317316 
L 550.831633 255.303798 
L 552.569662 249.376476 
L 554.307691 255.688404 
L 556.04572 241.342616 
L 557.783749 250.969001 
L 559.521778 253.018034 
L 561.259807 253.995543 
L 562.997836 249.461737 
L 564.735865 256.455867 
L 566.473894 252.546471 
L 568.211923 252.366231 
L 569.949952 255.23662 
L 571.687981 255.70567 
L 573.42601 254.879818 
L 575.164039 252.401844 
L 576.902068 255.809529 
L 578.640097 253.36021 
L 580.378126 258.104495 
L 582.116155 257.053413 
L 583.854184 262.405832 
L 585.592213 256.936798 
L 587.330242 257.838801 
L 589.068271 257.677024 
L 590.8063 261.41547 
L 592.544329 252.586041 
L 594.282358 258.287402 
L 596.020387 256.074773 
L 597.758416 255.316755 
L 599.496445 255.908529 
L 601.234474 258.087925 
L 602.972502 261.787478 
L 604.710531 257.769891 
L 606.44856 260.000066 
L 608.186589 259.900514 
L 609.924618 255.947072 
L 611.662647 260.038129 
L 613.400676 263.471747 
L 615.138705 258.055124 
L 616.876734 265.0546 
L 618.614763 257.133736 
L 620.352792 259.361244 
L 622.090821 258.611055 
L 623.82885 260.361471 
L 625.566879 260.811939 
L 627.304908 263.479153 
L 629.042937 259.517926 
L 630.780966 258.396157 
L 632.518995 261.515413 
L 634.257024 261.962793 
L 635.995053 260.021575 
L 637.733082 258.889973 
L 639.471111 260.046802 
L 641.20914 258.630515 
L 642.947169 260.38044 
L 644.685198 262.487804 
L 646.423227 263.935817 
L 648.161256 260.307379 
L 649.899285 263.380807 
L 651.637314 259.841049 
L 653.375343 263.716323 
L 655.113372 260.427135 
L 656.851401 265.39082 
L 658.58943 259.173471 
L 660.327459 260.076582 
L 662.065488 261.150623 
L 663.803517 259.417735 
L 665.541546 262.497437 
L 667.279575 261.557089 
L 669.017604 261.996407 
L 670.755633 257.542238 
L 672.493662 262.678079 
L 674.231691 262.713104 
L 675.96972 258.835218 
L 677.707749 259.530939 
L 679.445778 258.474655 
L 681.183807 262.142038 
L 682.921836 262.977682 
L 684.659865 258.933859 
L 686.397894 261.771494 
L 688.135923 256.454045 
L 689.873952 261.728077 
L 691.611981 262.692289 
L 693.35001 262.592436 
L 695.088039 264.528754 
L 696.826068 265.269761 
L 698.564097 261.799857 
L 700.302126 264.51402 
L 702.040155 255.354251 
L 703.778184 264.780915 
L 705.516213 262.150535 
L 707.254242 265.628959 
L 708.992271 262.904867 
L 710.7303 253.73586 
L 712.468329 261.8821 
L 714.206358 263.904978 
L 715.944387 259.449268 
L 717.682416 262.908688 
L 719.420445 264.182436 
L 722.896503 261.11985 
L 726.372561 259.724197 
L 728.11059 259.848038 
L 729.848619 263.500882 
L 733.324677 259.848681 
L 735.062706 255.000156 
L 736.800735 261.845287 
L 738.538764 260.5224 
L 740.276793 262.93009 
L 742.014822 258.205043 
L 743.752851 265.474331 
L 745.49088 258.998112 
L 747.228908 263.324594 
L 748.966937 260.782254 
L 750.704966 260.473261 
L 752.442995 263.690037 
L 754.181024 261.762662 
L 755.919053 261.62181 
L 757.657082 260.080114 
L 759.395111 256.315432 
L 761.13314 261.737184 
L 762.871169 264.244657 
L 764.609198 263.79756 
L 766.347227 260.865687 
L 768.085256 261.978071 
L 769.823285 255.754847 
L 771.561314 259.137349 
L 773.299343 263.303342 
L 775.037372 260.971387 
L 776.775401 261.475302 
L 778.51343 258.434819 
L 780.251459 259.72242 
L 781.989488 258.97701 
L 783.727517 262.550465 
L 785.465546 259.315396 
L 787.203575 265.129745 
L 788.941604 258.843833 
L 790.679633 257.922905 
L 792.417662 260.906865 
L 794.155691 260.4866 
L 795.89372 255.755651 
L 797.631749 260.260756 
L 799.369778 258.594767 
L 801.107807 261.062029 
L 802.845836 258.474354 
L 804.583865 259.567413 
L 806.321894 257.772604 
L 808.059923 258.953838 
L 809.797952 256.996613 
L 811.535981 257.407022 
L 813.27401 265.851233 
L 815.012039 257.210671 
L 816.750068 257.959851 
L 818.488097 263.567611 
L 820.226126 251.957952 
L 821.964155 255.272722 
L 823.702184 255.781624 
L 825.440213 255.877705 
L 827.178242 256.64601 
L 828.916271 255.425776 
L 830.6543 257.021524 
L 832.392329 254.864425 
L 834.130358 256.023822 
L 835.868387 255.491221 
L 837.606416 258.317353 
L 839.344445 259.59397 
L 841.082474 258.281868 
L 842.820503 256.722708 
L 846.296561 258.384259 
L 848.03459 260.952198 
L 849.772619 256.1954 
L 851.510648 261.54442 
L 853.248677 258.057566 
L 854.986706 256.537217 
L 856.724735 258.418991 
L 858.462764 261.376039 
L 860.200793 256.466629 
L 861.938822 261.872232 
L 863.676851 255.451246 
L 865.41488 258.600027 
L 867.152909 257.67602 
L 868.890938 258.339285 
L 870.628967 258.521457 
L 872.366996 255.557767 
L 874.105025 256.893438 
L 875.843054 256.751423 
L 877.581083 259.740227 
L 879.319112 251.162702 
L 879.319112 251.162702 
" style="fill:none;stroke:#dd8452;stroke-linecap:round;stroke-width:1.5;"/>
   </g>
   <g id="line2d_35">
    <path clip-path="url(#pc866b0fda6)" d="M 533.760003 -1 
L 535.189372 121.504386 
L 536.927401 144.13961 
L 538.66543 153.53258 
L 540.403459 152.319993 
L 542.141488 164.246277 
L 543.879517 171.358442 
L 545.617546 167.981242 
L 547.355575 170.39039 
L 549.093604 169.340792 
L 550.831633 176.042644 
L 552.569662 177.246344 
L 554.307691 177.056532 
L 556.04572 179.042788 
L 557.783749 177.720557 
L 559.521778 183.322045 
L 561.259807 184.378043 
L 562.997836 186.252307 
L 564.735865 176.345837 
L 566.473894 184.819878 
L 568.211923 184.054553 
L 569.949952 183.424664 
L 571.687981 183.592432 
L 573.42601 184.412828 
L 575.164039 182.738548 
L 576.902068 183.800343 
L 578.640097 183.721701 
L 580.378126 187.886062 
L 582.116155 186.197584 
L 583.854184 188.857215 
L 585.592213 187.336875 
L 587.330242 189.527628 
L 589.068271 188.029194 
L 590.8063 185.238928 
L 592.544329 188.95804 
L 594.282358 189.491038 
L 596.020387 187.716986 
L 597.758416 187.922513 
L 599.496445 191.017025 
L 601.234474 192.977117 
L 602.972502 189.487648 
L 604.710531 189.526251 
L 606.44856 187.078152 
L 608.186589 192.761985 
L 609.924618 192.213759 
L 611.662647 192.185697 
L 613.400676 190.74842 
L 615.138705 188.964081 
L 616.876734 192.094211 
L 618.614763 191.248994 
L 620.352792 189.857043 
L 622.090821 191.802694 
L 623.82885 193.513089 
L 625.566879 193.231813 
L 627.304908 191.489063 
L 629.042937 194.565349 
L 630.780966 192.704369 
L 632.518995 188.926495 
L 634.257024 193.08676 
L 635.995053 194.495189 
L 637.733082 191.958624 
L 639.471111 195.335442 
L 642.947169 193.941651 
L 644.685198 192.158735 
L 646.423227 195.104526 
L 648.161256 194.313951 
L 649.899285 190.7454 
L 651.637314 196.331902 
L 653.375343 195.509713 
L 655.113372 192.005027 
L 656.851401 190.515144 
L 658.58943 193.158563 
L 660.327459 196.370483 
L 662.065488 193.956949 
L 663.803517 196.841305 
L 665.541546 195.572965 
L 667.279575 195.858638 
L 669.017604 194.533758 
L 670.755633 194.393889 
L 672.493662 193.524209 
L 674.231691 196.269715 
L 675.96972 195.724347 
L 677.707749 196.826621 
L 679.445778 196.837348 
L 681.183807 193.28664 
L 682.921836 196.69793 
L 684.659865 192.895443 
L 686.397894 197.921002 
L 688.135923 200.46326 
L 689.873952 197.011943 
L 691.611981 194.699964 
L 693.35001 196.733757 
L 695.088039 196.245877 
L 696.826068 196.386892 
L 698.564097 197.447784 
L 700.302126 199.053617 
L 702.040155 196.958215 
L 703.778184 196.919519 
L 705.516213 197.186573 
L 707.254242 193.335716 
L 708.992271 196.227617 
L 710.7303 195.62881 
L 712.468329 199.102357 
L 714.206358 199.792037 
L 715.944387 198.517425 
L 717.682416 196.592928 
L 719.420445 198.552881 
L 722.896503 197.653161 
L 724.634532 199.712643 
L 726.372561 198.438251 
L 728.11059 198.947179 
L 729.848619 197.944585 
L 731.586648 195.952208 
L 733.324677 200.944729 
L 735.062706 197.737033 
L 736.800735 200.071265 
L 738.538764 199.975589 
L 740.276793 194.423594 
L 742.014822 200.995552 
L 743.752851 198.885675 
L 745.49088 200.936374 
L 747.228908 197.819147 
L 748.966937 200.002031 
L 750.704966 200.682928 
L 752.442995 200.937809 
L 754.181024 200.238478 
L 755.919053 197.874796 
L 757.657082 200.363477 
L 759.395111 200.644591 
L 761.13314 196.581437 
L 762.871169 198.663774 
L 764.609198 200.287311 
L 766.347227 197.733758 
L 768.085256 201.659057 
L 769.823285 200.980081 
L 771.561314 201.029215 
L 773.299343 199.487652 
L 775.037372 200.527785 
L 778.51343 199.908751 
L 780.251459 201.398564 
L 781.989488 201.925082 
L 783.727517 201.563775 
L 785.465546 200.656637 
L 787.203575 201.618961 
L 788.941604 201.517152 
L 790.679633 199.054334 
L 792.417662 197.515688 
L 794.155691 201.174858 
L 795.89372 201.905398 
L 797.631749 195.961477 
L 799.369778 201.444504 
L 801.107807 198.85001 
L 802.845836 202.355322 
L 804.583865 202.120842 
L 806.321894 198.783114 
L 808.059923 202.695175 
L 809.797952 201.226792 
L 811.535981 202.199496 
L 813.27401 201.294776 
L 815.012039 203.427254 
L 816.750068 201.453715 
L 818.488097 199.303892 
L 820.226126 201.969911 
L 821.964155 199.871513 
L 823.702184 197.196062 
L 825.440213 201.10545 
L 827.178242 200.88297 
L 828.916271 198.72058 
L 830.6543 202.044271 
L 834.130358 202.69253 
L 835.868387 199.793877 
L 837.606416 201.338969 
L 839.344445 199.164752 
L 841.082474 202.510222 
L 842.820503 200.917558 
L 844.558532 201.488778 
L 846.296561 200.186312 
L 848.03459 201.598907 
L 849.772619 201.034492 
L 851.510648 201.118272 
L 853.248677 199.874591 
L 854.986706 199.78234 
L 856.724735 201.025813 
L 858.462764 200.984825 
L 860.200793 201.44926 
L 861.938822 200.621054 
L 863.676851 200.12659 
L 865.41488 199.966112 
L 867.152909 199.284081 
L 868.890938 202.846667 
L 870.628967 199.243325 
L 872.366996 199.55338 
L 874.105025 201.063491 
L 877.581083 201.520774 
L 879.319112 202.113598 
L 879.319112 202.113598 
" style="fill:none;stroke:#55a868;stroke-linecap:round;stroke-width:1.5;"/>
   </g>
   <g id="patch_9">
    <path d="M 516.157955 299.559375 
L 516.157955 27.759375 
" style="fill:none;stroke:#cccccc;stroke-linecap:square;stroke-linejoin:miter;stroke-width:1.25;"/>
   </g>
   <g id="patch_10">
    <path d="M 896.6125 299.559375 
L 896.6125 27.759375 
" style="fill:none;stroke:#cccccc;stroke-linecap:square;stroke-linejoin:miter;stroke-width:1.25;"/>
   </g>
   <g id="patch_11">
    <path d="M 516.157955 299.559375 
L 896.6125 299.559375 
" style="fill:none;stroke:#cccccc;stroke-linecap:square;stroke-linejoin:miter;stroke-width:1.25;"/>
   </g>
   <g id="patch_12">
    <path d="M 516.157955 27.759375 
L 896.6125 27.759375 
" style="fill:none;stroke:#cccccc;stroke-linecap:square;stroke-linejoin:miter;stroke-width:1.25;"/>
   </g>
   <g id="text_32">
    <!-- Loss for model without ancient samples -->
    <g style="fill:#262626;" transform="translate(531.308665 21.759375)scale(0.2 -0.2)">
     <use xlink:href="#ArialMT-4c"/>
     <use x="55.615234" xlink:href="#ArialMT-6f"/>
     <use x="111.230469" xlink:href="#ArialMT-73"/>
     <use x="161.230469" xlink:href="#ArialMT-73"/>
     <use x="211.230469" xlink:href="#ArialMT-20"/>
     <use x="239.013672" xlink:href="#ArialMT-66"/>
     <use x="266.796875" xlink:href="#ArialMT-6f"/>
     <use x="322.412109" xlink:href="#ArialMT-72"/>
     <use x="355.712891" xlink:href="#ArialMT-20"/>
     <use x="383.496094" xlink:href="#ArialMT-6d"/>
     <use x="466.796875" xlink:href="#ArialMT-6f"/>
     <use x="522.412109" xlink:href="#ArialMT-64"/>
     <use x="578.027344" xlink:href="#ArialMT-65"/>
     <use x="633.642578" xlink:href="#ArialMT-6c"/>
     <use x="655.859375" xlink:href="#ArialMT-20"/>
     <use x="683.642578" xlink:href="#ArialMT-77"/>
     <use x="755.859375" xlink:href="#ArialMT-69"/>
     <use x="778.076172" xlink:href="#ArialMT-74"/>
     <use x="805.859375" xlink:href="#ArialMT-68"/>
     <use x="861.474609" xlink:href="#ArialMT-6f"/>
     <use x="917.089844" xlink:href="#ArialMT-75"/>
     <use x="972.705078" xlink:href="#ArialMT-74"/>
     <use x="1000.488281" xlink:href="#ArialMT-20"/>
     <use x="1028.271484" xlink:href="#ArialMT-61"/>
     <use x="1083.886719" xlink:href="#ArialMT-6e"/>
     <use x="1139.501953" xlink:href="#ArialMT-63"/>
     <use x="1189.501953" xlink:href="#ArialMT-69"/>
     <use x="1211.71875" xlink:href="#ArialMT-65"/>
     <use x="1267.333984" xlink:href="#ArialMT-6e"/>
     <use x="1322.949219" xlink:href="#ArialMT-74"/>
     <use x="1350.732422" xlink:href="#ArialMT-20"/>
     <use x="1378.515625" xlink:href="#ArialMT-73"/>
     <use x="1428.515625" xlink:href="#ArialMT-61"/>
     <use x="1484.130859" xlink:href="#ArialMT-6d"/>
     <use x="1567.431641" xlink:href="#ArialMT-70"/>
     <use x="1623.046875" xlink:href="#ArialMT-6c"/>
     <use x="1645.263672" xlink:href="#ArialMT-65"/>
     <use x="1700.878906" xlink:href="#ArialMT-73"/>
    </g>
   </g>
   <g id="legend_2">
    <g id="patch_13">
     <path d="M 811.524063 83.238906 
L 888.9125 83.238906 
Q 891.1125 83.238906 891.1125 81.038906 
L 891.1125 35.459375 
Q 891.1125 33.259375 888.9125 33.259375 
L 811.524063 33.259375 
Q 809.324062 33.259375 809.324062 35.459375 
L 809.324062 81.038906 
Q 809.324062 83.238906 811.524063 83.238906 
z
" style="fill:#ffffff;opacity:0.8;stroke:#cccccc;stroke-linejoin:miter;"/>
    </g>
    <g id="line2d_36">
     <path d="M 813.724062 41.682969 
L 835.724062 41.682969 
" style="fill:none;stroke:#4c72b0;stroke-linecap:round;stroke-width:1.5;"/>
    </g>
    <g id="line2d_37"/>
    <g id="text_33">
     <!-- 100 PCs -->
     <g style="fill:#262626;" transform="translate(844.524062 45.532969)scale(0.11 -0.11)">
      <use xlink:href="#ArialMT-31"/>
      <use x="55.615234" xlink:href="#ArialMT-30"/>
      <use x="111.230469" xlink:href="#ArialMT-30"/>
      <use x="166.845703" xlink:href="#ArialMT-20"/>
      <use x="194.628906" xlink:href="#ArialMT-50"/>
      <use x="261.328125" xlink:href="#ArialMT-43"/>
      <use x="333.544922" xlink:href="#ArialMT-73"/>
     </g>
    </g>
    <g id="line2d_38">
     <path d="M 813.724062 57.242812 
L 835.724062 57.242812 
" style="fill:none;stroke:#dd8452;stroke-linecap:round;stroke-width:1.5;"/>
    </g>
    <g id="line2d_39"/>
    <g id="text_34">
     <!-- 20 PCs -->
     <g style="fill:#262626;" transform="translate(844.524062 61.092812)scale(0.11 -0.11)">
      <use xlink:href="#ArialMT-32"/>
      <use x="55.615234" xlink:href="#ArialMT-30"/>
      <use x="111.230469" xlink:href="#ArialMT-20"/>
      <use x="139.013672" xlink:href="#ArialMT-50"/>
      <use x="205.712891" xlink:href="#ArialMT-43"/>
      <use x="277.929688" xlink:href="#ArialMT-73"/>
     </g>
    </g>
    <g id="line2d_40">
     <path d="M 813.724062 72.802656 
L 835.724062 72.802656 
" style="fill:none;stroke:#55a868;stroke-linecap:round;stroke-width:1.5;"/>
    </g>
    <g id="line2d_41"/>
    <g id="text_35">
     <!-- 2 PCs -->
     <g style="fill:#262626;" transform="translate(844.524062 76.652656)scale(0.11 -0.11)">
      <use xlink:href="#ArialMT-32"/>
      <use x="55.615234" xlink:href="#ArialMT-20"/>
      <use x="83.398438" xlink:href="#ArialMT-50"/>
      <use x="150.097656" xlink:href="#ArialMT-43"/>
      <use x="222.314453" xlink:href="#ArialMT-73"/>
     </g>
    </g>
   </g>
  </g>
 </g>
 <defs>
  <clipPath id="p3a119ad9f6">
   <rect height="271.8" width="380.454545" x="59.6125" y="27.759375"/>
  </clipPath>
  <clipPath id="pc866b0fda6">
   <rect height="271.8" width="380.454545" x="516.157955" y="27.759375"/>
  </clipPath>
 </defs>
</svg>
