<?xml version="1.0" encoding="utf-8" standalone="no"?>
<!DOCTYPE svg PUBLIC "-//W3C//DTD SVG 1.1//EN"
  "http://www.w3.org/Graphics/SVG/1.1/DTD/svg11.dtd">
<svg height="351.353437pt" version="1.1" viewBox="0 0 912.71 351.353437" width="912.71pt" xmlns="http://www.w3.org/2000/svg" xmlns:xlink="http://www.w3.org/1999/xlink">
 <metadata>
  <rdf:RDF xmlns:cc="http://creativecommons.org/ns#" xmlns:dc="http://purl.org/dc/elements/1.1/" xmlns:rdf="http://www.w3.org/1999/02/22-rdf-syntax-ns#">
   <cc:Work>
    <dc:type rdf:resource="http://purl.org/dc/dcmitype/StillImage"/>
    <dc:date>2021-12-02T21:12:16.361380</dc:date>
    <dc:format>image/svg+xml</dc:format>
    <dc:creator>
     <cc:Agent>
      <dc:title>Matplotlib v3.4.3, https://matplotlib.org/</dc:title>
     </cc:Agent>
    </dc:creator>
   </cc:Work>
  </rdf:RDF>
 </metadata>
 <defs>
  <style type="text/css">*{stroke-linecap:butt;stroke-linejoin:round;}</style>
 </defs>
 <g id="figure_1">
  <g id="patch_1">
   <path d="M 0 351.353437 
L 912.71 351.353437 
L 912.71 0 
L 0 0 
z
" style="fill:#ffffff;"/>
  </g>
  <g id="axes_1">
   <g id="patch_2">
    <path d="M 68.51 299.559375 
L 448.964545 299.559375 
L 448.964545 27.759375 
L 68.51 27.759375 
z
" style="fill:#ffffff;"/>
   </g>
   <g id="matplotlib.axis_1">
    <g id="xtick_1">
     <g id="line2d_1">
      <path clip-path="url(#pefa0287975)" d="M 85.803388 299.559375 
L 85.803388 27.759375 
" style="fill:none;stroke:#cccccc;stroke-linecap:round;"/>
     </g>
     <g id="text_1">
      <!-- 0 -->
      <g style="fill:#262626;" transform="translate(81.354638 320.511875)scale(0.16 -0.16)">
       <defs>
        <path d="M 266 2259 
Q 266 3072 433 3567 
Q 600 4063 929 4331 
Q 1259 4600 1759 4600 
Q 2128 4600 2406 4451 
Q 2684 4303 2865 4023 
Q 3047 3744 3150 3342 
Q 3253 2941 3253 2259 
Q 3253 1453 3087 958 
Q 2922 463 2592 192 
Q 2263 -78 1759 -78 
Q 1097 -78 719 397 
Q 266 969 266 2259 
z
M 844 2259 
Q 844 1131 1108 757 
Q 1372 384 1759 384 
Q 2147 384 2411 759 
Q 2675 1134 2675 2259 
Q 2675 3391 2411 3762 
Q 2147 4134 1753 4134 
Q 1366 4134 1134 3806 
Q 844 3388 844 2259 
z
" id="ArialMT-30" transform="scale(0.015625)"/>
       </defs>
       <use xlink:href="#ArialMT-30"/>
      </g>
     </g>
    </g>
    <g id="xtick_2">
     <g id="line2d_2">
      <path clip-path="url(#pefa0287975)" d="M 172.704838 299.559375 
L 172.704838 27.759375 
" style="fill:none;stroke:#cccccc;stroke-linecap:round;"/>
     </g>
     <g id="text_2">
      <!-- 50 -->
      <g style="fill:#262626;" transform="translate(163.807338 320.511875)scale(0.16 -0.16)">
       <defs>
        <path d="M 266 1200 
L 856 1250 
Q 922 819 1161 601 
Q 1400 384 1738 384 
Q 2144 384 2425 690 
Q 2706 997 2706 1503 
Q 2706 1984 2436 2262 
Q 2166 2541 1728 2541 
Q 1456 2541 1237 2417 
Q 1019 2294 894 2097 
L 366 2166 
L 809 4519 
L 3088 4519 
L 3088 3981 
L 1259 3981 
L 1013 2750 
Q 1425 3038 1878 3038 
Q 2478 3038 2890 2622 
Q 3303 2206 3303 1553 
Q 3303 931 2941 478 
Q 2500 -78 1738 -78 
Q 1113 -78 717 272 
Q 322 622 266 1200 
z
" id="ArialMT-35" transform="scale(0.015625)"/>
       </defs>
       <use xlink:href="#ArialMT-35"/>
       <use x="55.615234" xlink:href="#ArialMT-30"/>
      </g>
     </g>
    </g>
    <g id="xtick_3">
     <g id="line2d_3">
      <path clip-path="url(#pefa0287975)" d="M 259.606287 299.559375 
L 259.606287 27.759375 
" style="fill:none;stroke:#cccccc;stroke-linecap:round;"/>
     </g>
     <g id="text_3">
      <!-- 100 -->
      <g style="fill:#262626;" transform="translate(246.260037 320.511875)scale(0.16 -0.16)">
       <defs>
        <path d="M 2384 0 
L 1822 0 
L 1822 3584 
Q 1619 3391 1289 3197 
Q 959 3003 697 2906 
L 697 3450 
Q 1169 3672 1522 3987 
Q 1875 4303 2022 4600 
L 2384 4600 
L 2384 0 
z
" id="ArialMT-31" transform="scale(0.015625)"/>
       </defs>
       <use xlink:href="#ArialMT-31"/>
       <use x="55.615234" xlink:href="#ArialMT-30"/>
       <use x="111.230469" xlink:href="#ArialMT-30"/>
      </g>
     </g>
    </g>
    <g id="xtick_4">
     <g id="line2d_4">
      <path clip-path="url(#pefa0287975)" d="M 346.507737 299.559375 
L 346.507737 27.759375 
" style="fill:none;stroke:#cccccc;stroke-linecap:round;"/>
     </g>
     <g id="text_4">
      <!-- 150 -->
      <g style="fill:#262626;" transform="translate(333.161487 320.511875)scale(0.16 -0.16)">
       <use xlink:href="#ArialMT-31"/>
       <use x="55.615234" xlink:href="#ArialMT-35"/>
       <use x="111.230469" xlink:href="#ArialMT-30"/>
      </g>
     </g>
    </g>
    <g id="xtick_5">
     <g id="line2d_5">
      <path clip-path="url(#pefa0287975)" d="M 433.409186 299.559375 
L 433.409186 27.759375 
" style="fill:none;stroke:#cccccc;stroke-linecap:round;"/>
     </g>
     <g id="text_5">
      <!-- 200 -->
      <g style="fill:#262626;" transform="translate(420.062936 320.511875)scale(0.16 -0.16)">
       <defs>
        <path d="M 3222 541 
L 3222 0 
L 194 0 
Q 188 203 259 391 
Q 375 700 629 1000 
Q 884 1300 1366 1694 
Q 2113 2306 2375 2664 
Q 2638 3022 2638 3341 
Q 2638 3675 2398 3904 
Q 2159 4134 1775 4134 
Q 1369 4134 1125 3890 
Q 881 3647 878 3216 
L 300 3275 
Q 359 3922 746 4261 
Q 1134 4600 1788 4600 
Q 2447 4600 2831 4234 
Q 3216 3869 3216 3328 
Q 3216 3053 3103 2787 
Q 2991 2522 2730 2228 
Q 2469 1934 1863 1422 
Q 1356 997 1212 845 
Q 1069 694 975 541 
L 3222 541 
z
" id="ArialMT-32" transform="scale(0.015625)"/>
       </defs>
       <use xlink:href="#ArialMT-32"/>
       <use x="55.615234" xlink:href="#ArialMT-30"/>
       <use x="111.230469" xlink:href="#ArialMT-30"/>
      </g>
     </g>
    </g>
    <g id="text_6">
     <!-- Epochs -->
     <g style="fill:#262626;" transform="translate(228.71946 340.575938)scale(0.18 -0.18)">
      <defs>
       <path d="M 506 0 
L 506 4581 
L 3819 4581 
L 3819 4041 
L 1113 4041 
L 1113 2638 
L 3647 2638 
L 3647 2100 
L 1113 2100 
L 1113 541 
L 3925 541 
L 3925 0 
L 506 0 
z
" id="ArialMT-45" transform="scale(0.015625)"/>
       <path d="M 422 -1272 
L 422 3319 
L 934 3319 
L 934 2888 
Q 1116 3141 1344 3267 
Q 1572 3394 1897 3394 
Q 2322 3394 2647 3175 
Q 2972 2956 3137 2557 
Q 3303 2159 3303 1684 
Q 3303 1175 3120 767 
Q 2938 359 2589 142 
Q 2241 -75 1856 -75 
Q 1575 -75 1351 44 
Q 1128 163 984 344 
L 984 -1272 
L 422 -1272 
z
M 931 1641 
Q 931 1000 1190 694 
Q 1450 388 1819 388 
Q 2194 388 2461 705 
Q 2728 1022 2728 1688 
Q 2728 2322 2467 2637 
Q 2206 2953 1844 2953 
Q 1484 2953 1207 2617 
Q 931 2281 931 1641 
z
" id="ArialMT-70" transform="scale(0.015625)"/>
       <path d="M 213 1659 
Q 213 2581 725 3025 
Q 1153 3394 1769 3394 
Q 2453 3394 2887 2945 
Q 3322 2497 3322 1706 
Q 3322 1066 3130 698 
Q 2938 331 2570 128 
Q 2203 -75 1769 -75 
Q 1072 -75 642 372 
Q 213 819 213 1659 
z
M 791 1659 
Q 791 1022 1069 705 
Q 1347 388 1769 388 
Q 2188 388 2466 706 
Q 2744 1025 2744 1678 
Q 2744 2294 2464 2611 
Q 2184 2928 1769 2928 
Q 1347 2928 1069 2612 
Q 791 2297 791 1659 
z
" id="ArialMT-6f" transform="scale(0.015625)"/>
       <path d="M 2588 1216 
L 3141 1144 
Q 3050 572 2676 248 
Q 2303 -75 1759 -75 
Q 1078 -75 664 370 
Q 250 816 250 1647 
Q 250 2184 428 2587 
Q 606 2991 970 3192 
Q 1334 3394 1763 3394 
Q 2303 3394 2647 3120 
Q 2991 2847 3088 2344 
L 2541 2259 
Q 2463 2594 2264 2762 
Q 2066 2931 1784 2931 
Q 1359 2931 1093 2626 
Q 828 2322 828 1663 
Q 828 994 1084 691 
Q 1341 388 1753 388 
Q 2084 388 2306 591 
Q 2528 794 2588 1216 
z
" id="ArialMT-63" transform="scale(0.015625)"/>
       <path d="M 422 0 
L 422 4581 
L 984 4581 
L 984 2938 
Q 1378 3394 1978 3394 
Q 2347 3394 2619 3248 
Q 2891 3103 3008 2847 
Q 3125 2591 3125 2103 
L 3125 0 
L 2563 0 
L 2563 2103 
Q 2563 2525 2380 2717 
Q 2197 2909 1863 2909 
Q 1613 2909 1392 2779 
Q 1172 2650 1078 2428 
Q 984 2206 984 1816 
L 984 0 
L 422 0 
z
" id="ArialMT-68" transform="scale(0.015625)"/>
       <path d="M 197 991 
L 753 1078 
Q 800 744 1014 566 
Q 1228 388 1613 388 
Q 2000 388 2187 545 
Q 2375 703 2375 916 
Q 2375 1106 2209 1216 
Q 2094 1291 1634 1406 
Q 1016 1563 777 1677 
Q 538 1791 414 1992 
Q 291 2194 291 2438 
Q 291 2659 392 2848 
Q 494 3038 669 3163 
Q 800 3259 1026 3326 
Q 1253 3394 1513 3394 
Q 1903 3394 2198 3281 
Q 2494 3169 2634 2976 
Q 2775 2784 2828 2463 
L 2278 2388 
Q 2241 2644 2061 2787 
Q 1881 2931 1553 2931 
Q 1166 2931 1000 2803 
Q 834 2675 834 2503 
Q 834 2394 903 2306 
Q 972 2216 1119 2156 
Q 1203 2125 1616 2013 
Q 2213 1853 2448 1751 
Q 2684 1650 2818 1456 
Q 2953 1263 2953 975 
Q 2953 694 2789 445 
Q 2625 197 2315 61 
Q 2006 -75 1616 -75 
Q 969 -75 630 194 
Q 291 463 197 991 
z
" id="ArialMT-73" transform="scale(0.015625)"/>
      </defs>
      <use xlink:href="#ArialMT-45"/>
      <use x="66.699219" xlink:href="#ArialMT-70"/>
      <use x="122.314453" xlink:href="#ArialMT-6f"/>
      <use x="177.929688" xlink:href="#ArialMT-63"/>
      <use x="227.929688" xlink:href="#ArialMT-68"/>
      <use x="283.544922" xlink:href="#ArialMT-73"/>
     </g>
    </g>
   </g>
   <g id="matplotlib.axis_2">
    <g id="ytick_1">
     <g id="line2d_6">
      <path clip-path="url(#pefa0287975)" d="M 68.51 278.10148 
L 448.964545 278.10148 
" style="fill:none;stroke:#cccccc;stroke-linecap:round;"/>
     </g>
     <g id="text_7">
      <!-- 0.55 -->
      <g style="fill:#262626;" transform="translate(27.8725 283.82773)scale(0.16 -0.16)">
       <defs>
        <path d="M 581 0 
L 581 641 
L 1222 641 
L 1222 0 
L 581 0 
z
" id="ArialMT-2e" transform="scale(0.015625)"/>
       </defs>
       <use xlink:href="#ArialMT-30"/>
       <use x="55.615234" xlink:href="#ArialMT-2e"/>
       <use x="83.398438" xlink:href="#ArialMT-35"/>
       <use x="139.013672" xlink:href="#ArialMT-35"/>
      </g>
     </g>
    </g>
    <g id="ytick_2">
     <g id="line2d_7">
      <path clip-path="url(#pefa0287975)" d="M 68.51 242.338322 
L 448.964545 242.338322 
" style="fill:none;stroke:#cccccc;stroke-linecap:round;"/>
     </g>
     <g id="text_8">
      <!-- 0.60 -->
      <g style="fill:#262626;" transform="translate(27.8725 248.064572)scale(0.16 -0.16)">
       <defs>
        <path d="M 3184 3459 
L 2625 3416 
Q 2550 3747 2413 3897 
Q 2184 4138 1850 4138 
Q 1581 4138 1378 3988 
Q 1113 3794 959 3422 
Q 806 3050 800 2363 
Q 1003 2672 1297 2822 
Q 1591 2972 1913 2972 
Q 2475 2972 2870 2558 
Q 3266 2144 3266 1488 
Q 3266 1056 3080 686 
Q 2894 316 2569 119 
Q 2244 -78 1831 -78 
Q 1128 -78 684 439 
Q 241 956 241 2144 
Q 241 3472 731 4075 
Q 1159 4600 1884 4600 
Q 2425 4600 2770 4297 
Q 3116 3994 3184 3459 
z
M 888 1484 
Q 888 1194 1011 928 
Q 1134 663 1356 523 
Q 1578 384 1822 384 
Q 2178 384 2434 671 
Q 2691 959 2691 1453 
Q 2691 1928 2437 2201 
Q 2184 2475 1800 2475 
Q 1419 2475 1153 2201 
Q 888 1928 888 1484 
z
" id="ArialMT-36" transform="scale(0.015625)"/>
       </defs>
       <use xlink:href="#ArialMT-30"/>
       <use x="55.615234" xlink:href="#ArialMT-2e"/>
       <use x="83.398438" xlink:href="#ArialMT-36"/>
       <use x="139.013672" xlink:href="#ArialMT-30"/>
      </g>
     </g>
    </g>
    <g id="ytick_3">
     <g id="line2d_8">
      <path clip-path="url(#pefa0287975)" d="M 68.51 206.575164 
L 448.964545 206.575164 
" style="fill:none;stroke:#cccccc;stroke-linecap:round;"/>
     </g>
     <g id="text_9">
      <!-- 0.65 -->
      <g style="fill:#262626;" transform="translate(27.8725 212.301414)scale(0.16 -0.16)">
       <use xlink:href="#ArialMT-30"/>
       <use x="55.615234" xlink:href="#ArialMT-2e"/>
       <use x="83.398438" xlink:href="#ArialMT-36"/>
       <use x="139.013672" xlink:href="#ArialMT-35"/>
      </g>
     </g>
    </g>
    <g id="ytick_4">
     <g id="line2d_9">
      <path clip-path="url(#pefa0287975)" d="M 68.51 170.812007 
L 448.964545 170.812007 
" style="fill:none;stroke:#cccccc;stroke-linecap:round;"/>
     </g>
     <g id="text_10">
      <!-- 0.70 -->
      <g style="fill:#262626;" transform="translate(27.8725 176.538257)scale(0.16 -0.16)">
       <defs>
        <path d="M 303 3981 
L 303 4522 
L 3269 4522 
L 3269 4084 
Q 2831 3619 2401 2847 
Q 1972 2075 1738 1259 
Q 1569 684 1522 0 
L 944 0 
Q 953 541 1156 1306 
Q 1359 2072 1739 2783 
Q 2119 3494 2547 3981 
L 303 3981 
z
" id="ArialMT-37" transform="scale(0.015625)"/>
       </defs>
       <use xlink:href="#ArialMT-30"/>
       <use x="55.615234" xlink:href="#ArialMT-2e"/>
       <use x="83.398438" xlink:href="#ArialMT-37"/>
       <use x="139.013672" xlink:href="#ArialMT-30"/>
      </g>
     </g>
    </g>
    <g id="ytick_5">
     <g id="line2d_10">
      <path clip-path="url(#pefa0287975)" d="M 68.51 135.048849 
L 448.964545 135.048849 
" style="fill:none;stroke:#cccccc;stroke-linecap:round;"/>
     </g>
     <g id="text_11">
      <!-- 0.75 -->
      <g style="fill:#262626;" transform="translate(27.8725 140.775099)scale(0.16 -0.16)">
       <use xlink:href="#ArialMT-30"/>
       <use x="55.615234" xlink:href="#ArialMT-2e"/>
       <use x="83.398438" xlink:href="#ArialMT-37"/>
       <use x="139.013672" xlink:href="#ArialMT-35"/>
      </g>
     </g>
    </g>
    <g id="ytick_6">
     <g id="line2d_11">
      <path clip-path="url(#pefa0287975)" d="M 68.51 99.285691 
L 448.964545 99.285691 
" style="fill:none;stroke:#cccccc;stroke-linecap:round;"/>
     </g>
     <g id="text_12">
      <!-- 0.80 -->
      <g style="fill:#262626;" transform="translate(27.8725 105.011941)scale(0.16 -0.16)">
       <defs>
        <path d="M 1131 2484 
Q 781 2613 612 2850 
Q 444 3088 444 3419 
Q 444 3919 803 4259 
Q 1163 4600 1759 4600 
Q 2359 4600 2725 4251 
Q 3091 3903 3091 3403 
Q 3091 3084 2923 2848 
Q 2756 2613 2416 2484 
Q 2838 2347 3058 2040 
Q 3278 1734 3278 1309 
Q 3278 722 2862 322 
Q 2447 -78 1769 -78 
Q 1091 -78 675 323 
Q 259 725 259 1325 
Q 259 1772 486 2073 
Q 713 2375 1131 2484 
z
M 1019 3438 
Q 1019 3113 1228 2906 
Q 1438 2700 1772 2700 
Q 2097 2700 2305 2904 
Q 2513 3109 2513 3406 
Q 2513 3716 2298 3927 
Q 2084 4138 1766 4138 
Q 1444 4138 1231 3931 
Q 1019 3725 1019 3438 
z
M 838 1322 
Q 838 1081 952 856 
Q 1066 631 1291 507 
Q 1516 384 1775 384 
Q 2178 384 2440 643 
Q 2703 903 2703 1303 
Q 2703 1709 2433 1975 
Q 2163 2241 1756 2241 
Q 1359 2241 1098 1978 
Q 838 1716 838 1322 
z
" id="ArialMT-38" transform="scale(0.015625)"/>
       </defs>
       <use xlink:href="#ArialMT-30"/>
       <use x="55.615234" xlink:href="#ArialMT-2e"/>
       <use x="83.398438" xlink:href="#ArialMT-38"/>
       <use x="139.013672" xlink:href="#ArialMT-30"/>
      </g>
     </g>
    </g>
    <g id="ytick_7">
     <g id="line2d_12">
      <path clip-path="url(#pefa0287975)" d="M 68.51 63.522533 
L 448.964545 63.522533 
" style="fill:none;stroke:#cccccc;stroke-linecap:round;"/>
     </g>
     <g id="text_13">
      <!-- 0.85 -->
      <g style="fill:#262626;" transform="translate(27.8725 69.248783)scale(0.16 -0.16)">
       <use xlink:href="#ArialMT-30"/>
       <use x="55.615234" xlink:href="#ArialMT-2e"/>
       <use x="83.398438" xlink:href="#ArialMT-38"/>
       <use x="139.013672" xlink:href="#ArialMT-35"/>
      </g>
     </g>
    </g>
    <g id="ytick_8">
     <g id="line2d_13">
      <path clip-path="url(#pefa0287975)" d="M 68.51 27.759375 
L 448.964545 27.759375 
" style="fill:none;stroke:#cccccc;stroke-linecap:round;"/>
     </g>
     <g id="text_14">
      <!-- 0.90 -->
      <g style="fill:#262626;" transform="translate(27.8725 33.485625)scale(0.16 -0.16)">
       <defs>
        <path d="M 350 1059 
L 891 1109 
Q 959 728 1153 556 
Q 1347 384 1650 384 
Q 1909 384 2104 503 
Q 2300 622 2425 820 
Q 2550 1019 2634 1356 
Q 2719 1694 2719 2044 
Q 2719 2081 2716 2156 
Q 2547 1888 2255 1720 
Q 1963 1553 1622 1553 
Q 1053 1553 659 1965 
Q 266 2378 266 3053 
Q 266 3750 677 4175 
Q 1088 4600 1706 4600 
Q 2153 4600 2523 4359 
Q 2894 4119 3086 3673 
Q 3278 3228 3278 2384 
Q 3278 1506 3087 986 
Q 2897 466 2520 194 
Q 2144 -78 1638 -78 
Q 1100 -78 759 220 
Q 419 519 350 1059 
z
M 2653 3081 
Q 2653 3566 2395 3850 
Q 2138 4134 1775 4134 
Q 1400 4134 1122 3828 
Q 844 3522 844 3034 
Q 844 2597 1108 2323 
Q 1372 2050 1759 2050 
Q 2150 2050 2401 2323 
Q 2653 2597 2653 3081 
z
" id="ArialMT-39" transform="scale(0.015625)"/>
       </defs>
       <use xlink:href="#ArialMT-30"/>
       <use x="55.615234" xlink:href="#ArialMT-2e"/>
       <use x="83.398438" xlink:href="#ArialMT-39"/>
       <use x="139.013672" xlink:href="#ArialMT-30"/>
      </g>
     </g>
    </g>
    <g id="text_15">
     <!-- Accuracy -->
     <g style="fill:#262626;" transform="translate(20.084063 200.669062)rotate(-90)scale(0.18 -0.18)">
      <defs>
       <path d="M -9 0 
L 1750 4581 
L 2403 4581 
L 4278 0 
L 3588 0 
L 3053 1388 
L 1138 1388 
L 634 0 
L -9 0 
z
M 1313 1881 
L 2866 1881 
L 2388 3150 
Q 2169 3728 2063 4100 
Q 1975 3659 1816 3225 
L 1313 1881 
z
" id="ArialMT-41" transform="scale(0.015625)"/>
       <path d="M 2597 0 
L 2597 488 
Q 2209 -75 1544 -75 
Q 1250 -75 995 37 
Q 741 150 617 320 
Q 494 491 444 738 
Q 409 903 409 1263 
L 409 3319 
L 972 3319 
L 972 1478 
Q 972 1038 1006 884 
Q 1059 663 1231 536 
Q 1403 409 1656 409 
Q 1909 409 2131 539 
Q 2353 669 2445 892 
Q 2538 1116 2538 1541 
L 2538 3319 
L 3100 3319 
L 3100 0 
L 2597 0 
z
" id="ArialMT-75" transform="scale(0.015625)"/>
       <path d="M 416 0 
L 416 3319 
L 922 3319 
L 922 2816 
Q 1116 3169 1280 3281 
Q 1444 3394 1641 3394 
Q 1925 3394 2219 3213 
L 2025 2691 
Q 1819 2813 1613 2813 
Q 1428 2813 1281 2702 
Q 1134 2591 1072 2394 
Q 978 2094 978 1738 
L 978 0 
L 416 0 
z
" id="ArialMT-72" transform="scale(0.015625)"/>
       <path d="M 2588 409 
Q 2275 144 1986 34 
Q 1697 -75 1366 -75 
Q 819 -75 525 192 
Q 231 459 231 875 
Q 231 1119 342 1320 
Q 453 1522 633 1644 
Q 813 1766 1038 1828 
Q 1203 1872 1538 1913 
Q 2219 1994 2541 2106 
Q 2544 2222 2544 2253 
Q 2544 2597 2384 2738 
Q 2169 2928 1744 2928 
Q 1347 2928 1158 2789 
Q 969 2650 878 2297 
L 328 2372 
Q 403 2725 575 2942 
Q 747 3159 1072 3276 
Q 1397 3394 1825 3394 
Q 2250 3394 2515 3294 
Q 2781 3194 2906 3042 
Q 3031 2891 3081 2659 
Q 3109 2516 3109 2141 
L 3109 1391 
Q 3109 606 3145 398 
Q 3181 191 3288 0 
L 2700 0 
Q 2613 175 2588 409 
z
M 2541 1666 
Q 2234 1541 1622 1453 
Q 1275 1403 1131 1340 
Q 988 1278 909 1158 
Q 831 1038 831 891 
Q 831 666 1001 516 
Q 1172 366 1500 366 
Q 1825 366 2078 508 
Q 2331 650 2450 897 
Q 2541 1088 2541 1459 
L 2541 1666 
z
" id="ArialMT-61" transform="scale(0.015625)"/>
       <path d="M 397 -1278 
L 334 -750 
Q 519 -800 656 -800 
Q 844 -800 956 -737 
Q 1069 -675 1141 -563 
Q 1194 -478 1313 -144 
Q 1328 -97 1363 -6 
L 103 3319 
L 709 3319 
L 1400 1397 
Q 1534 1031 1641 628 
Q 1738 1016 1872 1384 
L 2581 3319 
L 3144 3319 
L 1881 -56 
Q 1678 -603 1566 -809 
Q 1416 -1088 1222 -1217 
Q 1028 -1347 759 -1347 
Q 597 -1347 397 -1278 
z
" id="ArialMT-79" transform="scale(0.015625)"/>
      </defs>
      <use xlink:href="#ArialMT-41"/>
      <use x="66.699219" xlink:href="#ArialMT-63"/>
      <use x="116.699219" xlink:href="#ArialMT-63"/>
      <use x="166.699219" xlink:href="#ArialMT-75"/>
      <use x="222.314453" xlink:href="#ArialMT-72"/>
      <use x="255.615234" xlink:href="#ArialMT-61"/>
      <use x="311.230469" xlink:href="#ArialMT-63"/>
      <use x="361.230469" xlink:href="#ArialMT-79"/>
     </g>
    </g>
   </g>
   <g id="line2d_14">
    <path clip-path="url(#pefa0287975)" d="M 85.803388 148.857296 
L 87.541417 116.105597 
L 89.279446 119.991425 
L 91.017475 96.954211 
L 92.755504 100.007331 
L 94.493533 85.851937 
L 96.231562 95.288881 
L 97.969591 77.525242 
L 99.70762 86.407061 
L 101.445649 86.12952 
L 103.183678 73.639456 
L 104.921707 73.361915 
L 106.659736 80.855945 
L 108.397765 71.14146 
L 110.135794 65.867885 
L 111.873823 71.974126 
L 113.611852 70.031254 
L 115.349881 63.36989 
L 117.08791 60.871851 
L 118.825939 59.761645 
L 120.563968 71.419001 
L 122.301997 60.871851 
L 124.040026 64.480096 
L 125.778055 59.206521 
L 127.516084 65.03522 
L 129.254113 72.806791 
L 130.992142 56.430984 
L 132.730171 74.749705 
L 134.4682 67.255675 
L 136.206229 56.153401 
L 137.944258 54.210529 
L 139.682287 61.426976 
L 141.420316 67.810799 
L 143.158345 55.320735 
L 144.896374 55.043195 
L 146.634403 59.484104 
L 148.372432 59.761645 
L 150.110461 58.651396 
L 151.84849 51.43495 
L 153.586519 47.549165 
L 155.324548 59.761645 
L 157.062577 46.716499 
L 158.800606 51.157409 
L 160.538635 53.655405 
L 162.276664 55.87586 
L 164.014693 51.712491 
L 165.752722 62.814765 
L 167.490751 60.039186 
L 169.22878 49.76962 
L 170.966809 52.267615 
L 172.704838 50.879826 
L 174.442867 55.598276 
L 176.180896 62.259641 
L 177.918925 54.765611 
L 179.656954 52.82274 
L 181.394983 48.38183 
L 183.133012 57.54119 
L 184.871041 50.324701 
L 186.60907 55.598276 
L 188.347099 51.712491 
L 190.085128 46.716499 
L 191.823157 51.712491 
L 193.561186 56.153401 
L 195.299215 60.039186 
L 197.037244 50.879826 
L 198.775273 45.883834 
L 200.513302 48.104289 
L 202.251331 52.82274 
L 203.98936 51.990074 
L 205.727389 43.108255 
L 207.465418 56.986066 
L 209.203447 48.104289 
L 210.941476 51.990074 
L 212.679505 57.263649 
L 214.417534 57.818731 
L 216.155563 52.82274 
L 217.893592 62.814765 
L 219.63162 55.043195 
L 221.369649 55.87586 
L 223.107678 50.602285 
L 224.845707 52.545156 
L 226.583736 49.76962 
L 228.321765 47.549165 
L 230.059794 46.99404 
L 231.797823 48.936954 
L 233.535852 52.82274 
L 235.273881 57.263649 
L 237.01191 48.659371 
L 238.749939 47.826706 
L 240.487968 49.214495 
L 242.225997 53.655405 
L 243.964026 50.324701 
L 245.702055 53.100281 
L 247.440084 53.932946 
L 249.178113 53.100281 
L 250.916142 59.484104 
L 252.654171 52.545156 
L 254.3922 50.602285 
L 256.130229 52.545156 
L 257.868258 57.54119 
L 259.606287 51.157409 
L 261.344316 48.936954 
L 263.082345 47.549165 
L 264.820374 48.659371 
L 266.558403 47.549165 
L 268.296432 55.320735 
L 270.034461 57.263649 
L 271.77249 53.655405 
L 273.510519 48.38183 
L 276.986577 44.496045 
L 278.724606 45.883834 
L 280.462635 57.263649 
L 282.200664 49.76962 
L 283.938693 47.271581 
L 285.676722 51.712491 
L 287.414751 46.99404 
L 289.15278 51.43495 
L 290.890809 48.104289 
L 292.628838 54.48807 
L 294.366867 52.545156 
L 296.104896 53.100281 
L 297.842925 54.765611 
L 299.580954 47.549165 
L 301.318983 46.99404 
L 303.057012 48.104289 
L 304.795041 50.879826 
L 306.53307 47.271581 
L 308.271099 48.38183 
L 310.009128 58.096315 
L 311.747157 47.549165 
L 313.485186 43.94092 
L 315.223215 52.82274 
L 316.961244 47.826706 
L 318.699273 50.324701 
L 322.175331 49.76962 
L 323.91336 49.214495 
L 325.651389 46.161375 
L 327.389418 53.377821 
L 329.127447 47.271581 
L 330.865476 51.990074 
L 332.603505 47.826706 
L 334.341534 36.724431 
L 336.079563 42.553131 
L 337.817592 44.773585 
L 339.555621 50.602285 
L 341.29365 45.051126 
L 343.031679 49.492036 
L 344.769708 46.99404 
L 346.507737 47.271581 
L 348.245766 49.492036 
L 349.983795 48.936954 
L 351.721824 53.377821 
L 353.459853 48.104289 
L 355.197882 46.438916 
L 356.935911 51.43495 
L 358.67394 44.218461 
L 360.411969 45.32871 
L 362.149998 47.826706 
L 365.626055 47.826706 
L 367.364084 51.43495 
L 369.102113 52.267615 
L 370.840142 46.99404 
L 372.578171 51.712491 
L 374.3162 51.43495 
L 376.054229 46.161375 
L 377.792258 50.324701 
L 379.530287 47.826706 
L 381.268316 46.716499 
L 383.006345 48.659371 
L 384.744374 51.157409 
L 386.482403 49.214495 
L 388.220432 48.38183 
L 389.958461 43.385796 
L 391.69649 49.492036 
L 393.434519 42.27559 
L 395.172548 50.04716 
L 396.910577 49.492036 
L 398.648606 40.332676 
L 400.386635 45.32871 
L 402.124664 44.773585 
L 403.862693 42.830714 
L 405.600722 44.773585 
L 407.338751 41.720465 
L 409.07678 43.385796 
L 410.814809 49.492036 
L 412.552838 45.883834 
L 414.290867 49.492036 
L 416.028896 44.496045 
L 417.766925 47.826706 
L 419.504954 47.549165 
L 421.242983 50.602285 
L 422.981012 38.389804 
L 424.719041 45.606251 
L 426.45707 40.610259 
L 428.195099 45.32871 
L 429.933128 43.385796 
L 431.671157 49.214495 
L 431.671157 49.214495 
" style="fill:none;stroke:#4c72b0;stroke-linecap:round;stroke-width:1.5;"/>
   </g>
   <g id="line2d_15">
    <path clip-path="url(#pefa0287975)" d="M 85.803388 143.028596 
L 87.541417 119.991425 
L 89.279446 126.652747 
L 91.017475 122.21188 
L 92.755504 120.82409 
L 94.493533 105.280906 
L 96.231562 106.391155 
L 97.969591 103.893117 
L 99.70762 103.615576 
L 101.445649 99.174666 
L 103.183678 98.897125 
L 104.921707 103.893117 
L 106.659736 96.121546 
L 108.397765 98.619542 
L 110.135794 104.725782 
L 111.873823 97.786876 
L 113.611852 92.513301 
L 115.349881 90.847971 
L 117.08791 85.019271 
L 118.825939 88.349975 
L 120.563968 80.02328 
L 122.301997 84.741731 
L 124.040026 91.125512 
L 125.778055 83.909065 
L 127.516084 86.407061 
L 129.254113 79.468156 
L 130.992142 78.63549 
L 132.730171 86.12952 
L 134.4682 76.97016 
L 136.206229 78.357949 
L 137.944258 79.468156 
L 139.682287 75.58237 
L 141.420316 75.859911 
L 143.158345 75.58237 
L 144.896374 78.357949 
L 146.634403 69.198546 
L 148.372432 80.02328 
L 150.110461 80.855945 
L 151.84849 78.080366 
L 153.586519 80.578362 
L 155.324548 81.41107 
L 157.062577 74.749705 
L 158.800606 76.692576 
L 160.538635 73.084374 
L 162.276664 73.91704 
L 164.014693 75.859911 
L 165.752722 72.806791 
L 167.490751 71.419001 
L 170.966809 73.084374 
L 172.704838 69.47613 
L 174.442867 74.472121 
L 176.180896 69.47613 
L 177.918925 70.86392 
L 179.656954 64.757679 
L 181.394983 63.924971 
L 183.133012 71.696585 
L 184.871041 75.027246 
L 186.60907 64.480096 
L 188.347099 70.031254 
L 190.085128 69.753671 
L 191.823157 68.643465 
L 193.561186 64.202555 
L 195.299215 74.472121 
L 197.037244 70.308795 
L 198.775273 63.092306 
L 200.513302 59.484104 
L 202.251331 57.54119 
L 203.98936 63.924971 
L 205.727389 56.986066 
L 207.465418 65.590345 
L 209.203447 60.871851 
L 210.941476 66.978092 
L 212.679505 60.039186 
L 214.417534 65.867885 
L 216.155563 65.590345 
L 217.893592 67.810799 
L 219.63162 61.426976 
L 221.369649 65.867885 
L 223.107678 61.704517 
L 224.845707 67.810799 
L 226.583736 64.757679 
L 228.321765 56.708525 
L 230.059794 71.974126 
L 231.797823 65.312761 
L 233.535852 54.765611 
L 235.273881 61.149435 
L 237.01191 60.59431 
L 238.749939 60.31677 
L 240.487968 63.36989 
L 242.225997 65.03522 
L 243.964026 61.149435 
L 245.702055 66.145426 
L 247.440084 52.82274 
L 249.178113 50.879826 
L 250.916142 58.651396 
L 252.654171 58.651396 
L 254.3922 61.704517 
L 256.130229 63.924971 
L 257.868258 60.59431 
L 259.606287 61.426976 
L 261.344316 56.708525 
L 263.082345 59.206521 
L 264.820374 65.312761 
L 266.558403 59.206521 
L 268.296432 56.986066 
L 270.034461 52.82274 
L 271.77249 57.263649 
L 273.510519 59.484104 
L 275.248548 57.263649 
L 276.986577 58.096315 
L 278.724606 55.320735 
L 280.462635 53.655405 
L 282.200664 57.54119 
L 283.938693 58.651396 
L 285.676722 57.54119 
L 287.414751 51.990074 
L 289.15278 52.82274 
L 290.890809 53.377821 
L 292.628838 56.986066 
L 294.366867 56.153401 
L 296.104896 47.826706 
L 297.842925 51.157409 
L 299.580954 47.271581 
L 301.318983 55.87586 
L 303.057012 53.655405 
L 304.795041 51.990074 
L 306.53307 54.765611 
L 308.271099 56.430984 
L 310.009128 58.373856 
L 311.747157 48.659371 
L 313.485186 58.096315 
L 315.223215 57.54119 
L 316.961244 63.36989 
L 318.699273 53.377821 
L 320.437302 59.206521 
L 322.175331 65.590345 
L 323.91336 54.765611 
L 325.651389 51.712491 
L 327.389418 51.990074 
L 329.127447 58.373856 
L 330.865476 54.210529 
L 332.603505 50.879826 
L 334.341534 49.76962 
L 336.079563 51.43495 
L 337.817592 57.54119 
L 339.555621 49.492036 
L 341.29365 58.92898 
L 343.031679 49.214495 
L 344.769708 54.210529 
L 346.507737 48.936954 
L 348.245766 55.043195 
L 349.983795 52.82274 
L 351.721824 48.659371 
L 353.459853 56.986066 
L 355.197882 46.161375 
L 356.935911 56.153401 
L 358.67394 45.32871 
L 360.411969 53.377821 
L 362.149998 51.990074 
L 363.888026 56.708525 
L 365.626055 56.430984 
L 367.364084 51.990074 
L 369.102113 54.48807 
L 370.840142 53.377821 
L 372.578171 51.157409 
L 374.3162 52.545156 
L 376.054229 47.549165 
L 377.792258 53.100281 
L 379.530287 43.108255 
L 381.268316 49.214495 
L 383.006345 50.602285 
L 384.744374 49.76962 
L 386.482403 52.545156 
L 388.220432 52.267615 
L 389.958461 50.324701 
L 391.69649 50.04716 
L 393.434519 48.936954 
L 395.172548 45.32871 
L 396.910577 49.76962 
L 398.648606 48.936954 
L 400.386635 56.430984 
L 402.124664 48.104289 
L 403.862693 50.879826 
L 405.600722 50.324701 
L 407.338751 47.549165 
L 409.07678 46.438916 
L 410.814809 52.82274 
L 412.552838 46.716499 
L 414.290867 48.659371 
L 416.028896 47.271581 
L 417.766925 45.051126 
L 419.504954 49.492036 
L 421.242983 50.602285 
L 422.981012 45.32871 
L 424.719041 47.271581 
L 426.45707 47.271581 
L 428.195099 42.27559 
L 429.933128 53.655405 
L 431.671157 47.549165 
L 431.671157 47.549165 
" style="fill:none;stroke:#dd8452;stroke-linecap:round;stroke-width:1.5;"/>
   </g>
   <g id="line2d_16">
    <path clip-path="url(#pefa0287975)" d="M 85.803388 288.190658 
L 87.541417 267.096358 
L 89.279446 268.484148 
L 91.017475 268.206607 
L 92.755504 272.092392 
L 94.493533 252.663423 
L 96.231562 252.385882 
L 97.969591 257.659457 
L 99.70762 257.936998 
L 101.445649 247.389848 
L 103.183678 249.332762 
L 104.921707 246.279641 
L 106.659736 250.998092 
L 108.397765 244.336727 
L 110.135794 244.614268 
L 111.873823 241.006066 
L 113.611852 248.777637 
L 115.349881 249.055178 
L 117.08791 248.500096 
L 118.825939 245.169393 
L 120.563968 242.948938 
L 122.301997 242.393813 
L 124.040026 243.781603 
L 125.778055 247.112307 
L 127.516084 246.002058 
L 129.254113 241.838732 
L 130.992142 247.389848 
L 132.730171 243.504062 
L 134.4682 247.389848 
L 136.206229 237.120238 
L 137.944258 248.222513 
L 139.682287 237.952946 
L 141.420316 236.287573 
L 143.158345 244.614268 
L 144.896374 243.226521 
L 146.634403 240.173401 
L 148.372432 237.397822 
L 150.110461 239.340693 
L 151.84849 236.010032 
L 153.586519 238.230487 
L 155.324548 231.569123 
L 157.062577 235.454908 
L 158.800606 240.173401 
L 160.538635 236.842698 
L 162.276664 237.952946 
L 164.014693 240.728483 
L 165.752722 246.279641 
L 167.490751 236.842698 
L 169.22878 244.059187 
L 170.966809 231.291582 
L 172.704838 236.842698 
L 174.442867 238.508028 
L 176.180896 235.454908 
L 177.918925 235.177367 
L 179.656954 233.789577 
L 181.394983 236.010032 
L 183.133012 238.785612 
L 184.871041 240.173401 
L 186.60907 237.397822 
L 188.347099 236.287573 
L 190.085128 239.618277 
L 191.823157 237.397822 
L 193.561186 237.397822 
L 195.299215 229.348668 
L 197.037244 234.067118 
L 198.775273 233.512037 
L 200.513302 230.181333 
L 202.251331 233.234453 
L 203.98936 234.899826 
L 205.727389 232.956912 
L 207.465418 237.952946 
L 209.203447 232.956912 
L 210.941476 233.789577 
L 212.679505 239.063152 
L 214.417534 233.789577 
L 216.155563 236.565157 
L 217.893592 237.675363 
L 219.63162 246.002058 
L 221.369649 240.173401 
L 223.107678 234.899826 
L 224.845707 228.516002 
L 226.583736 229.348668 
L 228.321765 231.291582 
L 230.059794 230.736457 
L 231.797823 229.903792 
L 233.535852 233.512037 
L 235.273881 234.344702 
L 237.01191 229.626251 
L 238.749939 232.124247 
L 240.487968 232.124247 
L 242.225997 241.561148 
L 243.964026 234.622243 
L 245.702055 238.508028 
L 249.178113 227.405796 
L 250.916142 231.569123 
L 252.654171 229.071127 
L 254.3922 231.569123 
L 256.130229 228.793543 
L 257.868258 232.401788 
L 259.606287 227.960878 
L 261.344316 225.740423 
L 263.082345 228.793543 
L 264.820374 227.128213 
L 266.558403 230.181333 
L 268.296432 229.348668 
L 270.034461 232.124247 
L 271.77249 226.573131 
L 275.248548 229.903792 
L 276.986577 224.352676 
L 278.724606 226.850672 
L 280.462635 220.466848 
L 282.200664 226.850672 
L 283.938693 228.793543 
L 285.676722 234.067118 
L 287.414751 230.736457 
L 289.15278 228.238462 
L 290.890809 230.181333 
L 292.628838 227.128213 
L 294.366867 222.964887 
L 296.104896 230.181333 
L 297.842925 223.242427 
L 299.580954 223.242427 
L 301.318983 225.185342 
L 303.057012 226.295548 
L 304.795041 226.850672 
L 306.53307 224.630217 
L 308.271099 222.687303 
L 310.009128 223.520011 
L 311.747157 219.079101 
L 313.485186 225.740423 
L 315.223215 228.516002 
L 316.961244 227.960878 
L 320.437302 221.854638 
L 322.175331 224.352676 
L 323.91336 228.793543 
L 325.651389 223.797552 
L 327.389418 222.687303 
L 329.127447 226.573131 
L 330.865476 223.797552 
L 332.603505 221.854638 
L 334.341534 224.907758 
L 336.079563 227.683337 
L 337.817592 224.630217 
L 339.555621 226.850672 
L 341.29365 224.907758 
L 343.031679 229.626251 
L 344.769708 223.520011 
L 346.507737 222.132221 
L 348.245766 217.691312 
L 349.983795 225.462882 
L 351.721824 217.691312 
L 353.459853 214.638192 
L 355.197882 216.581063 
L 356.935911 227.405796 
L 358.67394 225.185342 
L 360.411969 222.409762 
L 362.149998 222.964887 
L 363.888026 221.577097 
L 365.626055 230.181333 
L 367.364084 227.405796 
L 369.102113 232.401788 
L 370.840142 222.132221 
L 372.578171 226.018007 
L 374.3162 225.462882 
L 376.054229 225.185342 
L 377.792258 222.964887 
L 379.530287 222.132221 
L 381.268316 224.352676 
L 383.006345 221.299556 
L 384.744374 223.797552 
L 386.482403 222.687303 
L 388.220432 220.466848 
L 389.958461 225.740423 
L 391.69649 232.956912 
L 393.434519 222.687303 
L 395.172548 230.458916 
L 396.910577 216.858646 
L 398.648606 219.634183 
L 400.386635 224.630217 
L 402.124664 222.132221 
L 403.862693 226.573131 
L 405.600722 217.413728 
L 407.338751 227.128213 
L 409.07678 226.018007 
L 410.814809 217.968852 
L 412.552838 224.907758 
L 416.028896 226.573131 
L 417.766925 222.687303 
L 419.504954 222.687303 
L 421.242983 223.242427 
L 422.981012 223.242427 
L 424.719041 224.075093 
L 426.45707 217.136187 
L 428.195099 231.291582 
L 429.933128 225.740423 
L 431.671157 225.740423 
L 431.671157 225.740423 
" style="fill:none;stroke:#55a868;stroke-linecap:round;stroke-width:1.5;"/>
   </g>
   <g id="patch_3">
    <path d="M 68.51 299.559375 
L 68.51 27.759375 
" style="fill:none;stroke:#cccccc;stroke-linecap:square;stroke-linejoin:miter;stroke-width:1.25;"/>
   </g>
   <g id="patch_4">
    <path d="M 448.964545 299.559375 
L 448.964545 27.759375 
" style="fill:none;stroke:#cccccc;stroke-linecap:square;stroke-linejoin:miter;stroke-width:1.25;"/>
   </g>
   <g id="patch_5">
    <path d="M 68.51 299.559375 
L 448.964545 299.559375 
" style="fill:none;stroke:#cccccc;stroke-linecap:square;stroke-linejoin:miter;stroke-width:1.25;"/>
   </g>
   <g id="patch_6">
    <path d="M 68.51 27.759375 
L 448.964545 27.759375 
" style="fill:none;stroke:#cccccc;stroke-linecap:square;stroke-linejoin:miter;stroke-width:1.25;"/>
   </g>
   <g id="text_16">
    <!-- Accuracy for model with ancient samples -->
    <g style="fill:#262626;" transform="translate(77.56071 21.759375)scale(0.2 -0.2)">
     <defs>
      <path id="ArialMT-20" transform="scale(0.015625)"/>
      <path d="M 556 0 
L 556 2881 
L 59 2881 
L 59 3319 
L 556 3319 
L 556 3672 
Q 556 4006 616 4169 
Q 697 4388 901 4523 
Q 1106 4659 1475 4659 
Q 1713 4659 2000 4603 
L 1916 4113 
Q 1741 4144 1584 4144 
Q 1328 4144 1222 4034 
Q 1116 3925 1116 3625 
L 1116 3319 
L 1763 3319 
L 1763 2881 
L 1116 2881 
L 1116 0 
L 556 0 
z
" id="ArialMT-66" transform="scale(0.015625)"/>
      <path d="M 422 0 
L 422 3319 
L 925 3319 
L 925 2853 
Q 1081 3097 1340 3245 
Q 1600 3394 1931 3394 
Q 2300 3394 2536 3241 
Q 2772 3088 2869 2813 
Q 3263 3394 3894 3394 
Q 4388 3394 4653 3120 
Q 4919 2847 4919 2278 
L 4919 0 
L 4359 0 
L 4359 2091 
Q 4359 2428 4304 2576 
Q 4250 2725 4106 2815 
Q 3963 2906 3769 2906 
Q 3419 2906 3187 2673 
Q 2956 2441 2956 1928 
L 2956 0 
L 2394 0 
L 2394 2156 
Q 2394 2531 2256 2718 
Q 2119 2906 1806 2906 
Q 1569 2906 1367 2781 
Q 1166 2656 1075 2415 
Q 984 2175 984 1722 
L 984 0 
L 422 0 
z
" id="ArialMT-6d" transform="scale(0.015625)"/>
      <path d="M 2575 0 
L 2575 419 
Q 2259 -75 1647 -75 
Q 1250 -75 917 144 
Q 584 363 401 755 
Q 219 1147 219 1656 
Q 219 2153 384 2558 
Q 550 2963 881 3178 
Q 1213 3394 1622 3394 
Q 1922 3394 2156 3267 
Q 2391 3141 2538 2938 
L 2538 4581 
L 3097 4581 
L 3097 0 
L 2575 0 
z
M 797 1656 
Q 797 1019 1065 703 
Q 1334 388 1700 388 
Q 2069 388 2326 689 
Q 2584 991 2584 1609 
Q 2584 2291 2321 2609 
Q 2059 2928 1675 2928 
Q 1300 2928 1048 2622 
Q 797 2316 797 1656 
z
" id="ArialMT-64" transform="scale(0.015625)"/>
      <path d="M 2694 1069 
L 3275 997 
Q 3138 488 2766 206 
Q 2394 -75 1816 -75 
Q 1088 -75 661 373 
Q 234 822 234 1631 
Q 234 2469 665 2931 
Q 1097 3394 1784 3394 
Q 2450 3394 2872 2941 
Q 3294 2488 3294 1666 
Q 3294 1616 3291 1516 
L 816 1516 
Q 847 969 1125 678 
Q 1403 388 1819 388 
Q 2128 388 2347 550 
Q 2566 713 2694 1069 
z
M 847 1978 
L 2700 1978 
Q 2663 2397 2488 2606 
Q 2219 2931 1791 2931 
Q 1403 2931 1139 2672 
Q 875 2413 847 1978 
z
" id="ArialMT-65" transform="scale(0.015625)"/>
      <path d="M 409 0 
L 409 4581 
L 972 4581 
L 972 0 
L 409 0 
z
" id="ArialMT-6c" transform="scale(0.015625)"/>
      <path d="M 1034 0 
L 19 3319 
L 600 3319 
L 1128 1403 
L 1325 691 
Q 1338 744 1497 1375 
L 2025 3319 
L 2603 3319 
L 3100 1394 
L 3266 759 
L 3456 1400 
L 4025 3319 
L 4572 3319 
L 3534 0 
L 2950 0 
L 2422 1988 
L 2294 2553 
L 1622 0 
L 1034 0 
z
" id="ArialMT-77" transform="scale(0.015625)"/>
      <path d="M 425 3934 
L 425 4581 
L 988 4581 
L 988 3934 
L 425 3934 
z
M 425 0 
L 425 3319 
L 988 3319 
L 988 0 
L 425 0 
z
" id="ArialMT-69" transform="scale(0.015625)"/>
      <path d="M 1650 503 
L 1731 6 
Q 1494 -44 1306 -44 
Q 1000 -44 831 53 
Q 663 150 594 308 
Q 525 466 525 972 
L 525 2881 
L 113 2881 
L 113 3319 
L 525 3319 
L 525 4141 
L 1084 4478 
L 1084 3319 
L 1650 3319 
L 1650 2881 
L 1084 2881 
L 1084 941 
Q 1084 700 1114 631 
Q 1144 563 1211 522 
Q 1278 481 1403 481 
Q 1497 481 1650 503 
z
" id="ArialMT-74" transform="scale(0.015625)"/>
      <path d="M 422 0 
L 422 3319 
L 928 3319 
L 928 2847 
Q 1294 3394 1984 3394 
Q 2284 3394 2536 3286 
Q 2788 3178 2913 3003 
Q 3038 2828 3088 2588 
Q 3119 2431 3119 2041 
L 3119 0 
L 2556 0 
L 2556 2019 
Q 2556 2363 2490 2533 
Q 2425 2703 2258 2804 
Q 2091 2906 1866 2906 
Q 1506 2906 1245 2678 
Q 984 2450 984 1813 
L 984 0 
L 422 0 
z
" id="ArialMT-6e" transform="scale(0.015625)"/>
     </defs>
     <use xlink:href="#ArialMT-41"/>
     <use x="66.699219" xlink:href="#ArialMT-63"/>
     <use x="116.699219" xlink:href="#ArialMT-63"/>
     <use x="166.699219" xlink:href="#ArialMT-75"/>
     <use x="222.314453" xlink:href="#ArialMT-72"/>
     <use x="255.615234" xlink:href="#ArialMT-61"/>
     <use x="311.230469" xlink:href="#ArialMT-63"/>
     <use x="361.230469" xlink:href="#ArialMT-79"/>
     <use x="411.230469" xlink:href="#ArialMT-20"/>
     <use x="439.013672" xlink:href="#ArialMT-66"/>
     <use x="466.796875" xlink:href="#ArialMT-6f"/>
     <use x="522.412109" xlink:href="#ArialMT-72"/>
     <use x="555.712891" xlink:href="#ArialMT-20"/>
     <use x="583.496094" xlink:href="#ArialMT-6d"/>
     <use x="666.796875" xlink:href="#ArialMT-6f"/>
     <use x="722.412109" xlink:href="#ArialMT-64"/>
     <use x="778.027344" xlink:href="#ArialMT-65"/>
     <use x="833.642578" xlink:href="#ArialMT-6c"/>
     <use x="855.859375" xlink:href="#ArialMT-20"/>
     <use x="883.642578" xlink:href="#ArialMT-77"/>
     <use x="955.859375" xlink:href="#ArialMT-69"/>
     <use x="978.076172" xlink:href="#ArialMT-74"/>
     <use x="1005.859375" xlink:href="#ArialMT-68"/>
     <use x="1061.474609" xlink:href="#ArialMT-20"/>
     <use x="1089.257812" xlink:href="#ArialMT-61"/>
     <use x="1144.873047" xlink:href="#ArialMT-6e"/>
     <use x="1200.488281" xlink:href="#ArialMT-63"/>
     <use x="1250.488281" xlink:href="#ArialMT-69"/>
     <use x="1272.705078" xlink:href="#ArialMT-65"/>
     <use x="1328.320312" xlink:href="#ArialMT-6e"/>
     <use x="1383.935547" xlink:href="#ArialMT-74"/>
     <use x="1411.71875" xlink:href="#ArialMT-20"/>
     <use x="1439.501953" xlink:href="#ArialMT-73"/>
     <use x="1489.501953" xlink:href="#ArialMT-61"/>
     <use x="1545.117188" xlink:href="#ArialMT-6d"/>
     <use x="1628.417969" xlink:href="#ArialMT-70"/>
     <use x="1684.033203" xlink:href="#ArialMT-6c"/>
     <use x="1706.25" xlink:href="#ArialMT-65"/>
     <use x="1761.865234" xlink:href="#ArialMT-73"/>
    </g>
   </g>
   <g id="legend_1">
    <g id="patch_7">
     <path d="M 363.876108 294.059375 
L 441.264545 294.059375 
Q 443.464545 294.059375 443.464545 291.859375 
L 443.464545 246.279844 
Q 443.464545 244.079844 441.264545 244.079844 
L 363.876108 244.079844 
Q 361.676108 244.079844 361.676108 246.279844 
L 361.676108 291.859375 
Q 361.676108 294.059375 363.876108 294.059375 
z
" style="fill:#ffffff;opacity:0.8;stroke:#cccccc;stroke-linejoin:miter;"/>
    </g>
    <g id="line2d_17">
     <path d="M 366.076108 252.503437 
L 388.076108 252.503437 
" style="fill:none;stroke:#4c72b0;stroke-linecap:round;stroke-width:1.5;"/>
    </g>
    <g id="line2d_18"/>
    <g id="text_17">
     <!-- 100 PCs -->
     <g style="fill:#262626;" transform="translate(396.876108 256.353437)scale(0.11 -0.11)">
      <defs>
       <path d="M 494 0 
L 494 4581 
L 2222 4581 
Q 2678 4581 2919 4538 
Q 3256 4481 3484 4323 
Q 3713 4166 3852 3881 
Q 3991 3597 3991 3256 
Q 3991 2672 3619 2267 
Q 3247 1863 2275 1863 
L 1100 1863 
L 1100 0 
L 494 0 
z
M 1100 2403 
L 2284 2403 
Q 2872 2403 3119 2622 
Q 3366 2841 3366 3238 
Q 3366 3525 3220 3729 
Q 3075 3934 2838 4000 
Q 2684 4041 2272 4041 
L 1100 4041 
L 1100 2403 
z
" id="ArialMT-50" transform="scale(0.015625)"/>
       <path d="M 3763 1606 
L 4369 1453 
Q 4178 706 3683 314 
Q 3188 -78 2472 -78 
Q 1731 -78 1267 223 
Q 803 525 561 1097 
Q 319 1669 319 2325 
Q 319 3041 592 3573 
Q 866 4106 1370 4382 
Q 1875 4659 2481 4659 
Q 3169 4659 3637 4309 
Q 4106 3959 4291 3325 
L 3694 3184 
Q 3534 3684 3231 3912 
Q 2928 4141 2469 4141 
Q 1941 4141 1586 3887 
Q 1231 3634 1087 3207 
Q 944 2781 944 2328 
Q 944 1744 1114 1308 
Q 1284 872 1643 656 
Q 2003 441 2422 441 
Q 2931 441 3284 734 
Q 3638 1028 3763 1606 
z
" id="ArialMT-43" transform="scale(0.015625)"/>
      </defs>
      <use xlink:href="#ArialMT-31"/>
      <use x="55.615234" xlink:href="#ArialMT-30"/>
      <use x="111.230469" xlink:href="#ArialMT-30"/>
      <use x="166.845703" xlink:href="#ArialMT-20"/>
      <use x="194.628906" xlink:href="#ArialMT-50"/>
      <use x="261.328125" xlink:href="#ArialMT-43"/>
      <use x="333.544922" xlink:href="#ArialMT-73"/>
     </g>
    </g>
    <g id="line2d_19">
     <path d="M 366.076108 268.063281 
L 388.076108 268.063281 
" style="fill:none;stroke:#dd8452;stroke-linecap:round;stroke-width:1.5;"/>
    </g>
    <g id="line2d_20"/>
    <g id="text_18">
     <!-- 20 PCs -->
     <g style="fill:#262626;" transform="translate(396.876108 271.913281)scale(0.11 -0.11)">
      <use xlink:href="#ArialMT-32"/>
      <use x="55.615234" xlink:href="#ArialMT-30"/>
      <use x="111.230469" xlink:href="#ArialMT-20"/>
      <use x="139.013672" xlink:href="#ArialMT-50"/>
      <use x="205.712891" xlink:href="#ArialMT-43"/>
      <use x="277.929688" xlink:href="#ArialMT-73"/>
     </g>
    </g>
    <g id="line2d_21">
     <path d="M 366.076108 283.623125 
L 388.076108 283.623125 
" style="fill:none;stroke:#55a868;stroke-linecap:round;stroke-width:1.5;"/>
    </g>
    <g id="line2d_22"/>
    <g id="text_19">
     <!-- 2 PCs -->
     <g style="fill:#262626;" transform="translate(396.876108 287.473125)scale(0.11 -0.11)">
      <use xlink:href="#ArialMT-32"/>
      <use x="55.615234" xlink:href="#ArialMT-20"/>
      <use x="83.398438" xlink:href="#ArialMT-50"/>
      <use x="150.097656" xlink:href="#ArialMT-43"/>
      <use x="222.314453" xlink:href="#ArialMT-73"/>
     </g>
    </g>
   </g>
  </g>
  <g id="axes_2">
   <g id="patch_8">
    <path d="M 525.055455 299.559375 
L 905.51 299.559375 
L 905.51 27.759375 
L 525.055455 27.759375 
z
" style="fill:#ffffff;"/>
   </g>
   <g id="matplotlib.axis_3">
    <g id="xtick_6">
     <g id="line2d_23">
      <path clip-path="url(#p70d8834a5f)" d="M 542.348843 299.559375 
L 542.348843 27.759375 
" style="fill:none;stroke:#cccccc;stroke-linecap:round;"/>
     </g>
     <g id="text_20">
      <!-- 0 -->
      <g style="fill:#262626;" transform="translate(537.900093 320.511875)scale(0.16 -0.16)">
       <use xlink:href="#ArialMT-30"/>
      </g>
     </g>
    </g>
    <g id="xtick_7">
     <g id="line2d_24">
      <path clip-path="url(#p70d8834a5f)" d="M 629.250292 299.559375 
L 629.250292 27.759375 
" style="fill:none;stroke:#cccccc;stroke-linecap:round;"/>
     </g>
     <g id="text_21">
      <!-- 50 -->
      <g style="fill:#262626;" transform="translate(620.352792 320.511875)scale(0.16 -0.16)">
       <use xlink:href="#ArialMT-35"/>
       <use x="55.615234" xlink:href="#ArialMT-30"/>
      </g>
     </g>
    </g>
    <g id="xtick_8">
     <g id="line2d_25">
      <path clip-path="url(#p70d8834a5f)" d="M 716.151742 299.559375 
L 716.151742 27.759375 
" style="fill:none;stroke:#cccccc;stroke-linecap:round;"/>
     </g>
     <g id="text_22">
      <!-- 100 -->
      <g style="fill:#262626;" transform="translate(702.805492 320.511875)scale(0.16 -0.16)">
       <use xlink:href="#ArialMT-31"/>
       <use x="55.615234" xlink:href="#ArialMT-30"/>
       <use x="111.230469" xlink:href="#ArialMT-30"/>
      </g>
     </g>
    </g>
    <g id="xtick_9">
     <g id="line2d_26">
      <path clip-path="url(#p70d8834a5f)" d="M 803.053191 299.559375 
L 803.053191 27.759375 
" style="fill:none;stroke:#cccccc;stroke-linecap:round;"/>
     </g>
     <g id="text_23">
      <!-- 150 -->
      <g style="fill:#262626;" transform="translate(789.706941 320.511875)scale(0.16 -0.16)">
       <use xlink:href="#ArialMT-31"/>
       <use x="55.615234" xlink:href="#ArialMT-35"/>
       <use x="111.230469" xlink:href="#ArialMT-30"/>
      </g>
     </g>
    </g>
    <g id="xtick_10">
     <g id="line2d_27">
      <path clip-path="url(#p70d8834a5f)" d="M 889.954641 299.559375 
L 889.954641 27.759375 
" style="fill:none;stroke:#cccccc;stroke-linecap:round;"/>
     </g>
     <g id="text_24">
      <!-- 200 -->
      <g style="fill:#262626;" transform="translate(876.608391 320.511875)scale(0.16 -0.16)">
       <use xlink:href="#ArialMT-32"/>
       <use x="55.615234" xlink:href="#ArialMT-30"/>
       <use x="111.230469" xlink:href="#ArialMT-30"/>
      </g>
     </g>
    </g>
    <g id="text_25">
     <!-- Epochs -->
     <g style="fill:#262626;" transform="translate(685.264915 340.575938)scale(0.18 -0.18)">
      <use xlink:href="#ArialMT-45"/>
      <use x="66.699219" xlink:href="#ArialMT-70"/>
      <use x="122.314453" xlink:href="#ArialMT-6f"/>
      <use x="177.929688" xlink:href="#ArialMT-63"/>
      <use x="227.929688" xlink:href="#ArialMT-68"/>
      <use x="283.544922" xlink:href="#ArialMT-73"/>
     </g>
    </g>
   </g>
   <g id="matplotlib.axis_4">
    <g id="ytick_9">
     <g id="line2d_28">
      <path clip-path="url(#p70d8834a5f)" d="M 525.055455 274.6143 
L 905.51 274.6143 
" style="fill:none;stroke:#cccccc;stroke-linecap:round;"/>
     </g>
     <g id="text_26">
      <!-- 0.4 -->
      <g style="fill:#262626;" transform="translate(493.315455 280.34055)scale(0.16 -0.16)">
       <defs>
        <path d="M 2069 0 
L 2069 1097 
L 81 1097 
L 81 1613 
L 2172 4581 
L 2631 4581 
L 2631 1613 
L 3250 1613 
L 3250 1097 
L 2631 1097 
L 2631 0 
L 2069 0 
z
M 2069 1613 
L 2069 3678 
L 634 1613 
L 2069 1613 
z
" id="ArialMT-34" transform="scale(0.015625)"/>
       </defs>
       <use xlink:href="#ArialMT-30"/>
       <use x="55.615234" xlink:href="#ArialMT-2e"/>
       <use x="83.398438" xlink:href="#ArialMT-34"/>
      </g>
     </g>
    </g>
    <g id="ytick_10">
     <g id="line2d_29">
      <path clip-path="url(#p70d8834a5f)" d="M 525.055455 221.498977 
L 905.51 221.498977 
" style="fill:none;stroke:#cccccc;stroke-linecap:round;"/>
     </g>
     <g id="text_27">
      <!-- 0.6 -->
      <g style="fill:#262626;" transform="translate(493.315455 227.225227)scale(0.16 -0.16)">
       <use xlink:href="#ArialMT-30"/>
       <use x="55.615234" xlink:href="#ArialMT-2e"/>
       <use x="83.398438" xlink:href="#ArialMT-36"/>
      </g>
     </g>
    </g>
    <g id="ytick_11">
     <g id="line2d_30">
      <path clip-path="url(#p70d8834a5f)" d="M 525.055455 168.383655 
L 905.51 168.383655 
" style="fill:none;stroke:#cccccc;stroke-linecap:round;"/>
     </g>
     <g id="text_28">
      <!-- 0.8 -->
      <g style="fill:#262626;" transform="translate(493.315455 174.109905)scale(0.16 -0.16)">
       <use xlink:href="#ArialMT-30"/>
       <use x="55.615234" xlink:href="#ArialMT-2e"/>
       <use x="83.398438" xlink:href="#ArialMT-38"/>
      </g>
     </g>
    </g>
    <g id="ytick_12">
     <g id="line2d_31">
      <path clip-path="url(#p70d8834a5f)" d="M 525.055455 115.268332 
L 905.51 115.268332 
" style="fill:none;stroke:#cccccc;stroke-linecap:round;"/>
     </g>
     <g id="text_29">
      <!-- 1.0 -->
      <g style="fill:#262626;" transform="translate(493.315455 120.994582)scale(0.16 -0.16)">
       <use xlink:href="#ArialMT-31"/>
       <use x="55.615234" xlink:href="#ArialMT-2e"/>
       <use x="83.398438" xlink:href="#ArialMT-30"/>
      </g>
     </g>
    </g>
    <g id="ytick_13">
     <g id="line2d_32">
      <path clip-path="url(#p70d8834a5f)" d="M 525.055455 62.15301 
L 905.51 62.15301 
" style="fill:none;stroke:#cccccc;stroke-linecap:round;"/>
     </g>
     <g id="text_30">
      <!-- 1.2 -->
      <g style="fill:#262626;" transform="translate(493.315455 67.87926)scale(0.16 -0.16)">
       <use xlink:href="#ArialMT-31"/>
       <use x="55.615234" xlink:href="#ArialMT-2e"/>
       <use x="83.398438" xlink:href="#ArialMT-32"/>
      </g>
     </g>
    </g>
    <g id="text_31">
     <!-- Loss -->
     <g style="fill:#262626;" transform="translate(485.737955 182.669062)rotate(-90)scale(0.18 -0.18)">
      <defs>
       <path d="M 469 0 
L 469 4581 
L 1075 4581 
L 1075 541 
L 3331 541 
L 3331 0 
L 469 0 
z
" id="ArialMT-4c" transform="scale(0.015625)"/>
      </defs>
      <use xlink:href="#ArialMT-4c"/>
      <use x="55.615234" xlink:href="#ArialMT-6f"/>
      <use x="111.230469" xlink:href="#ArialMT-73"/>
      <use x="161.230469" xlink:href="#ArialMT-73"/>
     </g>
    </g>
   </g>
   <g id="line2d_33">
    <path clip-path="url(#p70d8834a5f)" d="M 542.348843 197.65179 
L 544.086872 222.236979 
L 545.824901 216.4379 
L 547.56293 237.943266 
L 549.300959 243.079274 
L 551.038988 252.123041 
L 552.777017 251.973135 
L 554.515046 256.950808 
L 556.253075 254.296485 
L 557.991104 258.736949 
L 559.729133 262.518506 
L 561.467162 262.097359 
L 563.205191 265.34272 
L 564.94322 266.107076 
L 566.681249 270.044807 
L 568.419278 264.255076 
L 570.157307 271.77507 
L 571.895336 273.150599 
L 573.633365 276.223433 
L 575.371394 277.899399 
L 577.109423 272.175305 
L 578.847452 274.997976 
L 580.585481 273.116518 
L 582.32351 273.181506 
L 584.061539 271.236199 
L 585.799568 270.367478 
L 587.537597 275.880421 
L 589.275626 272.152891 
L 591.013655 271.086443 
L 592.751684 280.064398 
L 594.489713 281.189265 
L 596.227742 274.73898 
L 597.965771 268.946882 
L 601.441829 283.03335 
L 603.179858 277.004972 
L 604.917887 277.433487 
L 606.655916 276.297238 
L 608.393945 281.201881 
L 613.608031 276.019405 
L 617.084089 279.77971 
L 618.822118 273.802699 
L 620.560147 276.770092 
L 622.298176 275.246897 
L 624.036205 274.725565 
L 625.774234 282.178378 
L 627.512263 277.124145 
L 629.250292 277.437951 
L 630.988321 275.488084 
L 632.72635 271.939167 
L 634.464379 272.080201 
L 636.202408 275.317006 
L 637.940437 276.951499 
L 639.678466 273.687507 
L 641.416495 272.445342 
L 643.154524 279.634126 
L 644.892553 277.39662 
L 646.630582 279.421352 
L 648.368611 266.650284 
L 650.10664 269.554327 
L 651.844669 264.895019 
L 653.582698 271.485776 
L 655.320727 274.90512 
L 657.058756 273.62984 
L 658.796785 274.891475 
L 660.534814 271.862694 
L 662.272843 275.237676 
L 664.010872 266.55131 
L 665.748901 273.533952 
L 667.48693 267.92448 
L 669.224959 268.473213 
L 670.962988 263.9585 
L 672.701017 267.476534 
L 674.439046 263.774402 
L 676.177075 269.806279 
L 677.915104 272.041316 
L 679.653133 265.296561 
L 681.391162 263.267515 
L 683.129191 270.886206 
L 684.86722 266.370583 
L 686.605249 267.590705 
L 688.343278 267.402103 
L 690.081307 265.06939 
L 691.819336 264.933081 
L 693.557365 267.55603 
L 695.295394 268.992282 
L 697.033423 269.734223 
L 698.771452 260.158106 
L 700.509481 267.238132 
L 702.24751 261.547985 
L 703.985539 259.503078 
L 705.723568 260.088812 
L 707.461597 255.405325 
L 709.199626 261.70112 
L 710.937655 265.004038 
L 712.675684 260.377655 
L 714.413713 254.061407 
L 716.151742 265.304064 
L 717.889771 266.622155 
L 719.6278 265.094678 
L 721.365829 261.610963 
L 723.103858 261.813598 
L 724.841887 255.689323 
L 726.579916 258.107516 
L 728.317945 261.939728 
L 730.055974 269.560422 
L 731.794003 264.507147 
L 733.532032 262.781404 
L 735.270061 268.336311 
L 737.00809 259.103847 
L 738.746119 266.623342 
L 740.484148 265.246365 
L 742.222177 258.369132 
L 743.960206 264.788336 
L 745.698235 255.286864 
L 747.436264 263.73801 
L 749.174293 253.935926 
L 750.912322 260.996371 
L 752.650351 260.311931 
L 754.38838 260.923618 
L 756.126408 260.304942 
L 757.864437 265.881813 
L 759.602466 265.151348 
L 761.340495 259.156457 
L 763.078524 258.844827 
L 764.816553 260.57919 
L 766.554582 250.074129 
L 768.292611 265.708447 
L 770.03064 260.936764 
L 771.768669 260.730592 
L 773.506698 263.106583 
L 775.244727 256.113074 
L 776.982756 255.221646 
L 778.720785 257.939018 
L 780.458814 259.462878 
L 782.196843 254.771215 
L 783.934872 256.69922 
L 785.672901 261.35461 
L 787.41093 256.039355 
L 789.148959 262.605078 
L 790.886988 264.453619 
L 792.625017 265.068385 
L 794.363046 261.100775 
L 796.101075 262.360597 
L 797.839104 265.200309 
L 799.577133 262.08851 
L 801.315162 259.81648 
L 803.053191 262.353601 
L 804.79122 258.386885 
L 806.529249 260.667764 
L 808.267278 257.450469 
L 810.005307 259.822551 
L 811.743336 262.806865 
L 813.481365 253.888216 
L 815.219394 263.913916 
L 816.957423 265.246484 
L 818.695452 261.047184 
L 820.433481 256.336184 
L 822.17151 264.540737 
L 823.909539 252.863621 
L 825.647568 259.614581 
L 827.385597 257.79918 
L 829.123626 260.610991 
L 830.861655 259.87315 
L 832.599684 259.63998 
L 834.337713 259.786863 
L 836.075742 258.706516 
L 837.813771 261.969329 
L 839.5518 258.557758 
L 841.289829 250.70759 
L 843.027858 254.717774 
L 844.765887 252.433618 
L 846.503916 262.444304 
L 848.241945 257.370261 
L 849.979974 262.218432 
L 851.718003 254.02052 
L 853.456032 258.047538 
L 855.194061 259.754523 
L 856.93209 262.362449 
L 858.670119 262.536607 
L 860.408148 257.774422 
L 862.146177 261.302468 
L 863.884206 263.174247 
L 865.622235 261.16684 
L 867.360264 255.848625 
L 869.098293 263.004989 
L 870.836322 260.255435 
L 872.574351 258.904371 
L 874.31238 255.128275 
L 876.050409 255.059408 
L 877.788438 246.710141 
L 879.526467 257.472876 
L 881.264496 256.359509 
L 883.002525 260.45249 
L 884.740554 259.986585 
L 886.478583 258.327896 
L 888.216612 260.635725 
L 888.216612 260.635725 
" style="fill:none;stroke:#4c72b0;stroke-linecap:round;stroke-width:1.5;"/>
   </g>
   <g id="line2d_34">
    <path clip-path="url(#p70d8834a5f)" d="M 542.348843 196.842644 
L 544.086872 216.328027 
L 545.824901 211.946615 
L 547.56293 221.680236 
L 549.300959 217.71929 
L 551.038988 232.601061 
L 552.777017 234.514764 
L 554.515046 238.274896 
L 556.253075 236.48661 
L 557.991104 238.420465 
L 559.729133 242.241319 
L 561.467162 242.9877 
L 563.205191 251.100979 
L 564.94322 244.92738 
L 566.681249 245.314667 
L 568.419278 249.117847 
L 570.157307 250.193152 
L 571.895336 248.88239 
L 573.633365 256.08238 
L 575.371394 254.157715 
L 577.109423 254.767083 
L 578.847452 254.396963 
L 580.585481 259.337801 
L 582.32351 256.795646 
L 584.061539 262.738529 
L 585.799568 262.225262 
L 587.537597 261.977331 
L 589.275626 260.948249 
L 591.013655 260.093609 
L 592.751684 259.552838 
L 594.489713 260.045423 
L 596.227742 262.873777 
L 597.965771 267.245731 
L 599.7038 265.0752 
L 601.441829 265.871523 
L 603.179858 265.648136 
L 604.917887 264.792554 
L 606.655916 267.141326 
L 608.393945 263.903928 
L 610.131974 260.072809 
L 611.870002 265.436439 
L 613.608031 268.736159 
L 615.34606 264.937854 
L 617.084089 267.078127 
L 618.822118 268.853685 
L 620.560147 266.853481 
L 622.298176 267.825268 
L 624.036205 270.506866 
L 625.774234 267.583962 
L 627.512263 269.432701 
L 629.250292 271.468704 
L 630.988321 272.145142 
L 632.72635 270.886143 
L 634.464379 272.452236 
L 636.202408 272.481394 
L 637.940437 272.070126 
L 639.678466 267.862246 
L 641.416495 268.873702 
L 643.154524 274.903022 
L 644.892553 272.549818 
L 648.368611 272.448872 
L 650.10664 274.67377 
L 651.844669 271.933413 
L 653.582698 274.813775 
L 655.320727 275.79506 
L 657.058756 279.580044 
L 658.796785 277.987507 
L 660.534814 279.311146 
L 662.272843 276.904058 
L 664.010872 274.702873 
L 667.48693 274.18906 
L 669.224959 278.603524 
L 670.962988 274.715173 
L 672.701017 274.265873 
L 674.439046 273.478145 
L 676.177075 274.91472 
L 677.915104 275.451304 
L 679.653133 273.602462 
L 681.391162 275.023454 
L 683.129191 272.106391 
L 684.86722 280.325262 
L 686.605249 270.741159 
L 688.343278 277.969137 
L 690.081307 280.153384 
L 691.819336 276.653934 
L 693.557365 275.298944 
L 695.295394 279.645942 
L 697.033423 276.341648 
L 698.771452 279.133689 
L 700.509481 275.531521 
L 702.24751 277.084325 
L 703.985539 281.120549 
L 705.723568 281.342527 
L 707.461597 276.390372 
L 709.199626 281.857654 
L 710.937655 276.71153 
L 712.675684 275.793176 
L 716.151742 280.226889 
L 717.889771 279.543588 
L 719.6278 282.144732 
L 721.365829 278.852397 
L 723.103858 279.028913 
L 724.841887 280.353731 
L 726.579916 282.736973 
L 728.317945 284.156231 
L 730.055974 281.756574 
L 731.794003 277.408895 
L 733.532032 281.362845 
L 735.270061 280.142398 
L 737.00809 281.653334 
L 740.484148 280.397833 
L 742.222177 275.389806 
L 743.960206 283.046623 
L 745.698235 278.176014 
L 747.436264 280.245979 
L 749.174293 280.57567 
L 750.912322 278.817801 
L 752.650351 282.083479 
L 754.38838 284.123392 
L 756.126408 283.746608 
L 757.864437 281.745858 
L 759.602466 280.960472 
L 761.340495 280.898657 
L 763.078524 282.075303 
L 764.816553 281.105519 
L 766.554582 280.711077 
L 768.292611 282.15495 
L 770.03064 281.068438 
L 771.768669 281.516518 
L 773.506698 277.30017 
L 775.244727 283.277561 
L 776.982756 280.495834 
L 778.720785 279.712158 
L 780.458814 285.951291 
L 782.196843 284.103265 
L 783.934872 283.953256 
L 785.672901 281.034998 
L 787.41093 283.924842 
L 789.148959 282.595013 
L 790.886988 285.651194 
L 792.625017 281.852628 
L 794.363046 283.177178 
L 796.101075 286.109532 
L 797.839104 281.086523 
L 799.577133 286.239026 
L 801.315162 278.948751 
L 803.053191 285.11867 
L 804.79122 283.926733 
L 806.529249 282.142413 
L 808.267278 285.397817 
L 810.005307 283.690112 
L 811.743336 284.756054 
L 813.481365 281.072553 
L 815.219394 283.312458 
L 816.957423 285.771863 
L 818.695452 284.382752 
L 820.433481 279.573585 
L 822.17151 277.066889 
L 823.909539 279.544965 
L 825.647568 283.695463 
L 827.385597 278.406825 
L 829.123626 281.338166 
L 830.861655 282.533942 
L 832.599684 284.886988 
L 834.337713 283.041669 
L 836.075742 280.40198 
L 837.813771 281.354851 
L 839.5518 283.548374 
L 841.289829 284.317392 
L 843.027858 278.366531 
L 844.765887 284.493662 
L 846.503916 285.484856 
L 848.241945 279.78719 
L 849.979974 283.87759 
L 851.718003 285.102097 
L 853.456032 284.907701 
L 855.194061 282.922393 
L 856.93209 279.302678 
L 858.670119 283.056723 
L 860.408148 280.434842 
L 862.146177 283.450674 
L 863.884206 281.462128 
L 865.622235 284.170311 
L 867.360264 279.197355 
L 869.098293 277.180894 
L 870.836322 284.208666 
L 872.574351 287.20483 
L 874.31238 281.756448 
L 876.050409 283.559289 
L 877.788438 280.714955 
L 879.526467 282.952896 
L 881.264496 284.514249 
L 883.002525 282.876344 
L 884.740554 281.995633 
L 886.478583 276.172675 
L 888.216612 275.003145 
L 888.216612 275.003145 
" style="fill:none;stroke:#dd8452;stroke-linecap:round;stroke-width:1.5;"/>
   </g>
   <g id="line2d_35">
    <path clip-path="url(#p70d8834a5f)" d="M 542.348843 40.11392 
L 544.086872 61.954684 
L 545.824901 69.441325 
L 547.56293 76.376747 
L 549.300959 76.022671 
L 551.038988 82.932924 
L 552.777017 88.035406 
L 554.515046 85.200324 
L 556.253075 86.468434 
L 557.991104 93.353898 
L 559.729133 93.359027 
L 561.467162 94.207018 
L 563.205191 95.802389 
L 564.94322 96.097927 
L 566.681249 93.376756 
L 568.419278 99.307094 
L 570.157307 96.278448 
L 573.633365 100.593375 
L 575.371394 99.858502 
L 577.109423 102.7418 
L 578.847452 97.278214 
L 580.585481 104.375352 
L 582.32351 99.854545 
L 584.061539 97.004077 
L 585.799568 101.375294 
L 587.537597 99.435282 
L 589.275626 102.062141 
L 591.013655 105.576533 
L 592.751684 103.860605 
L 594.489713 98.567535 
L 596.227742 105.930167 
L 597.965771 105.878024 
L 599.7038 102.303922 
L 601.441829 107.8162 
L 603.179858 105.468164 
L 604.917887 110.186999 
L 606.655916 107.353628 
L 608.393945 108.037308 
L 610.131974 105.02693 
L 611.870002 109.520826 
L 613.608031 110.298914 
L 615.34606 106.296812 
L 617.084089 105.626523 
L 618.822118 109.045653 
L 620.560147 107.501413 
L 622.298176 107.428502 
L 624.036205 110.9617 
L 625.774234 104.430534 
L 627.512263 110.8539 
L 629.250292 112.77001 
L 630.988321 108.903187 
L 632.72635 109.030045 
L 634.464379 113.756162 
L 636.202408 110.873212 
L 637.940437 111.546287 
L 639.678466 110.43812 
L 643.154524 109.903269 
L 644.892553 110.87068 
L 646.630582 108.956881 
L 648.368611 110.887364 
L 650.10664 114.390961 
L 651.844669 115.980094 
L 653.582698 115.731079 
L 657.058756 110.569664 
L 658.796785 116.270773 
L 660.534814 112.070152 
L 662.272843 113.579662 
L 664.010872 115.424396 
L 665.748901 116.271169 
L 667.48693 114.438861 
L 669.224959 112.96636 
L 670.962988 112.031749 
L 672.701017 113.582512 
L 674.439046 115.790741 
L 676.177075 109.614664 
L 677.915104 109.992833 
L 679.653133 117.022553 
L 681.391162 117.728379 
L 683.129191 112.73319 
L 684.86722 117.258604 
L 686.605249 116.35103 
L 688.343278 118.434759 
L 690.081307 116.620623 
L 691.819336 114.327263 
L 693.557365 118.611006 
L 695.295394 117.585121 
L 697.033423 114.071045 
L 698.771452 112.990738 
L 700.509481 111.647185 
L 702.24751 114.191666 
L 703.985539 112.265742 
L 705.723568 118.8267 
L 707.461597 118.822394 
L 709.199626 119.610819 
L 710.937655 115.830695 
L 712.675684 114.134775 
L 714.413713 116.776893 
L 716.151742 116.516275 
L 717.889771 120.287376 
L 719.6278 116.817797 
L 721.365829 120.607213 
L 723.103858 115.246013 
L 724.841887 115.921652 
L 726.579916 119.816034 
L 728.317945 119.533982 
L 730.055974 119.981406 
L 731.794003 115.174463 
L 733.532032 119.999895 
L 735.270061 120.36578 
L 737.00809 121.089921 
L 738.746119 121.047846 
L 740.484148 116.500635 
L 742.222177 117.962673 
L 743.960206 119.252009 
L 745.698235 121.032602 
L 747.436264 116.264157 
L 749.174293 120.463908 
L 750.912322 121.631942 
L 752.650351 118.7022 
L 754.38838 121.54442 
L 756.126408 123.556837 
L 757.864437 120.781307 
L 759.602466 119.011684 
L 761.340495 121.398535 
L 763.078524 121.08123 
L 764.816553 122.182812 
L 766.554582 122.174296 
L 768.292611 123.502605 
L 770.03064 120.453254 
L 771.768669 122.649722 
L 773.506698 120.494902 
L 775.244727 120.349301 
L 776.982756 122.157976 
L 778.720785 124.601559 
L 780.458814 121.690591 
L 783.934872 124.742205 
L 785.672901 121.918949 
L 787.41093 121.857435 
L 789.148959 122.181039 
L 790.886988 122.008924 
L 792.625017 119.19211 
L 794.363046 120.59675 
L 796.101075 121.703445 
L 797.839104 120.074674 
L 799.577133 117.800119 
L 801.315162 123.324269 
L 803.053191 123.289159 
L 804.79122 123.099568 
L 806.529249 122.085254 
L 808.267278 122.850758 
L 810.005307 126.402335 
L 811.743336 126.243849 
L 813.481365 122.79871 
L 815.219394 122.922672 
L 816.957423 125.717641 
L 818.695452 124.458887 
L 820.433481 125.136347 
L 822.17151 120.713271 
L 823.909539 121.814252 
L 825.647568 119.034305 
L 827.385597 125.71438 
L 829.123626 122.33294 
L 830.861655 124.26059 
L 832.599684 124.693957 
L 834.337713 123.519669 
L 836.075742 123.736044 
L 837.813771 124.432008 
L 839.5518 124.360949 
L 841.289829 123.919953 
L 843.027858 124.602066 
L 844.765887 124.276134 
L 846.503916 126.498499 
L 848.241945 122.471465 
L 849.979974 123.963215 
L 851.718003 123.029775 
L 853.456032 125.096108 
L 855.194061 125.497578 
L 856.93209 124.473925 
L 858.670119 127.375364 
L 860.408148 124.355251 
L 862.146177 127.898137 
L 863.884206 123.673533 
L 865.622235 123.073481 
L 867.360264 126.687584 
L 869.098293 125.904209 
L 870.836322 122.946321 
L 872.574351 123.693732 
L 874.31238 126.827818 
L 876.050409 125.556322 
L 877.788438 124.565484 
L 879.526467 121.388895 
L 881.264496 123.677776 
L 883.002525 126.402794 
L 884.740554 122.643137 
L 886.478583 123.86925 
L 888.216612 123.274311 
L 888.216612 123.274311 
" style="fill:none;stroke:#55a868;stroke-linecap:round;stroke-width:1.5;"/>
   </g>
   <g id="patch_9">
    <path d="M 525.055455 299.559375 
L 525.055455 27.759375 
" style="fill:none;stroke:#cccccc;stroke-linecap:square;stroke-linejoin:miter;stroke-width:1.25;"/>
   </g>
   <g id="patch_10">
    <path d="M 905.51 299.559375 
L 905.51 27.759375 
" style="fill:none;stroke:#cccccc;stroke-linecap:square;stroke-linejoin:miter;stroke-width:1.25;"/>
   </g>
   <g id="patch_11">
    <path d="M 525.055455 299.559375 
L 905.51 299.559375 
" style="fill:none;stroke:#cccccc;stroke-linecap:square;stroke-linejoin:miter;stroke-width:1.25;"/>
   </g>
   <g id="patch_12">
    <path d="M 525.055455 27.759375 
L 905.51 27.759375 
" style="fill:none;stroke:#cccccc;stroke-linecap:square;stroke-linejoin:miter;stroke-width:1.25;"/>
   </g>
   <g id="text_32">
    <!-- Loss for model with ancient samples -->
    <g style="fill:#262626;" transform="translate(554.106165 21.759375)scale(0.2 -0.2)">
     <use xlink:href="#ArialMT-4c"/>
     <use x="55.615234" xlink:href="#ArialMT-6f"/>
     <use x="111.230469" xlink:href="#ArialMT-73"/>
     <use x="161.230469" xlink:href="#ArialMT-73"/>
     <use x="211.230469" xlink:href="#ArialMT-20"/>
     <use x="239.013672" xlink:href="#ArialMT-66"/>
     <use x="266.796875" xlink:href="#ArialMT-6f"/>
     <use x="322.412109" xlink:href="#ArialMT-72"/>
     <use x="355.712891" xlink:href="#ArialMT-20"/>
     <use x="383.496094" xlink:href="#ArialMT-6d"/>
     <use x="466.796875" xlink:href="#ArialMT-6f"/>
     <use x="522.412109" xlink:href="#ArialMT-64"/>
     <use x="578.027344" xlink:href="#ArialMT-65"/>
     <use x="633.642578" xlink:href="#ArialMT-6c"/>
     <use x="655.859375" xlink:href="#ArialMT-20"/>
     <use x="683.642578" xlink:href="#ArialMT-77"/>
     <use x="755.859375" xlink:href="#ArialMT-69"/>
     <use x="778.076172" xlink:href="#ArialMT-74"/>
     <use x="805.859375" xlink:href="#ArialMT-68"/>
     <use x="861.474609" xlink:href="#ArialMT-20"/>
     <use x="889.257812" xlink:href="#ArialMT-61"/>
     <use x="944.873047" xlink:href="#ArialMT-6e"/>
     <use x="1000.488281" xlink:href="#ArialMT-63"/>
     <use x="1050.488281" xlink:href="#ArialMT-69"/>
     <use x="1072.705078" xlink:href="#ArialMT-65"/>
     <use x="1128.320312" xlink:href="#ArialMT-6e"/>
     <use x="1183.935547" xlink:href="#ArialMT-74"/>
     <use x="1211.71875" xlink:href="#ArialMT-20"/>
     <use x="1239.501953" xlink:href="#ArialMT-73"/>
     <use x="1289.501953" xlink:href="#ArialMT-61"/>
     <use x="1345.117188" xlink:href="#ArialMT-6d"/>
     <use x="1428.417969" xlink:href="#ArialMT-70"/>
     <use x="1484.033203" xlink:href="#ArialMT-6c"/>
     <use x="1506.25" xlink:href="#ArialMT-65"/>
     <use x="1561.865234" xlink:href="#ArialMT-73"/>
    </g>
   </g>
   <g id="legend_2">
    <g id="patch_13">
     <path d="M 820.421562 83.238906 
L 897.81 83.238906 
Q 900.01 83.238906 900.01 81.038906 
L 900.01 35.459375 
Q 900.01 33.259375 897.81 33.259375 
L 820.421562 33.259375 
Q 818.221562 33.259375 818.221562 35.459375 
L 818.221562 81.038906 
Q 818.221562 83.238906 820.421562 83.238906 
z
" style="fill:#ffffff;opacity:0.8;stroke:#cccccc;stroke-linejoin:miter;"/>
    </g>
    <g id="line2d_36">
     <path d="M 822.621562 41.682969 
L 844.621562 41.682969 
" style="fill:none;stroke:#4c72b0;stroke-linecap:round;stroke-width:1.5;"/>
    </g>
    <g id="line2d_37"/>
    <g id="text_33">
     <!-- 100 PCs -->
     <g style="fill:#262626;" transform="translate(853.421562 45.532969)scale(0.11 -0.11)">
      <use xlink:href="#ArialMT-31"/>
      <use x="55.615234" xlink:href="#ArialMT-30"/>
      <use x="111.230469" xlink:href="#ArialMT-30"/>
      <use x="166.845703" xlink:href="#ArialMT-20"/>
      <use x="194.628906" xlink:href="#ArialMT-50"/>
      <use x="261.328125" xlink:href="#ArialMT-43"/>
      <use x="333.544922" xlink:href="#ArialMT-73"/>
     </g>
    </g>
    <g id="line2d_38">
     <path d="M 822.621562 57.242812 
L 844.621562 57.242812 
" style="fill:none;stroke:#dd8452;stroke-linecap:round;stroke-width:1.5;"/>
    </g>
    <g id="line2d_39"/>
    <g id="text_34">
     <!-- 20 PCs -->
     <g style="fill:#262626;" transform="translate(853.421562 61.092812)scale(0.11 -0.11)">
      <use xlink:href="#ArialMT-32"/>
      <use x="55.615234" xlink:href="#ArialMT-30"/>
      <use x="111.230469" xlink:href="#ArialMT-20"/>
      <use x="139.013672" xlink:href="#ArialMT-50"/>
      <use x="205.712891" xlink:href="#ArialMT-43"/>
      <use x="277.929688" xlink:href="#ArialMT-73"/>
     </g>
    </g>
    <g id="line2d_40">
     <path d="M 822.621562 72.802656 
L 844.621562 72.802656 
" style="fill:none;stroke:#55a868;stroke-linecap:round;stroke-width:1.5;"/>
    </g>
    <g id="line2d_41"/>
    <g id="text_35">
     <!-- 2 PCs -->
     <g style="fill:#262626;" transform="translate(853.421562 76.652656)scale(0.11 -0.11)">
      <use xlink:href="#ArialMT-32"/>
      <use x="55.615234" xlink:href="#ArialMT-20"/>
      <use x="83.398438" xlink:href="#ArialMT-50"/>
      <use x="150.097656" xlink:href="#ArialMT-43"/>
      <use x="222.314453" xlink:href="#ArialMT-73"/>
     </g>
    </g>
   </g>
  </g>
 </g>
 <defs>
  <clipPath id="pefa0287975">
   <rect height="271.8" width="380.454545" x="68.51" y="27.759375"/>
  </clipPath>
  <clipPath id="p70d8834a5f">
   <rect height="271.8" width="380.454545" x="525.055455" y="27.759375"/>
  </clipPath>
 </defs>
</svg>
