<?xml version="1.0" encoding="utf-8" standalone="no"?>
<!DOCTYPE svg PUBLIC "-//W3C//DTD SVG 1.1//EN"
  "http://www.w3.org/Graphics/SVG/1.1/DTD/svg11.dtd">
<svg height="351.353437pt" version="1.1" viewBox="0 0 903.8125 351.353437" width="903.8125pt" xmlns="http://www.w3.org/2000/svg" xmlns:xlink="http://www.w3.org/1999/xlink">
 <metadata>
  <rdf:RDF xmlns:cc="http://creativecommons.org/ns#" xmlns:dc="http://purl.org/dc/elements/1.1/" xmlns:rdf="http://www.w3.org/1999/02/22-rdf-syntax-ns#">
   <cc:Work>
    <dc:type rdf:resource="http://purl.org/dc/dcmitype/StillImage"/>
    <dc:date>2021-12-02T21:12:27.166441</dc:date>
    <dc:format>image/svg+xml</dc:format>
    <dc:creator>
     <cc:Agent>
      <dc:title>Matplotlib v3.4.3, https://matplotlib.org/</dc:title>
     </cc:Agent>
    </dc:creator>
   </cc:Work>
  </rdf:RDF>
 </metadata>
 <defs>
  <style type="text/css">*{stroke-linecap:butt;stroke-linejoin:round;}</style>
 </defs>
 <g id="figure_1">
  <g id="patch_1">
   <path d="M 0 351.353437 
L 903.8125 351.353437 
L 903.8125 0 
L 0 0 
z
" style="fill:#ffffff;"/>
  </g>
  <g id="axes_1">
   <g id="patch_2">
    <path d="M 59.6125 299.559375 
L 440.067045 299.559375 
L 440.067045 27.759375 
L 59.6125 27.759375 
z
" style="fill:#ffffff;"/>
   </g>
   <g id="matplotlib.axis_1">
    <g id="xtick_1">
     <g id="line2d_1">
      <path clip-path="url(#p3bf613b262)" d="M 76.905888 299.559375 
L 76.905888 27.759375 
" style="fill:none;stroke:#cccccc;stroke-linecap:round;"/>
     </g>
     <g id="text_1">
      <!-- 0 -->
      <g style="fill:#262626;" transform="translate(72.457138 320.511875)scale(0.16 -0.16)">
       <defs>
        <path d="M 266 2259 
Q 266 3072 433 3567 
Q 600 4063 929 4331 
Q 1259 4600 1759 4600 
Q 2128 4600 2406 4451 
Q 2684 4303 2865 4023 
Q 3047 3744 3150 3342 
Q 3253 2941 3253 2259 
Q 3253 1453 3087 958 
Q 2922 463 2592 192 
Q 2263 -78 1759 -78 
Q 1097 -78 719 397 
Q 266 969 266 2259 
z
M 844 2259 
Q 844 1131 1108 757 
Q 1372 384 1759 384 
Q 2147 384 2411 759 
Q 2675 1134 2675 2259 
Q 2675 3391 2411 3762 
Q 2147 4134 1753 4134 
Q 1366 4134 1134 3806 
Q 844 3388 844 2259 
z
" id="ArialMT-30" transform="scale(0.015625)"/>
       </defs>
       <use xlink:href="#ArialMT-30"/>
      </g>
     </g>
    </g>
    <g id="xtick_2">
     <g id="line2d_2">
      <path clip-path="url(#p3bf613b262)" d="M 163.807338 299.559375 
L 163.807338 27.759375 
" style="fill:none;stroke:#cccccc;stroke-linecap:round;"/>
     </g>
     <g id="text_2">
      <!-- 50 -->
      <g style="fill:#262626;" transform="translate(154.909838 320.511875)scale(0.16 -0.16)">
       <defs>
        <path d="M 266 1200 
L 856 1250 
Q 922 819 1161 601 
Q 1400 384 1738 384 
Q 2144 384 2425 690 
Q 2706 997 2706 1503 
Q 2706 1984 2436 2262 
Q 2166 2541 1728 2541 
Q 1456 2541 1237 2417 
Q 1019 2294 894 2097 
L 366 2166 
L 809 4519 
L 3088 4519 
L 3088 3981 
L 1259 3981 
L 1013 2750 
Q 1425 3038 1878 3038 
Q 2478 3038 2890 2622 
Q 3303 2206 3303 1553 
Q 3303 931 2941 478 
Q 2500 -78 1738 -78 
Q 1113 -78 717 272 
Q 322 622 266 1200 
z
" id="ArialMT-35" transform="scale(0.015625)"/>
       </defs>
       <use xlink:href="#ArialMT-35"/>
       <use x="55.615234" xlink:href="#ArialMT-30"/>
      </g>
     </g>
    </g>
    <g id="xtick_3">
     <g id="line2d_3">
      <path clip-path="url(#p3bf613b262)" d="M 250.708787 299.559375 
L 250.708787 27.759375 
" style="fill:none;stroke:#cccccc;stroke-linecap:round;"/>
     </g>
     <g id="text_3">
      <!-- 100 -->
      <g style="fill:#262626;" transform="translate(237.362537 320.511875)scale(0.16 -0.16)">
       <defs>
        <path d="M 2384 0 
L 1822 0 
L 1822 3584 
Q 1619 3391 1289 3197 
Q 959 3003 697 2906 
L 697 3450 
Q 1169 3672 1522 3987 
Q 1875 4303 2022 4600 
L 2384 4600 
L 2384 0 
z
" id="ArialMT-31" transform="scale(0.015625)"/>
       </defs>
       <use xlink:href="#ArialMT-31"/>
       <use x="55.615234" xlink:href="#ArialMT-30"/>
       <use x="111.230469" xlink:href="#ArialMT-30"/>
      </g>
     </g>
    </g>
    <g id="xtick_4">
     <g id="line2d_4">
      <path clip-path="url(#p3bf613b262)" d="M 337.610237 299.559375 
L 337.610237 27.759375 
" style="fill:none;stroke:#cccccc;stroke-linecap:round;"/>
     </g>
     <g id="text_4">
      <!-- 150 -->
      <g style="fill:#262626;" transform="translate(324.263987 320.511875)scale(0.16 -0.16)">
       <use xlink:href="#ArialMT-31"/>
       <use x="55.615234" xlink:href="#ArialMT-35"/>
       <use x="111.230469" xlink:href="#ArialMT-30"/>
      </g>
     </g>
    </g>
    <g id="xtick_5">
     <g id="line2d_5">
      <path clip-path="url(#p3bf613b262)" d="M 424.511686 299.559375 
L 424.511686 27.759375 
" style="fill:none;stroke:#cccccc;stroke-linecap:round;"/>
     </g>
     <g id="text_5">
      <!-- 200 -->
      <g style="fill:#262626;" transform="translate(411.165436 320.511875)scale(0.16 -0.16)">
       <defs>
        <path d="M 3222 541 
L 3222 0 
L 194 0 
Q 188 203 259 391 
Q 375 700 629 1000 
Q 884 1300 1366 1694 
Q 2113 2306 2375 2664 
Q 2638 3022 2638 3341 
Q 2638 3675 2398 3904 
Q 2159 4134 1775 4134 
Q 1369 4134 1125 3890 
Q 881 3647 878 3216 
L 300 3275 
Q 359 3922 746 4261 
Q 1134 4600 1788 4600 
Q 2447 4600 2831 4234 
Q 3216 3869 3216 3328 
Q 3216 3053 3103 2787 
Q 2991 2522 2730 2228 
Q 2469 1934 1863 1422 
Q 1356 997 1212 845 
Q 1069 694 975 541 
L 3222 541 
z
" id="ArialMT-32" transform="scale(0.015625)"/>
       </defs>
       <use xlink:href="#ArialMT-32"/>
       <use x="55.615234" xlink:href="#ArialMT-30"/>
       <use x="111.230469" xlink:href="#ArialMT-30"/>
      </g>
     </g>
    </g>
    <g id="text_6">
     <!-- Epochs -->
     <g style="fill:#262626;" transform="translate(219.82196 340.575938)scale(0.18 -0.18)">
      <defs>
       <path d="M 506 0 
L 506 4581 
L 3819 4581 
L 3819 4041 
L 1113 4041 
L 1113 2638 
L 3647 2638 
L 3647 2100 
L 1113 2100 
L 1113 541 
L 3925 541 
L 3925 0 
L 506 0 
z
" id="ArialMT-45" transform="scale(0.015625)"/>
       <path d="M 422 -1272 
L 422 3319 
L 934 3319 
L 934 2888 
Q 1116 3141 1344 3267 
Q 1572 3394 1897 3394 
Q 2322 3394 2647 3175 
Q 2972 2956 3137 2557 
Q 3303 2159 3303 1684 
Q 3303 1175 3120 767 
Q 2938 359 2589 142 
Q 2241 -75 1856 -75 
Q 1575 -75 1351 44 
Q 1128 163 984 344 
L 984 -1272 
L 422 -1272 
z
M 931 1641 
Q 931 1000 1190 694 
Q 1450 388 1819 388 
Q 2194 388 2461 705 
Q 2728 1022 2728 1688 
Q 2728 2322 2467 2637 
Q 2206 2953 1844 2953 
Q 1484 2953 1207 2617 
Q 931 2281 931 1641 
z
" id="ArialMT-70" transform="scale(0.015625)"/>
       <path d="M 213 1659 
Q 213 2581 725 3025 
Q 1153 3394 1769 3394 
Q 2453 3394 2887 2945 
Q 3322 2497 3322 1706 
Q 3322 1066 3130 698 
Q 2938 331 2570 128 
Q 2203 -75 1769 -75 
Q 1072 -75 642 372 
Q 213 819 213 1659 
z
M 791 1659 
Q 791 1022 1069 705 
Q 1347 388 1769 388 
Q 2188 388 2466 706 
Q 2744 1025 2744 1678 
Q 2744 2294 2464 2611 
Q 2184 2928 1769 2928 
Q 1347 2928 1069 2612 
Q 791 2297 791 1659 
z
" id="ArialMT-6f" transform="scale(0.015625)"/>
       <path d="M 2588 1216 
L 3141 1144 
Q 3050 572 2676 248 
Q 2303 -75 1759 -75 
Q 1078 -75 664 370 
Q 250 816 250 1647 
Q 250 2184 428 2587 
Q 606 2991 970 3192 
Q 1334 3394 1763 3394 
Q 2303 3394 2647 3120 
Q 2991 2847 3088 2344 
L 2541 2259 
Q 2463 2594 2264 2762 
Q 2066 2931 1784 2931 
Q 1359 2931 1093 2626 
Q 828 2322 828 1663 
Q 828 994 1084 691 
Q 1341 388 1753 388 
Q 2084 388 2306 591 
Q 2528 794 2588 1216 
z
" id="ArialMT-63" transform="scale(0.015625)"/>
       <path d="M 422 0 
L 422 4581 
L 984 4581 
L 984 2938 
Q 1378 3394 1978 3394 
Q 2347 3394 2619 3248 
Q 2891 3103 3008 2847 
Q 3125 2591 3125 2103 
L 3125 0 
L 2563 0 
L 2563 2103 
Q 2563 2525 2380 2717 
Q 2197 2909 1863 2909 
Q 1613 2909 1392 2779 
Q 1172 2650 1078 2428 
Q 984 2206 984 1816 
L 984 0 
L 422 0 
z
" id="ArialMT-68" transform="scale(0.015625)"/>
       <path d="M 197 991 
L 753 1078 
Q 800 744 1014 566 
Q 1228 388 1613 388 
Q 2000 388 2187 545 
Q 2375 703 2375 916 
Q 2375 1106 2209 1216 
Q 2094 1291 1634 1406 
Q 1016 1563 777 1677 
Q 538 1791 414 1992 
Q 291 2194 291 2438 
Q 291 2659 392 2848 
Q 494 3038 669 3163 
Q 800 3259 1026 3326 
Q 1253 3394 1513 3394 
Q 1903 3394 2198 3281 
Q 2494 3169 2634 2976 
Q 2775 2784 2828 2463 
L 2278 2388 
Q 2241 2644 2061 2787 
Q 1881 2931 1553 2931 
Q 1166 2931 1000 2803 
Q 834 2675 834 2503 
Q 834 2394 903 2306 
Q 972 2216 1119 2156 
Q 1203 2125 1616 2013 
Q 2213 1853 2448 1751 
Q 2684 1650 2818 1456 
Q 2953 1263 2953 975 
Q 2953 694 2789 445 
Q 2625 197 2315 61 
Q 2006 -75 1616 -75 
Q 969 -75 630 194 
Q 291 463 197 991 
z
" id="ArialMT-73" transform="scale(0.015625)"/>
      </defs>
      <use xlink:href="#ArialMT-45"/>
      <use x="66.699219" xlink:href="#ArialMT-70"/>
      <use x="122.314453" xlink:href="#ArialMT-6f"/>
      <use x="177.929688" xlink:href="#ArialMT-63"/>
      <use x="227.929688" xlink:href="#ArialMT-68"/>
      <use x="283.544922" xlink:href="#ArialMT-73"/>
     </g>
    </g>
   </g>
   <g id="matplotlib.axis_2">
    <g id="ytick_1">
     <g id="line2d_6">
      <path clip-path="url(#p3bf613b262)" d="M 59.6125 290.228667 
L 440.067045 290.228667 
" style="fill:none;stroke:#cccccc;stroke-linecap:round;"/>
     </g>
     <g id="text_7">
      <!-- 0.2 -->
      <g style="fill:#262626;" transform="translate(27.8725 295.954917)scale(0.16 -0.16)">
       <defs>
        <path d="M 581 0 
L 581 641 
L 1222 641 
L 1222 0 
L 581 0 
z
" id="ArialMT-2e" transform="scale(0.015625)"/>
       </defs>
       <use xlink:href="#ArialMT-30"/>
       <use x="55.615234" xlink:href="#ArialMT-2e"/>
       <use x="83.398438" xlink:href="#ArialMT-32"/>
      </g>
     </g>
    </g>
    <g id="ytick_2">
     <g id="line2d_7">
      <path clip-path="url(#p3bf613b262)" d="M 59.6125 223.272215 
L 440.067045 223.272215 
" style="fill:none;stroke:#cccccc;stroke-linecap:round;"/>
     </g>
     <g id="text_8">
      <!-- 0.4 -->
      <g style="fill:#262626;" transform="translate(27.8725 228.998465)scale(0.16 -0.16)">
       <defs>
        <path d="M 2069 0 
L 2069 1097 
L 81 1097 
L 81 1613 
L 2172 4581 
L 2631 4581 
L 2631 1613 
L 3250 1613 
L 3250 1097 
L 2631 1097 
L 2631 0 
L 2069 0 
z
M 2069 1613 
L 2069 3678 
L 634 1613 
L 2069 1613 
z
" id="ArialMT-34" transform="scale(0.015625)"/>
       </defs>
       <use xlink:href="#ArialMT-30"/>
       <use x="55.615234" xlink:href="#ArialMT-2e"/>
       <use x="83.398438" xlink:href="#ArialMT-34"/>
      </g>
     </g>
    </g>
    <g id="ytick_3">
     <g id="line2d_8">
      <path clip-path="url(#p3bf613b262)" d="M 59.6125 156.315762 
L 440.067045 156.315762 
" style="fill:none;stroke:#cccccc;stroke-linecap:round;"/>
     </g>
     <g id="text_9">
      <!-- 0.6 -->
      <g style="fill:#262626;" transform="translate(27.8725 162.042012)scale(0.16 -0.16)">
       <defs>
        <path d="M 3184 3459 
L 2625 3416 
Q 2550 3747 2413 3897 
Q 2184 4138 1850 4138 
Q 1581 4138 1378 3988 
Q 1113 3794 959 3422 
Q 806 3050 800 2363 
Q 1003 2672 1297 2822 
Q 1591 2972 1913 2972 
Q 2475 2972 2870 2558 
Q 3266 2144 3266 1488 
Q 3266 1056 3080 686 
Q 2894 316 2569 119 
Q 2244 -78 1831 -78 
Q 1128 -78 684 439 
Q 241 956 241 2144 
Q 241 3472 731 4075 
Q 1159 4600 1884 4600 
Q 2425 4600 2770 4297 
Q 3116 3994 3184 3459 
z
M 888 1484 
Q 888 1194 1011 928 
Q 1134 663 1356 523 
Q 1578 384 1822 384 
Q 2178 384 2434 671 
Q 2691 959 2691 1453 
Q 2691 1928 2437 2201 
Q 2184 2475 1800 2475 
Q 1419 2475 1153 2201 
Q 888 1928 888 1484 
z
" id="ArialMT-36" transform="scale(0.015625)"/>
       </defs>
       <use xlink:href="#ArialMT-30"/>
       <use x="55.615234" xlink:href="#ArialMT-2e"/>
       <use x="83.398438" xlink:href="#ArialMT-36"/>
      </g>
     </g>
    </g>
    <g id="ytick_4">
     <g id="line2d_9">
      <path clip-path="url(#p3bf613b262)" d="M 59.6125 89.359309 
L 440.067045 89.359309 
" style="fill:none;stroke:#cccccc;stroke-linecap:round;"/>
     </g>
     <g id="text_10">
      <!-- 0.8 -->
      <g style="fill:#262626;" transform="translate(27.8725 95.085559)scale(0.16 -0.16)">
       <defs>
        <path d="M 1131 2484 
Q 781 2613 612 2850 
Q 444 3088 444 3419 
Q 444 3919 803 4259 
Q 1163 4600 1759 4600 
Q 2359 4600 2725 4251 
Q 3091 3903 3091 3403 
Q 3091 3084 2923 2848 
Q 2756 2613 2416 2484 
Q 2838 2347 3058 2040 
Q 3278 1734 3278 1309 
Q 3278 722 2862 322 
Q 2447 -78 1769 -78 
Q 1091 -78 675 323 
Q 259 725 259 1325 
Q 259 1772 486 2073 
Q 713 2375 1131 2484 
z
M 1019 3438 
Q 1019 3113 1228 2906 
Q 1438 2700 1772 2700 
Q 2097 2700 2305 2904 
Q 2513 3109 2513 3406 
Q 2513 3716 2298 3927 
Q 2084 4138 1766 4138 
Q 1444 4138 1231 3931 
Q 1019 3725 1019 3438 
z
M 838 1322 
Q 838 1081 952 856 
Q 1066 631 1291 507 
Q 1516 384 1775 384 
Q 2178 384 2440 643 
Q 2703 903 2703 1303 
Q 2703 1709 2433 1975 
Q 2163 2241 1756 2241 
Q 1359 2241 1098 1978 
Q 838 1716 838 1322 
z
" id="ArialMT-38" transform="scale(0.015625)"/>
       </defs>
       <use xlink:href="#ArialMT-30"/>
       <use x="55.615234" xlink:href="#ArialMT-2e"/>
       <use x="83.398438" xlink:href="#ArialMT-38"/>
      </g>
     </g>
    </g>
    <g id="text_11">
     <!-- Accuracy -->
     <g style="fill:#262626;" transform="translate(20.084063 200.669062)rotate(-90)scale(0.18 -0.18)">
      <defs>
       <path d="M -9 0 
L 1750 4581 
L 2403 4581 
L 4278 0 
L 3588 0 
L 3053 1388 
L 1138 1388 
L 634 0 
L -9 0 
z
M 1313 1881 
L 2866 1881 
L 2388 3150 
Q 2169 3728 2063 4100 
Q 1975 3659 1816 3225 
L 1313 1881 
z
" id="ArialMT-41" transform="scale(0.015625)"/>
       <path d="M 2597 0 
L 2597 488 
Q 2209 -75 1544 -75 
Q 1250 -75 995 37 
Q 741 150 617 320 
Q 494 491 444 738 
Q 409 903 409 1263 
L 409 3319 
L 972 3319 
L 972 1478 
Q 972 1038 1006 884 
Q 1059 663 1231 536 
Q 1403 409 1656 409 
Q 1909 409 2131 539 
Q 2353 669 2445 892 
Q 2538 1116 2538 1541 
L 2538 3319 
L 3100 3319 
L 3100 0 
L 2597 0 
z
" id="ArialMT-75" transform="scale(0.015625)"/>
       <path d="M 416 0 
L 416 3319 
L 922 3319 
L 922 2816 
Q 1116 3169 1280 3281 
Q 1444 3394 1641 3394 
Q 1925 3394 2219 3213 
L 2025 2691 
Q 1819 2813 1613 2813 
Q 1428 2813 1281 2702 
Q 1134 2591 1072 2394 
Q 978 2094 978 1738 
L 978 0 
L 416 0 
z
" id="ArialMT-72" transform="scale(0.015625)"/>
       <path d="M 2588 409 
Q 2275 144 1986 34 
Q 1697 -75 1366 -75 
Q 819 -75 525 192 
Q 231 459 231 875 
Q 231 1119 342 1320 
Q 453 1522 633 1644 
Q 813 1766 1038 1828 
Q 1203 1872 1538 1913 
Q 2219 1994 2541 2106 
Q 2544 2222 2544 2253 
Q 2544 2597 2384 2738 
Q 2169 2928 1744 2928 
Q 1347 2928 1158 2789 
Q 969 2650 878 2297 
L 328 2372 
Q 403 2725 575 2942 
Q 747 3159 1072 3276 
Q 1397 3394 1825 3394 
Q 2250 3394 2515 3294 
Q 2781 3194 2906 3042 
Q 3031 2891 3081 2659 
Q 3109 2516 3109 2141 
L 3109 1391 
Q 3109 606 3145 398 
Q 3181 191 3288 0 
L 2700 0 
Q 2613 175 2588 409 
z
M 2541 1666 
Q 2234 1541 1622 1453 
Q 1275 1403 1131 1340 
Q 988 1278 909 1158 
Q 831 1038 831 891 
Q 831 666 1001 516 
Q 1172 366 1500 366 
Q 1825 366 2078 508 
Q 2331 650 2450 897 
Q 2541 1088 2541 1459 
L 2541 1666 
z
" id="ArialMT-61" transform="scale(0.015625)"/>
       <path d="M 397 -1278 
L 334 -750 
Q 519 -800 656 -800 
Q 844 -800 956 -737 
Q 1069 -675 1141 -563 
Q 1194 -478 1313 -144 
Q 1328 -97 1363 -6 
L 103 3319 
L 709 3319 
L 1400 1397 
Q 1534 1031 1641 628 
Q 1738 1016 1872 1384 
L 2581 3319 
L 3144 3319 
L 1881 -56 
Q 1678 -603 1566 -809 
Q 1416 -1088 1222 -1217 
Q 1028 -1347 759 -1347 
Q 597 -1347 397 -1278 
z
" id="ArialMT-79" transform="scale(0.015625)"/>
      </defs>
      <use xlink:href="#ArialMT-41"/>
      <use x="66.699219" xlink:href="#ArialMT-63"/>
      <use x="116.699219" xlink:href="#ArialMT-63"/>
      <use x="166.699219" xlink:href="#ArialMT-75"/>
      <use x="222.314453" xlink:href="#ArialMT-72"/>
      <use x="255.615234" xlink:href="#ArialMT-61"/>
      <use x="311.230469" xlink:href="#ArialMT-63"/>
      <use x="361.230469" xlink:href="#ArialMT-79"/>
     </g>
    </g>
   </g>
   <g id="line2d_10">
    <path clip-path="url(#p3bf613b262)" d="M 76.905888 287.20483 
L 78.643917 84.607561 
L 82.119975 66.032543 
L 83.858004 59.120915 
L 85.596033 67.328473 
L 87.334062 57.824985 
L 89.072091 51.777291 
L 90.81012 52.641245 
L 92.548149 50.913338 
L 94.286178 58.688939 
L 96.024207 61.280799 
L 97.762236 47.457524 
L 99.500265 45.297641 
L 101.238294 48.753455 
L 102.976323 55.233125 
L 104.714352 51.777291 
L 106.452381 49.617408 
L 108.19041 48.753455 
L 109.928439 51.777291 
L 111.666468 58.256962 
L 113.404497 55.233125 
L 115.142526 44.865664 
L 116.880555 51.777291 
L 118.618584 60.848822 
L 120.356613 44.865664 
L 122.094642 46.593571 
L 125.5707 45.729618 
L 127.308729 47.457524 
L 129.046758 45.297641 
L 130.784787 47.025548 
L 132.522816 45.297641 
L 134.260845 42.705781 
L 135.998874 50.481361 
L 137.736903 43.569734 
L 139.474932 47.457524 
L 141.212961 50.481361 
L 142.95099 44.433687 
L 144.689019 43.569734 
L 146.427048 50.049385 
L 148.165077 43.569734 
L 149.903106 46.161594 
L 151.641135 48.321478 
L 153.379164 43.569734 
L 155.117193 48.753455 
L 156.855222 44.001711 
L 158.593251 47.025548 
L 160.33128 44.865664 
L 162.069309 49.617408 
L 163.807338 46.161594 
L 165.545367 49.185431 
L 167.283396 48.753455 
L 169.021425 44.865664 
L 170.759454 49.185431 
L 172.497483 50.049385 
L 174.235512 46.161594 
L 175.973541 48.753455 
L 177.71157 45.729618 
L 179.449599 48.321478 
L 181.187628 45.297641 
L 182.925657 41.841827 
L 184.663686 43.569734 
L 186.401715 44.001711 
L 188.139744 48.321478 
L 189.877773 47.457524 
L 191.615802 44.865664 
L 193.353831 43.569734 
L 195.09186 45.729618 
L 196.829889 44.433687 
L 198.567918 47.457524 
L 200.305947 44.001711 
L 202.043976 45.297641 
L 203.782005 45.297641 
L 205.520034 43.569734 
L 207.258063 47.025548 
L 208.996092 48.321478 
L 210.73412 43.569734 
L 212.472149 44.865664 
L 214.210178 48.753455 
L 215.948207 42.273804 
L 217.686236 44.433687 
L 219.424265 44.865664 
L 221.162294 44.865664 
L 222.900323 47.457524 
L 224.638352 43.137757 
L 226.376381 43.137757 
L 228.11441 44.433687 
L 229.852439 53.073222 
L 231.590468 41.409851 
L 233.328497 46.593571 
L 235.066526 44.865664 
L 238.542584 43.137757 
L 240.280613 43.569734 
L 242.018642 47.889501 
L 243.756671 49.617408 
L 245.4947 47.025548 
L 247.232729 46.161594 
L 248.970758 53.073222 
L 250.708787 47.025548 
L 252.446816 50.913338 
L 254.184845 42.705781 
L 255.922874 45.297641 
L 257.660903 44.433687 
L 259.398932 44.433687 
L 261.136961 41.409851 
L 262.87499 45.729618 
L 266.351048 44.001711 
L 268.089077 47.025548 
L 269.827106 45.297641 
L 271.565135 42.705781 
L 273.303164 44.433687 
L 275.041193 41.841827 
L 276.779222 52.641245 
L 278.517251 46.161594 
L 280.25528 42.705781 
L 281.993309 42.705781 
L 283.731338 46.593571 
L 285.469367 41.409851 
L 287.207396 48.753455 
L 288.945425 43.137757 
L 290.683454 41.841827 
L 292.421483 45.297641 
L 294.159512 44.865664 
L 295.897541 43.569734 
L 297.63557 43.569734 
L 299.373599 45.297641 
L 301.111628 43.137757 
L 302.849657 47.025548 
L 304.587686 43.137757 
L 306.325715 46.161594 
L 308.063744 50.049385 
L 309.801773 47.457524 
L 311.539802 41.841827 
L 313.277831 44.001711 
L 315.01586 42.273804 
L 316.753889 42.273804 
L 318.491918 43.137757 
L 320.229947 40.11392 
L 321.967976 40.545897 
L 323.706005 43.569734 
L 325.444034 43.569734 
L 327.182063 44.001711 
L 328.920092 43.569734 
L 330.658121 43.569734 
L 334.134179 42.705781 
L 337.610237 45.297641 
L 339.348266 43.137757 
L 341.086295 41.409851 
L 342.824324 40.977874 
L 344.562353 43.137757 
L 346.300382 41.841827 
L 348.038411 42.273804 
L 349.77644 43.569734 
L 351.514469 40.977874 
L 353.252498 47.025548 
L 354.990526 44.433687 
L 356.728555 43.137757 
L 358.466584 45.729618 
L 360.204613 43.137757 
L 361.942642 45.729618 
L 363.680671 43.569734 
L 365.4187 41.841827 
L 367.156729 46.161594 
L 368.894758 40.545897 
L 370.632787 43.137757 
L 372.370816 45.297641 
L 374.108845 42.273804 
L 375.846874 49.185431 
L 377.584903 50.913338 
L 379.322932 47.025548 
L 381.060961 42.705781 
L 382.79899 41.409851 
L 384.537019 45.729618 
L 386.275048 42.273804 
L 388.013077 44.001711 
L 389.751106 42.705781 
L 391.489135 40.977874 
L 393.227164 40.977874 
L 394.965193 45.297641 
L 396.703222 44.865664 
L 398.441251 47.889501 
L 400.17928 43.569734 
L 401.917309 44.001711 
L 403.655338 48.321478 
L 405.393367 42.705781 
L 407.131396 44.433687 
L 408.869425 41.841827 
L 410.607454 42.705781 
L 412.345483 44.433687 
L 414.083512 49.617408 
L 415.821541 42.705781 
L 417.55957 40.545897 
L 419.297599 44.001711 
L 422.773657 44.001711 
L 422.773657 44.001711 
" style="fill:none;stroke:#4c72b0;stroke-linecap:round;stroke-width:1.5;"/>
   </g>
   <g id="line2d_11">
    <path clip-path="url(#p3bf613b262)" d="M 76.905888 198.217544 
L 78.643917 94.111048 
L 80.381946 68.192426 
L 82.119975 61.280799 
L 83.858004 66.032543 
L 85.596033 64.304636 
L 87.334062 61.712776 
L 89.072091 66.896496 
L 90.81012 58.688939 
L 92.548149 59.120915 
L 94.286178 57.824985 
L 96.024207 63.008706 
L 97.762236 51.777291 
L 99.500265 66.032543 
L 101.238294 57.393009 
L 102.976323 59.984869 
L 104.714352 58.688939 
L 106.452381 65.168589 
L 108.19041 54.801148 
L 109.928439 58.688939 
L 111.666468 58.256962 
L 113.404497 57.393009 
L 115.142526 62.144752 
L 116.880555 54.801148 
L 118.618584 57.824985 
L 120.356613 52.209268 
L 122.094642 56.529055 
L 123.832671 54.369172 
L 125.5707 56.097078 
L 127.308729 49.617408 
L 129.046758 53.937195 
L 130.784787 53.073222 
L 132.522816 53.937195 
L 134.260845 53.073222 
L 135.998874 60.848822 
L 137.736903 51.777291 
L 139.474932 53.937195 
L 141.212961 62.144752 
L 142.95099 55.233125 
L 144.689019 52.209268 
L 146.427048 49.617408 
L 148.165077 53.505198 
L 149.903106 55.665102 
L 151.641135 53.505198 
L 153.379164 47.889501 
L 155.117193 55.233125 
L 156.855222 50.913338 
L 158.593251 51.777291 
L 160.33128 50.481361 
L 162.069309 53.937195 
L 163.807338 53.505198 
L 165.545367 52.641245 
L 167.283396 50.049385 
L 169.021425 50.481361 
L 170.759454 50.481361 
L 172.497483 52.209268 
L 174.235512 53.073222 
L 175.973541 52.641245 
L 177.71157 51.345315 
L 179.449599 51.777291 
L 181.187628 50.049385 
L 182.925657 51.777291 
L 184.663686 55.233125 
L 186.401715 49.185431 
L 188.139744 45.729618 
L 189.877773 50.481361 
L 191.615802 52.209268 
L 195.09186 49.617408 
L 196.829889 48.753455 
L 198.567918 52.641245 
L 200.305947 50.049385 
L 202.043976 52.641245 
L 203.782005 53.073222 
L 205.520034 53.073222 
L 207.258063 50.049385 
L 208.996092 51.777291 
L 210.73412 48.321478 
L 212.472149 50.049385 
L 214.210178 51.345315 
L 215.948207 48.321478 
L 217.686236 49.185431 
L 219.424265 53.937195 
L 221.162294 50.049385 
L 222.900323 53.073222 
L 224.638352 46.593571 
L 226.376381 48.753455 
L 228.11441 49.185431 
L 229.852439 46.161594 
L 231.590468 53.937195 
L 233.328497 48.321478 
L 235.066526 46.593571 
L 236.804555 47.457524 
L 238.542584 50.049385 
L 240.280613 46.161594 
L 242.018642 50.481361 
L 243.756671 46.593571 
L 245.4947 51.345315 
L 247.232729 47.025548 
L 250.708787 49.617408 
L 252.446816 45.729618 
L 254.184845 51.777291 
L 255.922874 50.481361 
L 257.660903 45.729618 
L 259.398932 52.209268 
L 261.136961 45.729618 
L 264.613019 48.321478 
L 266.351048 50.481361 
L 268.089077 48.321478 
L 269.827106 50.481361 
L 271.565135 53.073222 
L 273.303164 48.321478 
L 276.779222 49.185431 
L 278.517251 50.049385 
L 280.25528 46.593571 
L 281.993309 48.321478 
L 283.731338 47.457524 
L 285.469367 51.777291 
L 287.207396 46.593571 
L 288.945425 49.185431 
L 290.683454 46.161594 
L 292.421483 50.049385 
L 294.159512 49.185431 
L 295.897541 47.025548 
L 297.63557 47.025548 
L 299.373599 47.457524 
L 301.111628 48.321478 
L 302.849657 49.617408 
L 304.587686 46.161594 
L 309.801773 48.753455 
L 311.539802 47.457524 
L 313.277831 53.505198 
L 315.01586 47.457524 
L 316.753889 47.457524 
L 318.491918 46.161594 
L 320.229947 47.457524 
L 321.967976 48.321478 
L 323.706005 50.049385 
L 325.444034 50.913338 
L 327.182063 45.729618 
L 328.920092 50.913338 
L 330.658121 45.297641 
L 332.39615 49.617408 
L 334.134179 48.753455 
L 335.872208 45.729618 
L 337.610237 49.617408 
L 339.348266 50.049385 
L 341.086295 45.297641 
L 342.824324 50.481361 
L 344.562353 45.729618 
L 346.300382 50.481361 
L 348.038411 48.753455 
L 349.77644 50.481361 
L 351.514469 47.889501 
L 353.252498 50.049385 
L 354.990526 47.889501 
L 356.728555 42.705781 
L 358.466584 51.777291 
L 360.204613 47.889501 
L 361.942642 47.457524 
L 363.680671 50.913338 
L 365.4187 48.321478 
L 367.156729 50.913338 
L 368.894758 53.073222 
L 370.632787 51.777291 
L 372.370816 51.345315 
L 374.108845 46.161594 
L 375.846874 52.209268 
L 377.584903 49.617408 
L 379.322932 49.185431 
L 381.060961 44.001711 
L 382.79899 47.457524 
L 384.537019 48.321478 
L 386.275048 50.913338 
L 388.013077 46.161594 
L 389.751106 47.025548 
L 391.489135 46.161594 
L 393.227164 47.025548 
L 394.965193 48.753455 
L 396.703222 49.185431 
L 398.441251 52.641245 
L 400.17928 46.593571 
L 401.917309 44.865664 
L 403.655338 47.889501 
L 405.393367 49.617408 
L 407.131396 50.049385 
L 408.869425 51.345315 
L 410.607454 48.753455 
L 412.345483 51.345315 
L 414.083512 46.593571 
L 415.821541 49.185431 
L 417.55957 47.025548 
L 419.297599 47.457524 
L 421.035628 45.297641 
L 422.773657 53.505198 
L 422.773657 53.505198 
" style="fill:none;stroke:#dd8452;stroke-linecap:round;stroke-width:1.5;"/>
   </g>
   <g id="line2d_12">
    <path clip-path="url(#p3bf613b262)" d="M 76.905888 212.904762 
L 78.643917 127.373294 
L 80.381946 121.757597 
L 83.858004 122.621551 
L 85.596033 114.413973 
L 87.334062 112.25409 
L 89.072091 116.573877 
L 90.81012 112.25409 
L 92.548149 118.73376 
L 94.286178 112.686067 
L 96.024207 111.390136 
L 97.762236 113.55002 
L 99.500265 108.798276 
L 101.238294 110.094206 
L 102.976323 107.502346 
L 104.714352 107.070369 
L 106.452381 107.934323 
L 108.19041 113.55002 
L 109.928439 109.230253 
L 111.666468 108.798276 
L 113.404497 111.822113 
L 115.142526 104.046532 
L 116.880555 107.502346 
L 118.618584 108.3663 
L 120.356613 105.774439 
L 122.094642 108.798276 
L 123.832671 106.206416 
L 125.5707 110.094206 
L 127.308729 104.910486 
L 129.046758 107.934323 
L 130.784787 105.774439 
L 132.522816 105.774439 
L 134.260845 107.502346 
L 135.998874 104.910486 
L 137.736903 103.614556 
L 139.474932 109.230253 
L 141.212961 107.070369 
L 142.95099 104.046532 
L 144.689019 103.182579 
L 146.427048 103.182579 
L 148.165077 103.614556 
L 149.903106 108.798276 
L 151.641135 106.638393 
L 153.379164 105.342463 
L 155.117193 106.638393 
L 156.855222 106.206416 
L 158.593251 107.934323 
L 160.33128 101.886649 
L 162.069309 104.478509 
L 163.807338 102.318626 
L 165.545367 105.342463 
L 167.283396 101.886649 
L 169.021425 101.022696 
L 170.759454 103.614556 
L 172.497483 102.750602 
L 174.235512 103.614556 
L 175.973541 105.342463 
L 177.71157 103.182579 
L 179.449599 100.158742 
L 181.187628 101.022696 
L 182.925657 100.158742 
L 184.663686 102.750602 
L 186.401715 102.750602 
L 188.139744 103.182579 
L 189.877773 103.182579 
L 191.615802 102.318626 
L 193.353831 104.910486 
L 195.09186 101.022696 
L 196.829889 102.750602 
L 198.567918 100.158742 
L 200.305947 105.342463 
L 202.043976 103.614556 
L 203.782005 101.454672 
L 205.520034 99.726765 
L 207.258063 101.886649 
L 208.996092 100.158742 
L 210.73412 97.566882 
L 212.472149 103.614556 
L 214.210178 98.430835 
L 215.948207 101.022696 
L 217.686236 96.270952 
L 219.424265 100.590719 
L 221.162294 98.430835 
L 222.900323 99.294789 
L 224.638352 105.342463 
L 226.376381 99.294789 
L 228.11441 101.454672 
L 229.852439 99.294789 
L 231.590468 97.998859 
L 233.328497 95.406978 
L 235.066526 97.134905 
L 236.804555 101.886649 
L 238.542584 101.454672 
L 240.280613 100.590719 
L 242.018642 97.566882 
L 243.756671 96.270952 
L 245.4947 101.022696 
L 248.970758 98.430835 
L 250.708787 100.590719 
L 252.446816 98.430835 
L 254.184845 97.134905 
L 255.922874 99.726765 
L 257.660903 95.406978 
L 259.398932 96.270952 
L 261.136961 101.454672 
L 262.87499 97.998859 
L 264.613019 100.158742 
L 266.351048 97.566882 
L 268.089077 99.294789 
L 269.827106 94.543025 
L 271.565135 98.430835 
L 273.303164 94.543025 
L 275.041193 100.158742 
L 276.779222 96.270952 
L 278.517251 99.726765 
L 280.25528 97.998859 
L 281.993309 98.862812 
L 283.731338 102.750602 
L 285.469367 97.134905 
L 287.207396 95.406978 
L 288.945425 97.998859 
L 290.683454 99.726765 
L 292.421483 97.998859 
L 294.159512 99.726765 
L 295.897541 94.975002 
L 297.63557 94.975002 
L 299.373599 100.158742 
L 301.111628 96.270952 
L 302.849657 98.430835 
L 304.587686 97.134905 
L 306.325715 97.998859 
L 308.063744 95.406978 
L 309.801773 96.702929 
L 311.539802 94.543025 
L 313.277831 98.430835 
L 315.01586 98.862812 
L 316.753889 94.975002 
L 318.491918 97.134905 
L 320.229947 97.566882 
L 321.967976 98.430835 
L 323.706005 97.134905 
L 325.444034 96.270952 
L 327.182063 97.566882 
L 328.920092 99.294789 
L 330.658121 97.566882 
L 332.39615 99.726765 
L 334.134179 97.134905 
L 335.872208 98.862812 
L 337.610237 99.294789 
L 339.348266 94.975002 
L 341.086295 96.270952 
L 342.824324 94.975002 
L 344.562353 95.406978 
L 346.300382 91.951165 
L 348.038411 97.566882 
L 349.77644 102.750602 
L 351.514469 93.679072 
L 354.990526 96.270952 
L 356.728555 97.134905 
L 358.466584 95.838975 
L 360.204613 96.270952 
L 361.942642 97.566882 
L 365.4187 99.294789 
L 367.156729 98.862812 
L 368.894758 95.838975 
L 370.632787 93.247095 
L 372.370816 100.158742 
L 374.108845 96.270952 
L 375.846874 96.270952 
L 377.584903 95.838975 
L 379.322932 100.158742 
L 381.060961 98.430835 
L 382.79899 94.975002 
L 384.537019 96.702929 
L 386.275048 96.702929 
L 388.013077 97.998859 
L 389.751106 97.566882 
L 391.489135 96.270952 
L 393.227164 93.247095 
L 394.965193 96.702929 
L 396.703222 96.702929 
L 398.441251 94.975002 
L 400.17928 95.406978 
L 401.917309 95.406978 
L 403.655338 95.838975 
L 405.393367 97.566882 
L 407.131396 96.702929 
L 408.869425 96.702929 
L 410.607454 97.134905 
L 412.345483 94.111048 
L 414.083512 97.134905 
L 415.821541 97.566882 
L 417.55957 95.406978 
L 419.297599 94.543025 
L 421.035628 96.270952 
L 422.773657 96.702929 
L 422.773657 96.702929 
" style="fill:none;stroke:#55a868;stroke-linecap:round;stroke-width:1.5;"/>
   </g>
   <g id="patch_3">
    <path d="M 59.6125 299.559375 
L 59.6125 27.759375 
" style="fill:none;stroke:#cccccc;stroke-linecap:square;stroke-linejoin:miter;stroke-width:1.25;"/>
   </g>
   <g id="patch_4">
    <path d="M 440.067045 299.559375 
L 440.067045 27.759375 
" style="fill:none;stroke:#cccccc;stroke-linecap:square;stroke-linejoin:miter;stroke-width:1.25;"/>
   </g>
   <g id="patch_5">
    <path d="M 59.6125 299.559375 
L 440.067045 299.559375 
" style="fill:none;stroke:#cccccc;stroke-linecap:square;stroke-linejoin:miter;stroke-width:1.25;"/>
   </g>
   <g id="patch_6">
    <path d="M 59.6125 27.759375 
L 440.067045 27.759375 
" style="fill:none;stroke:#cccccc;stroke-linecap:square;stroke-linejoin:miter;stroke-width:1.25;"/>
   </g>
   <g id="text_12">
    <!-- Accuracy for model without ancient samples -->
    <g style="fill:#262626;" transform="translate(54.76321 21.759375)scale(0.2 -0.2)">
     <defs>
      <path id="ArialMT-20" transform="scale(0.015625)"/>
      <path d="M 556 0 
L 556 2881 
L 59 2881 
L 59 3319 
L 556 3319 
L 556 3672 
Q 556 4006 616 4169 
Q 697 4388 901 4523 
Q 1106 4659 1475 4659 
Q 1713 4659 2000 4603 
L 1916 4113 
Q 1741 4144 1584 4144 
Q 1328 4144 1222 4034 
Q 1116 3925 1116 3625 
L 1116 3319 
L 1763 3319 
L 1763 2881 
L 1116 2881 
L 1116 0 
L 556 0 
z
" id="ArialMT-66" transform="scale(0.015625)"/>
      <path d="M 422 0 
L 422 3319 
L 925 3319 
L 925 2853 
Q 1081 3097 1340 3245 
Q 1600 3394 1931 3394 
Q 2300 3394 2536 3241 
Q 2772 3088 2869 2813 
Q 3263 3394 3894 3394 
Q 4388 3394 4653 3120 
Q 4919 2847 4919 2278 
L 4919 0 
L 4359 0 
L 4359 2091 
Q 4359 2428 4304 2576 
Q 4250 2725 4106 2815 
Q 3963 2906 3769 2906 
Q 3419 2906 3187 2673 
Q 2956 2441 2956 1928 
L 2956 0 
L 2394 0 
L 2394 2156 
Q 2394 2531 2256 2718 
Q 2119 2906 1806 2906 
Q 1569 2906 1367 2781 
Q 1166 2656 1075 2415 
Q 984 2175 984 1722 
L 984 0 
L 422 0 
z
" id="ArialMT-6d" transform="scale(0.015625)"/>
      <path d="M 2575 0 
L 2575 419 
Q 2259 -75 1647 -75 
Q 1250 -75 917 144 
Q 584 363 401 755 
Q 219 1147 219 1656 
Q 219 2153 384 2558 
Q 550 2963 881 3178 
Q 1213 3394 1622 3394 
Q 1922 3394 2156 3267 
Q 2391 3141 2538 2938 
L 2538 4581 
L 3097 4581 
L 3097 0 
L 2575 0 
z
M 797 1656 
Q 797 1019 1065 703 
Q 1334 388 1700 388 
Q 2069 388 2326 689 
Q 2584 991 2584 1609 
Q 2584 2291 2321 2609 
Q 2059 2928 1675 2928 
Q 1300 2928 1048 2622 
Q 797 2316 797 1656 
z
" id="ArialMT-64" transform="scale(0.015625)"/>
      <path d="M 2694 1069 
L 3275 997 
Q 3138 488 2766 206 
Q 2394 -75 1816 -75 
Q 1088 -75 661 373 
Q 234 822 234 1631 
Q 234 2469 665 2931 
Q 1097 3394 1784 3394 
Q 2450 3394 2872 2941 
Q 3294 2488 3294 1666 
Q 3294 1616 3291 1516 
L 816 1516 
Q 847 969 1125 678 
Q 1403 388 1819 388 
Q 2128 388 2347 550 
Q 2566 713 2694 1069 
z
M 847 1978 
L 2700 1978 
Q 2663 2397 2488 2606 
Q 2219 2931 1791 2931 
Q 1403 2931 1139 2672 
Q 875 2413 847 1978 
z
" id="ArialMT-65" transform="scale(0.015625)"/>
      <path d="M 409 0 
L 409 4581 
L 972 4581 
L 972 0 
L 409 0 
z
" id="ArialMT-6c" transform="scale(0.015625)"/>
      <path d="M 1034 0 
L 19 3319 
L 600 3319 
L 1128 1403 
L 1325 691 
Q 1338 744 1497 1375 
L 2025 3319 
L 2603 3319 
L 3100 1394 
L 3266 759 
L 3456 1400 
L 4025 3319 
L 4572 3319 
L 3534 0 
L 2950 0 
L 2422 1988 
L 2294 2553 
L 1622 0 
L 1034 0 
z
" id="ArialMT-77" transform="scale(0.015625)"/>
      <path d="M 425 3934 
L 425 4581 
L 988 4581 
L 988 3934 
L 425 3934 
z
M 425 0 
L 425 3319 
L 988 3319 
L 988 0 
L 425 0 
z
" id="ArialMT-69" transform="scale(0.015625)"/>
      <path d="M 1650 503 
L 1731 6 
Q 1494 -44 1306 -44 
Q 1000 -44 831 53 
Q 663 150 594 308 
Q 525 466 525 972 
L 525 2881 
L 113 2881 
L 113 3319 
L 525 3319 
L 525 4141 
L 1084 4478 
L 1084 3319 
L 1650 3319 
L 1650 2881 
L 1084 2881 
L 1084 941 
Q 1084 700 1114 631 
Q 1144 563 1211 522 
Q 1278 481 1403 481 
Q 1497 481 1650 503 
z
" id="ArialMT-74" transform="scale(0.015625)"/>
      <path d="M 422 0 
L 422 3319 
L 928 3319 
L 928 2847 
Q 1294 3394 1984 3394 
Q 2284 3394 2536 3286 
Q 2788 3178 2913 3003 
Q 3038 2828 3088 2588 
Q 3119 2431 3119 2041 
L 3119 0 
L 2556 0 
L 2556 2019 
Q 2556 2363 2490 2533 
Q 2425 2703 2258 2804 
Q 2091 2906 1866 2906 
Q 1506 2906 1245 2678 
Q 984 2450 984 1813 
L 984 0 
L 422 0 
z
" id="ArialMT-6e" transform="scale(0.015625)"/>
     </defs>
     <use xlink:href="#ArialMT-41"/>
     <use x="66.699219" xlink:href="#ArialMT-63"/>
     <use x="116.699219" xlink:href="#ArialMT-63"/>
     <use x="166.699219" xlink:href="#ArialMT-75"/>
     <use x="222.314453" xlink:href="#ArialMT-72"/>
     <use x="255.615234" xlink:href="#ArialMT-61"/>
     <use x="311.230469" xlink:href="#ArialMT-63"/>
     <use x="361.230469" xlink:href="#ArialMT-79"/>
     <use x="411.230469" xlink:href="#ArialMT-20"/>
     <use x="439.013672" xlink:href="#ArialMT-66"/>
     <use x="466.796875" xlink:href="#ArialMT-6f"/>
     <use x="522.412109" xlink:href="#ArialMT-72"/>
     <use x="555.712891" xlink:href="#ArialMT-20"/>
     <use x="583.496094" xlink:href="#ArialMT-6d"/>
     <use x="666.796875" xlink:href="#ArialMT-6f"/>
     <use x="722.412109" xlink:href="#ArialMT-64"/>
     <use x="778.027344" xlink:href="#ArialMT-65"/>
     <use x="833.642578" xlink:href="#ArialMT-6c"/>
     <use x="855.859375" xlink:href="#ArialMT-20"/>
     <use x="883.642578" xlink:href="#ArialMT-77"/>
     <use x="955.859375" xlink:href="#ArialMT-69"/>
     <use x="978.076172" xlink:href="#ArialMT-74"/>
     <use x="1005.859375" xlink:href="#ArialMT-68"/>
     <use x="1061.474609" xlink:href="#ArialMT-6f"/>
     <use x="1117.089844" xlink:href="#ArialMT-75"/>
     <use x="1172.705078" xlink:href="#ArialMT-74"/>
     <use x="1200.488281" xlink:href="#ArialMT-20"/>
     <use x="1228.271484" xlink:href="#ArialMT-61"/>
     <use x="1283.886719" xlink:href="#ArialMT-6e"/>
     <use x="1339.501953" xlink:href="#ArialMT-63"/>
     <use x="1389.501953" xlink:href="#ArialMT-69"/>
     <use x="1411.71875" xlink:href="#ArialMT-65"/>
     <use x="1467.333984" xlink:href="#ArialMT-6e"/>
     <use x="1522.949219" xlink:href="#ArialMT-74"/>
     <use x="1550.732422" xlink:href="#ArialMT-20"/>
     <use x="1578.515625" xlink:href="#ArialMT-73"/>
     <use x="1628.515625" xlink:href="#ArialMT-61"/>
     <use x="1684.130859" xlink:href="#ArialMT-6d"/>
     <use x="1767.431641" xlink:href="#ArialMT-70"/>
     <use x="1823.046875" xlink:href="#ArialMT-6c"/>
     <use x="1845.263672" xlink:href="#ArialMT-65"/>
     <use x="1900.878906" xlink:href="#ArialMT-73"/>
    </g>
   </g>
   <g id="legend_1">
    <g id="patch_7">
     <path d="M 354.978608 294.059375 
L 432.367045 294.059375 
Q 434.567045 294.059375 434.567045 291.859375 
L 434.567045 246.279844 
Q 434.567045 244.079844 432.367045 244.079844 
L 354.978608 244.079844 
Q 352.778608 244.079844 352.778608 246.279844 
L 352.778608 291.859375 
Q 352.778608 294.059375 354.978608 294.059375 
z
" style="fill:#ffffff;opacity:0.8;stroke:#cccccc;stroke-linejoin:miter;"/>
    </g>
    <g id="line2d_13">
     <path d="M 357.178608 252.503437 
L 379.178608 252.503437 
" style="fill:none;stroke:#4c72b0;stroke-linecap:round;stroke-width:1.5;"/>
    </g>
    <g id="line2d_14"/>
    <g id="text_13">
     <!-- 100 PCs -->
     <g style="fill:#262626;" transform="translate(387.978608 256.353437)scale(0.11 -0.11)">
      <defs>
       <path d="M 494 0 
L 494 4581 
L 2222 4581 
Q 2678 4581 2919 4538 
Q 3256 4481 3484 4323 
Q 3713 4166 3852 3881 
Q 3991 3597 3991 3256 
Q 3991 2672 3619 2267 
Q 3247 1863 2275 1863 
L 1100 1863 
L 1100 0 
L 494 0 
z
M 1100 2403 
L 2284 2403 
Q 2872 2403 3119 2622 
Q 3366 2841 3366 3238 
Q 3366 3525 3220 3729 
Q 3075 3934 2838 4000 
Q 2684 4041 2272 4041 
L 1100 4041 
L 1100 2403 
z
" id="ArialMT-50" transform="scale(0.015625)"/>
       <path d="M 3763 1606 
L 4369 1453 
Q 4178 706 3683 314 
Q 3188 -78 2472 -78 
Q 1731 -78 1267 223 
Q 803 525 561 1097 
Q 319 1669 319 2325 
Q 319 3041 592 3573 
Q 866 4106 1370 4382 
Q 1875 4659 2481 4659 
Q 3169 4659 3637 4309 
Q 4106 3959 4291 3325 
L 3694 3184 
Q 3534 3684 3231 3912 
Q 2928 4141 2469 4141 
Q 1941 4141 1586 3887 
Q 1231 3634 1087 3207 
Q 944 2781 944 2328 
Q 944 1744 1114 1308 
Q 1284 872 1643 656 
Q 2003 441 2422 441 
Q 2931 441 3284 734 
Q 3638 1028 3763 1606 
z
" id="ArialMT-43" transform="scale(0.015625)"/>
      </defs>
      <use xlink:href="#ArialMT-31"/>
      <use x="55.615234" xlink:href="#ArialMT-30"/>
      <use x="111.230469" xlink:href="#ArialMT-30"/>
      <use x="166.845703" xlink:href="#ArialMT-20"/>
      <use x="194.628906" xlink:href="#ArialMT-50"/>
      <use x="261.328125" xlink:href="#ArialMT-43"/>
      <use x="333.544922" xlink:href="#ArialMT-73"/>
     </g>
    </g>
    <g id="line2d_15">
     <path d="M 357.178608 268.063281 
L 379.178608 268.063281 
" style="fill:none;stroke:#dd8452;stroke-linecap:round;stroke-width:1.5;"/>
    </g>
    <g id="line2d_16"/>
    <g id="text_14">
     <!-- 20 PCs -->
     <g style="fill:#262626;" transform="translate(387.978608 271.913281)scale(0.11 -0.11)">
      <use xlink:href="#ArialMT-32"/>
      <use x="55.615234" xlink:href="#ArialMT-30"/>
      <use x="111.230469" xlink:href="#ArialMT-20"/>
      <use x="139.013672" xlink:href="#ArialMT-50"/>
      <use x="205.712891" xlink:href="#ArialMT-43"/>
      <use x="277.929688" xlink:href="#ArialMT-73"/>
     </g>
    </g>
    <g id="line2d_17">
     <path d="M 357.178608 283.623125 
L 379.178608 283.623125 
" style="fill:none;stroke:#55a868;stroke-linecap:round;stroke-width:1.5;"/>
    </g>
    <g id="line2d_18"/>
    <g id="text_15">
     <!-- 2 PCs -->
     <g style="fill:#262626;" transform="translate(387.978608 287.473125)scale(0.11 -0.11)">
      <use xlink:href="#ArialMT-32"/>
      <use x="55.615234" xlink:href="#ArialMT-20"/>
      <use x="83.398438" xlink:href="#ArialMT-50"/>
      <use x="150.097656" xlink:href="#ArialMT-43"/>
      <use x="222.314453" xlink:href="#ArialMT-73"/>
     </g>
    </g>
   </g>
  </g>
  <g id="axes_2">
   <g id="patch_8">
    <path d="M 516.157955 299.559375 
L 896.6125 299.559375 
L 896.6125 27.759375 
L 516.157955 27.759375 
z
" style="fill:#ffffff;"/>
   </g>
   <g id="matplotlib.axis_3">
    <g id="xtick_6">
     <g id="line2d_19">
      <path clip-path="url(#pa31c439a9f)" d="M 533.451343 299.559375 
L 533.451343 27.759375 
" style="fill:none;stroke:#cccccc;stroke-linecap:round;"/>
     </g>
     <g id="text_16">
      <!-- 0 -->
      <g style="fill:#262626;" transform="translate(529.002593 320.511875)scale(0.16 -0.16)">
       <use xlink:href="#ArialMT-30"/>
      </g>
     </g>
    </g>
    <g id="xtick_7">
     <g id="line2d_20">
      <path clip-path="url(#pa31c439a9f)" d="M 620.352792 299.559375 
L 620.352792 27.759375 
" style="fill:none;stroke:#cccccc;stroke-linecap:round;"/>
     </g>
     <g id="text_17">
      <!-- 50 -->
      <g style="fill:#262626;" transform="translate(611.455292 320.511875)scale(0.16 -0.16)">
       <use xlink:href="#ArialMT-35"/>
       <use x="55.615234" xlink:href="#ArialMT-30"/>
      </g>
     </g>
    </g>
    <g id="xtick_8">
     <g id="line2d_21">
      <path clip-path="url(#pa31c439a9f)" d="M 707.254242 299.559375 
L 707.254242 27.759375 
" style="fill:none;stroke:#cccccc;stroke-linecap:round;"/>
     </g>
     <g id="text_18">
      <!-- 100 -->
      <g style="fill:#262626;" transform="translate(693.907992 320.511875)scale(0.16 -0.16)">
       <use xlink:href="#ArialMT-31"/>
       <use x="55.615234" xlink:href="#ArialMT-30"/>
       <use x="111.230469" xlink:href="#ArialMT-30"/>
      </g>
     </g>
    </g>
    <g id="xtick_9">
     <g id="line2d_22">
      <path clip-path="url(#pa31c439a9f)" d="M 794.155691 299.559375 
L 794.155691 27.759375 
" style="fill:none;stroke:#cccccc;stroke-linecap:round;"/>
     </g>
     <g id="text_19">
      <!-- 150 -->
      <g style="fill:#262626;" transform="translate(780.809441 320.511875)scale(0.16 -0.16)">
       <use xlink:href="#ArialMT-31"/>
       <use x="55.615234" xlink:href="#ArialMT-35"/>
       <use x="111.230469" xlink:href="#ArialMT-30"/>
      </g>
     </g>
    </g>
    <g id="xtick_10">
     <g id="line2d_23">
      <path clip-path="url(#pa31c439a9f)" d="M 881.057141 299.559375 
L 881.057141 27.759375 
" style="fill:none;stroke:#cccccc;stroke-linecap:round;"/>
     </g>
     <g id="text_20">
      <!-- 200 -->
      <g style="fill:#262626;" transform="translate(867.710891 320.511875)scale(0.16 -0.16)">
       <use xlink:href="#ArialMT-32"/>
       <use x="55.615234" xlink:href="#ArialMT-30"/>
       <use x="111.230469" xlink:href="#ArialMT-30"/>
      </g>
     </g>
    </g>
    <g id="text_21">
     <!-- Epochs -->
     <g style="fill:#262626;" transform="translate(676.367415 340.575938)scale(0.18 -0.18)">
      <use xlink:href="#ArialMT-45"/>
      <use x="66.699219" xlink:href="#ArialMT-70"/>
      <use x="122.314453" xlink:href="#ArialMT-6f"/>
      <use x="177.929688" xlink:href="#ArialMT-63"/>
      <use x="227.929688" xlink:href="#ArialMT-68"/>
      <use x="283.544922" xlink:href="#ArialMT-73"/>
     </g>
    </g>
   </g>
   <g id="matplotlib.axis_4">
    <g id="ytick_5">
     <g id="line2d_24">
      <path clip-path="url(#pa31c439a9f)" d="M 516.157955 248.588024 
L 896.6125 248.588024 
" style="fill:none;stroke:#cccccc;stroke-linecap:round;"/>
     </g>
     <g id="text_22">
      <!-- 0.5 -->
      <g style="fill:#262626;" transform="translate(484.417955 254.314274)scale(0.16 -0.16)">
       <use xlink:href="#ArialMT-30"/>
       <use x="55.615234" xlink:href="#ArialMT-2e"/>
       <use x="83.398438" xlink:href="#ArialMT-35"/>
      </g>
     </g>
    </g>
    <g id="ytick_6">
     <g id="line2d_25">
      <path clip-path="url(#pa31c439a9f)" d="M 516.157955 189.427766 
L 896.6125 189.427766 
" style="fill:none;stroke:#cccccc;stroke-linecap:round;"/>
     </g>
     <g id="text_23">
      <!-- 1.0 -->
      <g style="fill:#262626;" transform="translate(484.417955 195.154016)scale(0.16 -0.16)">
       <use xlink:href="#ArialMT-31"/>
       <use x="55.615234" xlink:href="#ArialMT-2e"/>
       <use x="83.398438" xlink:href="#ArialMT-30"/>
      </g>
     </g>
    </g>
    <g id="ytick_7">
     <g id="line2d_26">
      <path clip-path="url(#pa31c439a9f)" d="M 516.157955 130.267507 
L 896.6125 130.267507 
" style="fill:none;stroke:#cccccc;stroke-linecap:round;"/>
     </g>
     <g id="text_24">
      <!-- 1.5 -->
      <g style="fill:#262626;" transform="translate(484.417955 135.993757)scale(0.16 -0.16)">
       <use xlink:href="#ArialMT-31"/>
       <use x="55.615234" xlink:href="#ArialMT-2e"/>
       <use x="83.398438" xlink:href="#ArialMT-35"/>
      </g>
     </g>
    </g>
    <g id="ytick_8">
     <g id="line2d_27">
      <path clip-path="url(#pa31c439a9f)" d="M 516.157955 71.107248 
L 896.6125 71.107248 
" style="fill:none;stroke:#cccccc;stroke-linecap:round;"/>
     </g>
     <g id="text_25">
      <!-- 2.0 -->
      <g style="fill:#262626;" transform="translate(484.417955 76.833498)scale(0.16 -0.16)">
       <use xlink:href="#ArialMT-32"/>
       <use x="55.615234" xlink:href="#ArialMT-2e"/>
       <use x="83.398438" xlink:href="#ArialMT-30"/>
      </g>
     </g>
    </g>
    <g id="text_26">
     <!-- Loss -->
     <g style="fill:#262626;" transform="translate(476.840455 182.669062)rotate(-90)scale(0.18 -0.18)">
      <defs>
       <path d="M 469 0 
L 469 4581 
L 1075 4581 
L 1075 541 
L 3331 541 
L 3331 0 
L 469 0 
z
" id="ArialMT-4c" transform="scale(0.015625)"/>
      </defs>
      <use xlink:href="#ArialMT-4c"/>
      <use x="55.615234" xlink:href="#ArialMT-6f"/>
      <use x="111.230469" xlink:href="#ArialMT-73"/>
      <use x="161.230469" xlink:href="#ArialMT-73"/>
     </g>
    </g>
   </g>
   <g id="line2d_28">
    <path clip-path="url(#pa31c439a9f)" d="M 533.451343 40.11392 
L 535.189372 256.875485 
L 536.927401 268.576064 
L 538.66543 272.475594 
L 540.403459 275.128543 
L 542.141488 269.324364 
L 543.879517 279.822167 
L 545.617546 283.810155 
L 547.355575 280.754316 
L 549.093604 282.439621 
L 550.831633 273.616921 
L 552.569662 272.180745 
L 554.307691 284.253498 
L 556.04572 285.761431 
L 557.783749 284.405158 
L 559.521778 278.218894 
L 561.259807 282.775105 
L 564.735865 285.59174 
L 566.473894 282.447908 
L 568.211923 275.430931 
L 571.687981 285.4108 
L 573.42601 278.697666 
L 575.164039 269.883571 
L 576.902068 284.945529 
L 578.640097 286.26564 
L 580.378126 282.480147 
L 582.116155 281.076164 
L 583.854184 281.586631 
L 585.592213 283.046688 
L 587.330242 279.220965 
L 589.068271 283.012434 
L 590.8063 283.699949 
L 592.544329 282.148674 
L 594.282358 285.898721 
L 596.020387 282.806042 
L 597.758416 276.330482 
L 599.496445 285.079005 
L 601.234474 284.824049 
L 602.972502 277.88113 
L 604.710531 283.50737 
L 606.44856 283.154266 
L 608.186589 280.665552 
L 609.924618 284.915401 
L 611.662647 277.894388 
L 613.400676 283.270432 
L 615.138705 282.118054 
L 616.876734 278.976666 
L 618.614763 276.981811 
L 620.352792 281.878299 
L 622.090821 279.974976 
L 623.82885 278.432035 
L 625.566879 280.270839 
L 627.304908 275.687274 
L 629.042937 274.835479 
L 630.780966 281.019053 
L 632.518995 279.983727 
L 634.257024 279.297893 
L 635.995053 277.388438 
L 637.733082 281.603798 
L 639.471111 281.48547 
L 641.20914 280.73577 
L 642.947169 281.790299 
L 644.685198 275.928112 
L 646.423227 275.136915 
L 648.161256 279.495972 
L 649.899285 281.472804 
L 651.637314 275.850633 
L 653.375343 277.641254 
L 655.113372 274.518749 
L 656.851401 276.752159 
L 658.58943 277.464901 
L 660.327459 277.827027 
L 662.065488 279.089416 
L 663.803517 276.44354 
L 665.541546 279.561112 
L 667.279575 279.113946 
L 669.017604 275.446768 
L 670.755633 275.349676 
L 672.493662 278.120455 
L 674.231691 276.301017 
L 675.96972 274.940934 
L 677.707749 278.417687 
L 679.445778 272.657561 
L 681.183807 274.483212 
L 682.921836 276.055697 
L 684.659865 275.182696 
L 686.397894 265.682146 
L 688.135923 277.143884 
L 689.873952 271.448323 
L 691.611981 276.86034 
L 693.35001 275.83382 
L 695.088039 277.564397 
L 696.826068 275.426947 
L 698.564097 265.163188 
L 700.302126 259.742063 
L 702.040155 273.390086 
L 703.778184 273.162591 
L 705.516213 266.191986 
L 707.254242 267.719149 
L 708.992271 261.686424 
L 710.7303 274.469153 
L 712.468329 275.116279 
L 714.206358 272.079183 
L 715.944387 275.264666 
L 717.682416 277.364802 
L 719.420445 273.725542 
L 721.158474 271.813633 
L 722.896503 275.178887 
L 724.634532 269.949257 
L 726.372561 273.158014 
L 728.11059 276.102448 
L 729.848619 275.812374 
L 731.586648 275.155018 
L 733.324677 260.8263 
L 735.062706 273.562536 
L 736.800735 276.231413 
L 738.538764 274.961273 
L 740.276793 271.498085 
L 742.014822 273.532707 
L 743.752851 266.404409 
L 745.49088 275.996559 
L 747.228908 275.290915 
L 748.966937 273.190022 
L 750.704966 278.767186 
L 752.442995 278.899934 
L 754.181024 277.87267 
L 755.919053 275.435864 
L 757.657082 275.925774 
L 759.395111 268.782637 
L 761.13314 275.322369 
L 762.871169 271.541433 
L 764.609198 264.958995 
L 766.347227 264.382136 
L 768.085256 273.121987 
L 769.823285 271.224055 
L 771.561314 274.068422 
L 773.299343 273.28183 
L 775.037372 272.624154 
L 776.775401 275.165636 
L 778.51343 274.835214 
L 780.251459 272.770626 
L 781.989488 272.86874 
L 783.727517 271.33413 
L 785.465546 274.392465 
L 787.203575 271.062572 
L 788.941604 273.517985 
L 790.679633 269.886981 
L 792.417662 270.589888 
L 794.155691 272.015041 
L 795.89372 272.199173 
L 797.631749 274.304619 
L 799.369778 272.559405 
L 801.107807 271.156845 
L 802.845836 273.132456 
L 806.321894 273.669765 
L 808.059923 275.062846 
L 809.797952 271.191818 
L 811.535981 271.325949 
L 813.27401 273.92073 
L 815.012039 268.22603 
L 816.750068 269.057686 
L 818.488097 262.57436 
L 820.226126 270.840666 
L 821.964155 272.767382 
L 823.702184 269.07439 
L 825.440213 269.537479 
L 827.178242 270.519893 
L 828.916271 264.834339 
L 830.6543 273.304592 
L 832.392329 267.484288 
L 834.130358 266.050443 
L 835.868387 268.771463 
L 837.606416 274.744442 
L 839.344445 276.454341 
L 841.082474 268.486635 
L 842.820503 271.083994 
L 844.558532 269.625525 
L 846.296561 273.335644 
L 848.03459 271.830157 
L 849.772619 275.089205 
L 851.510648 269.025086 
L 853.248677 271.144849 
L 854.986706 264.505276 
L 856.724735 273.293619 
L 858.462764 264.435463 
L 861.938822 273.25135 
L 863.676851 271.789062 
L 865.41488 274.265305 
L 867.152909 273.873972 
L 868.890938 265.890906 
L 870.628967 264.79834 
L 872.366996 274.958932 
L 874.105025 277.375187 
L 875.843054 269.732197 
L 877.581083 270.696165 
L 879.319112 271.176832 
L 879.319112 271.176832 
" style="fill:none;stroke:#4c72b0;stroke-linecap:round;stroke-width:1.5;"/>
   </g>
   <g id="line2d_29">
    <path clip-path="url(#pa31c439a9f)" d="M 533.451343 127.950466 
L 535.189372 254.161581 
L 536.927401 269.96325 
L 538.66543 274.204908 
L 540.403459 275.72986 
L 542.141488 274.21494 
L 543.879517 277.379672 
L 545.617546 275.650174 
L 547.355575 278.457646 
L 549.093604 278.347122 
L 550.831633 280.776687 
L 552.569662 277.164276 
L 554.307691 281.011086 
L 556.04572 272.268033 
L 557.783749 278.134842 
L 559.521778 279.383626 
L 561.259807 279.97937 
L 562.997836 277.216238 
L 564.735865 281.478816 
L 566.473894 279.096232 
L 568.211923 278.986385 
L 569.949952 280.735745 
L 571.687981 281.021608 
L 573.42601 280.518292 
L 575.164039 279.008089 
L 576.902068 281.084905 
L 578.640097 279.592166 
L 580.378126 282.483574 
L 582.116155 281.842991 
L 583.854184 285.105027 
L 585.592213 281.77192 
L 587.330242 282.321646 
L 589.068271 282.223051 
L 590.8063 284.50145 
L 592.544329 279.120348 
L 594.282358 282.595047 
L 596.020387 281.246558 
L 597.758416 280.784584 
L 599.496445 281.145241 
L 601.234474 282.473475 
L 602.972502 284.72817 
L 604.710531 282.279649 
L 606.44856 283.638831 
L 608.186589 283.578159 
L 609.924618 281.168731 
L 611.662647 283.662028 
L 613.400676 285.75465 
L 615.138705 282.453485 
L 616.876734 286.719321 
L 618.614763 281.891944 
L 620.352792 283.2495 
L 622.090821 282.792297 
L 623.82885 283.85909 
L 625.566879 284.133628 
L 627.304908 285.759163 
L 629.042937 283.344991 
L 630.780966 282.661328 
L 632.518995 284.56236 
L 634.257024 284.835017 
L 635.995053 283.65194 
L 637.733082 282.962284 
L 639.471111 283.667314 
L 641.20914 282.804157 
L 642.947169 283.87065 
L 644.685198 285.154985 
L 646.423227 286.037478 
L 648.161256 283.826123 
L 649.899285 285.699226 
L 651.637314 283.541918 
L 653.375343 285.903707 
L 655.113372 283.899109 
L 656.851401 286.92423 
L 658.58943 283.135062 
L 662.065488 284.340039 
L 663.803517 283.283929 
L 665.541546 285.160856 
L 667.279575 284.58776 
L 669.017604 284.855502 
L 670.755633 282.140906 
L 672.493662 285.270948 
L 674.231691 285.292294 
L 675.96972 282.928914 
L 677.707749 283.352921 
L 679.445778 282.709168 
L 681.183807 284.944258 
L 682.921836 285.453542 
L 684.659865 282.98903 
L 686.397894 284.718429 
L 688.135923 281.477706 
L 689.873952 284.691968 
L 691.611981 285.279609 
L 693.35001 285.218753 
L 695.088039 286.398844 
L 696.826068 286.850451 
L 698.564097 284.735715 
L 700.302126 286.389864 
L 702.040155 280.807435 
L 703.778184 286.552524 
L 705.516213 284.949436 
L 707.254242 287.069364 
L 708.992271 285.409164 
L 710.7303 279.821106 
L 712.468329 284.785838 
L 714.206358 286.018683 
L 715.944387 283.303147 
L 717.682416 285.411493 
L 719.420445 286.18778 
L 722.896503 284.321285 
L 726.372561 283.470702 
L 728.11059 283.546178 
L 729.848619 285.772406 
L 733.324677 283.546569 
L 735.062706 280.591632 
L 736.800735 284.763403 
L 738.538764 283.957168 
L 740.276793 285.424537 
L 742.014822 282.544853 
L 743.752851 286.975126 
L 745.49088 283.028189 
L 747.228908 285.664967 
L 748.966937 284.115536 
L 750.704966 283.92722 
L 752.442995 285.887687 
L 754.181024 284.713046 
L 755.919053 284.627204 
L 757.657082 283.687616 
L 759.395111 281.393228 
L 761.13314 284.697519 
L 762.871169 286.225701 
L 764.609198 285.953217 
L 766.347227 284.166384 
L 768.085256 284.844328 
L 769.823285 281.051579 
L 771.561314 283.113048 
L 773.299343 285.652015 
L 775.037372 284.230803 
L 776.775401 284.537915 
L 778.51343 282.68489 
L 780.251459 283.46962 
L 781.989488 283.015329 
L 783.727517 285.193174 
L 785.465546 283.221559 
L 787.203575 286.765118 
L 788.941604 282.934164 
L 790.679633 282.372903 
L 792.417662 284.191481 
L 794.155691 283.93535 
L 795.89372 281.052069 
L 797.631749 283.797709 
L 799.369778 282.782371 
L 801.107807 284.286045 
L 802.845836 282.708985 
L 804.583865 283.37515 
L 806.321894 282.281303 
L 808.059923 283.001206 
L 809.797952 281.808374 
L 811.535981 282.058498 
L 813.27401 287.20483 
L 815.012039 281.938832 
L 816.750068 282.39542 
L 818.488097 285.813074 
L 820.226126 278.737558 
L 821.964155 280.757747 
L 823.702184 281.067898 
L 825.440213 281.126455 
L 827.178242 281.594699 
L 828.916271 280.851027 
L 830.6543 281.823556 
L 832.392329 280.50891 
L 834.130358 281.215506 
L 835.868387 280.890912 
L 837.606416 282.6133 
L 839.344445 283.391336 
L 841.082474 282.591674 
L 842.820503 281.641443 
L 846.296561 282.654076 
L 848.03459 284.219109 
L 849.772619 281.320075 
L 851.510648 284.580039 
L 853.248677 282.454973 
L 854.986706 281.528395 
L 856.724735 282.675244 
L 858.462764 284.477419 
L 860.200793 281.485375 
L 861.938822 284.779824 
L 863.676851 280.866549 
L 865.41488 282.785576 
L 867.152909 282.222439 
L 868.890938 282.626667 
L 870.628967 282.737692 
L 872.366996 280.931469 
L 874.105025 281.745494 
L 875.843054 281.658943 
L 877.581083 283.480472 
L 879.319112 278.252893 
L 879.319112 278.252893 
" style="fill:none;stroke:#dd8452;stroke-linecap:round;stroke-width:1.5;"/>
   </g>
   <g id="line2d_30">
    <path clip-path="url(#pa31c439a9f)" d="M 533.451343 108.449871 
L 535.189372 199.232529 
L 536.927401 213.027585 
L 538.66543 218.752138 
L 540.403459 218.013126 
L 542.141488 225.281609 
L 543.879517 229.616123 
L 545.617546 227.557886 
L 547.355575 229.026144 
L 549.093604 228.386465 
L 550.831633 232.470914 
L 552.569662 233.20451 
L 554.307691 233.088829 
L 556.04572 234.299354 
L 557.783749 233.49352 
L 559.521778 236.907351 
L 561.259807 237.550929 
L 562.997836 238.693201 
L 564.735865 232.655695 
L 566.473894 237.820206 
L 569.949952 236.969892 
L 571.687981 237.072138 
L 573.42601 237.572129 
L 575.164039 236.551738 
L 576.902068 237.19885 
L 578.640097 237.150921 
L 580.378126 239.688894 
L 582.116155 238.65985 
L 583.854184 240.280764 
L 585.592213 239.354192 
L 587.330242 240.689348 
L 589.068271 239.776126 
L 590.8063 238.075597 
L 592.544329 240.342212 
L 594.282358 240.667048 
L 596.020387 239.585851 
L 597.758416 239.71111 
L 599.496445 241.597062 
L 601.234474 242.791642 
L 602.972502 240.664982 
L 604.710531 240.688509 
L 606.44856 239.196513 
L 608.186589 242.66053 
L 609.924618 242.326413 
L 611.662647 242.309311 
L 613.400676 241.433361 
L 615.138705 240.345894 
L 616.876734 242.253554 
L 618.614763 241.738436 
L 620.352792 240.89011 
L 622.090821 242.075889 
L 623.82885 243.11829 
L 625.566879 242.946867 
L 627.304908 241.884746 
L 629.042937 243.759591 
L 630.780966 242.625416 
L 632.518995 240.322987 
L 634.257024 242.858464 
L 635.995053 243.716832 
L 637.733082 242.17092 
L 639.471111 244.228925 
L 642.947169 243.379478 
L 644.685198 242.292878 
L 646.423227 244.088193 
L 648.161256 243.606377 
L 649.899285 241.43152 
L 651.637314 244.836219 
L 653.375343 244.335135 
L 655.113372 242.199201 
L 656.851401 241.29119 
L 658.58943 242.902224 
L 660.327459 244.859731 
L 662.065488 243.388801 
L 663.803517 245.146675 
L 665.541546 244.373683 
L 667.279575 244.547787 
L 669.017604 243.740338 
L 670.755633 243.655095 
L 672.493662 243.125068 
L 674.231691 244.798319 
L 675.96972 244.465944 
L 677.707749 245.137725 
L 679.445778 245.144263 
L 681.183807 242.980281 
L 682.921836 245.059295 
L 684.659865 242.741866 
L 686.397894 245.804697 
L 688.135923 247.354078 
L 689.873952 245.25067 
L 691.611981 243.841632 
L 693.35001 245.081129 
L 695.088039 244.783791 
L 696.826068 244.869732 
L 698.564097 245.516294 
L 700.302126 246.494969 
L 702.040155 245.217925 
L 703.778184 245.194342 
L 705.516213 245.357099 
L 707.254242 243.01019 
L 708.992271 244.772662 
L 710.7303 244.407719 
L 712.468329 246.524674 
L 714.206358 246.945001 
L 715.944387 246.168187 
L 717.682416 244.995301 
L 719.420445 246.189796 
L 722.896503 245.64146 
L 724.634532 246.896614 
L 726.372561 246.119934 
L 728.11059 246.430101 
L 729.848619 245.819069 
L 731.586648 244.604813 
L 733.324677 247.647509 
L 735.062706 245.692577 
L 736.800735 247.115176 
L 738.538764 247.056867 
L 740.276793 243.673199 
L 742.014822 247.678484 
L 743.752851 246.392617 
L 745.49088 247.642418 
L 747.228908 245.742621 
L 748.966937 247.072981 
L 750.704966 247.487955 
L 752.442995 247.643292 
L 754.181024 247.217084 
L 755.919053 245.776536 
L 757.657082 247.293265 
L 759.395111 247.46459 
L 761.13314 244.988298 
L 762.871169 246.257379 
L 764.609198 247.246845 
L 766.347227 245.690581 
L 768.085256 248.082857 
L 769.823285 247.669055 
L 771.561314 247.698999 
L 773.299343 246.759493 
L 775.037372 247.393402 
L 778.51343 247.016132 
L 780.251459 247.9241 
L 781.989488 248.244986 
L 783.727517 248.024787 
L 785.465546 247.471932 
L 787.203575 248.058421 
L 788.941604 247.996373 
L 790.679633 246.495407 
L 792.417662 245.557677 
L 794.155691 247.787762 
L 795.89372 248.23299 
L 797.631749 244.610462 
L 799.369778 247.952098 
L 801.107807 246.370882 
L 802.845836 248.507196 
L 804.583865 248.364292 
L 806.321894 246.330111 
L 808.059923 248.71432 
L 809.797952 247.819413 
L 811.535981 248.412228 
L 813.27401 247.860846 
L 815.012039 249.160486 
L 818.488097 246.6475 
L 820.226126 248.272307 
L 821.964155 246.993437 
L 823.702184 245.362882 
L 825.440213 247.745461 
L 827.178242 247.60987 
L 828.916271 246.292 
L 830.6543 248.317626 
L 834.130358 248.712708 
L 835.868387 246.946122 
L 837.606416 247.887779 
L 839.344445 246.562701 
L 841.082474 248.6016 
L 842.820503 247.63095 
L 844.558532 247.97908 
L 846.296561 247.185292 
L 848.03459 248.046199 
L 849.772619 247.702215 
L 851.510648 247.753275 
L 853.248677 246.995313 
L 854.986706 246.939091 
L 856.724735 247.696926 
L 858.462764 247.671946 
L 860.200793 247.954996 
L 861.938822 247.450245 
L 863.676851 247.148894 
L 865.41488 247.051091 
L 867.152909 246.635426 
L 868.890938 248.806647 
L 870.628967 246.610587 
L 872.366996 246.799551 
L 874.105025 247.719889 
L 877.581083 247.99858 
L 879.319112 248.359878 
L 879.319112 248.359878 
" style="fill:none;stroke:#55a868;stroke-linecap:round;stroke-width:1.5;"/>
   </g>
   <g id="patch_9">
    <path d="M 516.157955 299.559375 
L 516.157955 27.759375 
" style="fill:none;stroke:#cccccc;stroke-linecap:square;stroke-linejoin:miter;stroke-width:1.25;"/>
   </g>
   <g id="patch_10">
    <path d="M 896.6125 299.559375 
L 896.6125 27.759375 
" style="fill:none;stroke:#cccccc;stroke-linecap:square;stroke-linejoin:miter;stroke-width:1.25;"/>
   </g>
   <g id="patch_11">
    <path d="M 516.157955 299.559375 
L 896.6125 299.559375 
" style="fill:none;stroke:#cccccc;stroke-linecap:square;stroke-linejoin:miter;stroke-width:1.25;"/>
   </g>
   <g id="patch_12">
    <path d="M 516.157955 27.759375 
L 896.6125 27.759375 
" style="fill:none;stroke:#cccccc;stroke-linecap:square;stroke-linejoin:miter;stroke-width:1.25;"/>
   </g>
   <g id="text_27">
    <!-- Loss for model without ancient samples -->
    <g style="fill:#262626;" transform="translate(531.308665 21.759375)scale(0.2 -0.2)">
     <use xlink:href="#ArialMT-4c"/>
     <use x="55.615234" xlink:href="#ArialMT-6f"/>
     <use x="111.230469" xlink:href="#ArialMT-73"/>
     <use x="161.230469" xlink:href="#ArialMT-73"/>
     <use x="211.230469" xlink:href="#ArialMT-20"/>
     <use x="239.013672" xlink:href="#ArialMT-66"/>
     <use x="266.796875" xlink:href="#ArialMT-6f"/>
     <use x="322.412109" xlink:href="#ArialMT-72"/>
     <use x="355.712891" xlink:href="#ArialMT-20"/>
     <use x="383.496094" xlink:href="#ArialMT-6d"/>
     <use x="466.796875" xlink:href="#ArialMT-6f"/>
     <use x="522.412109" xlink:href="#ArialMT-64"/>
     <use x="578.027344" xlink:href="#ArialMT-65"/>
     <use x="633.642578" xlink:href="#ArialMT-6c"/>
     <use x="655.859375" xlink:href="#ArialMT-20"/>
     <use x="683.642578" xlink:href="#ArialMT-77"/>
     <use x="755.859375" xlink:href="#ArialMT-69"/>
     <use x="778.076172" xlink:href="#ArialMT-74"/>
     <use x="805.859375" xlink:href="#ArialMT-68"/>
     <use x="861.474609" xlink:href="#ArialMT-6f"/>
     <use x="917.089844" xlink:href="#ArialMT-75"/>
     <use x="972.705078" xlink:href="#ArialMT-74"/>
     <use x="1000.488281" xlink:href="#ArialMT-20"/>
     <use x="1028.271484" xlink:href="#ArialMT-61"/>
     <use x="1083.886719" xlink:href="#ArialMT-6e"/>
     <use x="1139.501953" xlink:href="#ArialMT-63"/>
     <use x="1189.501953" xlink:href="#ArialMT-69"/>
     <use x="1211.71875" xlink:href="#ArialMT-65"/>
     <use x="1267.333984" xlink:href="#ArialMT-6e"/>
     <use x="1322.949219" xlink:href="#ArialMT-74"/>
     <use x="1350.732422" xlink:href="#ArialMT-20"/>
     <use x="1378.515625" xlink:href="#ArialMT-73"/>
     <use x="1428.515625" xlink:href="#ArialMT-61"/>
     <use x="1484.130859" xlink:href="#ArialMT-6d"/>
     <use x="1567.431641" xlink:href="#ArialMT-70"/>
     <use x="1623.046875" xlink:href="#ArialMT-6c"/>
     <use x="1645.263672" xlink:href="#ArialMT-65"/>
     <use x="1700.878906" xlink:href="#ArialMT-73"/>
    </g>
   </g>
   <g id="legend_2">
    <g id="patch_13">
     <path d="M 811.524063 83.238906 
L 888.9125 83.238906 
Q 891.1125 83.238906 891.1125 81.038906 
L 891.1125 35.459375 
Q 891.1125 33.259375 888.9125 33.259375 
L 811.524063 33.259375 
Q 809.324062 33.259375 809.324062 35.459375 
L 809.324062 81.038906 
Q 809.324062 83.238906 811.524063 83.238906 
z
" style="fill:#ffffff;opacity:0.8;stroke:#cccccc;stroke-linejoin:miter;"/>
    </g>
    <g id="line2d_31">
     <path d="M 813.724062 41.682969 
L 835.724062 41.682969 
" style="fill:none;stroke:#4c72b0;stroke-linecap:round;stroke-width:1.5;"/>
    </g>
    <g id="line2d_32"/>
    <g id="text_28">
     <!-- 100 PCs -->
     <g style="fill:#262626;" transform="translate(844.524062 45.532969)scale(0.11 -0.11)">
      <use xlink:href="#ArialMT-31"/>
      <use x="55.615234" xlink:href="#ArialMT-30"/>
      <use x="111.230469" xlink:href="#ArialMT-30"/>
      <use x="166.845703" xlink:href="#ArialMT-20"/>
      <use x="194.628906" xlink:href="#ArialMT-50"/>
      <use x="261.328125" xlink:href="#ArialMT-43"/>
      <use x="333.544922" xlink:href="#ArialMT-73"/>
     </g>
    </g>
    <g id="line2d_33">
     <path d="M 813.724062 57.242812 
L 835.724062 57.242812 
" style="fill:none;stroke:#dd8452;stroke-linecap:round;stroke-width:1.5;"/>
    </g>
    <g id="line2d_34"/>
    <g id="text_29">
     <!-- 20 PCs -->
     <g style="fill:#262626;" transform="translate(844.524062 61.092812)scale(0.11 -0.11)">
      <use xlink:href="#ArialMT-32"/>
      <use x="55.615234" xlink:href="#ArialMT-30"/>
      <use x="111.230469" xlink:href="#ArialMT-20"/>
      <use x="139.013672" xlink:href="#ArialMT-50"/>
      <use x="205.712891" xlink:href="#ArialMT-43"/>
      <use x="277.929688" xlink:href="#ArialMT-73"/>
     </g>
    </g>
    <g id="line2d_35">
     <path d="M 813.724062 72.802656 
L 835.724062 72.802656 
" style="fill:none;stroke:#55a868;stroke-linecap:round;stroke-width:1.5;"/>
    </g>
    <g id="line2d_36"/>
    <g id="text_30">
     <!-- 2 PCs -->
     <g style="fill:#262626;" transform="translate(844.524062 76.652656)scale(0.11 -0.11)">
      <use xlink:href="#ArialMT-32"/>
      <use x="55.615234" xlink:href="#ArialMT-20"/>
      <use x="83.398438" xlink:href="#ArialMT-50"/>
      <use x="150.097656" xlink:href="#ArialMT-43"/>
      <use x="222.314453" xlink:href="#ArialMT-73"/>
     </g>
    </g>
   </g>
  </g>
 </g>
 <defs>
  <clipPath id="p3bf613b262">
   <rect height="271.8" width="380.454545" x="59.6125" y="27.759375"/>
  </clipPath>
  <clipPath id="pa31c439a9f">
   <rect height="271.8" width="380.454545" x="516.157955" y="27.759375"/>
  </clipPath>
 </defs>
</svg>
