<?xml version="1.0" encoding="utf-8" standalone="no"?>
<!DOCTYPE svg PUBLIC "-//W3C//DTD SVG 1.1//EN"
  "http://www.w3.org/Graphics/SVG/1.1/DTD/svg11.dtd">
<svg height="351.353437pt" version="1.1" viewBox="0 0 903.8125 351.353437" width="903.8125pt" xmlns="http://www.w3.org/2000/svg" xmlns:xlink="http://www.w3.org/1999/xlink">
 <metadata>
  <rdf:RDF xmlns:cc="http://creativecommons.org/ns#" xmlns:dc="http://purl.org/dc/elements/1.1/" xmlns:rdf="http://www.w3.org/1999/02/22-rdf-syntax-ns#">
   <cc:Work>
    <dc:type rdf:resource="http://purl.org/dc/dcmitype/StillImage"/>
    <dc:date>2021-12-03T17:44:21.793064</dc:date>
    <dc:format>image/svg+xml</dc:format>
    <dc:creator>
     <cc:Agent>
      <dc:title>Matplotlib v3.4.3, https://matplotlib.org/</dc:title>
     </cc:Agent>
    </dc:creator>
   </cc:Work>
  </rdf:RDF>
 </metadata>
 <defs>
  <style type="text/css">*{stroke-linecap:butt;stroke-linejoin:round;}</style>
 </defs>
 <g id="figure_1">
  <g id="patch_1">
   <path d="M 0 351.353437 
L 903.8125 351.353437 
L 903.8125 0 
L 0 0 
z
" style="fill:#ffffff;"/>
  </g>
  <g id="axes_1">
   <g id="patch_2">
    <path d="M 59.6125 299.559375 
L 440.067045 299.559375 
L 440.067045 27.759375 
L 59.6125 27.759375 
z
" style="fill:#ffffff;"/>
   </g>
   <g id="matplotlib.axis_1">
    <g id="xtick_1">
     <g id="line2d_1">
      <path clip-path="url(#p84cc543414)" d="M 76.905888 299.559375 
L 76.905888 27.759375 
" style="fill:none;stroke:#cccccc;stroke-linecap:round;"/>
     </g>
     <g id="text_1">
      <!-- 0 -->
      <g style="fill:#262626;" transform="translate(72.457138 320.511875)scale(0.16 -0.16)">
       <defs>
        <path d="M 266 2259 
Q 266 3072 433 3567 
Q 600 4063 929 4331 
Q 1259 4600 1759 4600 
Q 2128 4600 2406 4451 
Q 2684 4303 2865 4023 
Q 3047 3744 3150 3342 
Q 3253 2941 3253 2259 
Q 3253 1453 3087 958 
Q 2922 463 2592 192 
Q 2263 -78 1759 -78 
Q 1097 -78 719 397 
Q 266 969 266 2259 
z
M 844 2259 
Q 844 1131 1108 757 
Q 1372 384 1759 384 
Q 2147 384 2411 759 
Q 2675 1134 2675 2259 
Q 2675 3391 2411 3762 
Q 2147 4134 1753 4134 
Q 1366 4134 1134 3806 
Q 844 3388 844 2259 
z
" id="ArialMT-30" transform="scale(0.015625)"/>
       </defs>
       <use xlink:href="#ArialMT-30"/>
      </g>
     </g>
    </g>
    <g id="xtick_2">
     <g id="line2d_2">
      <path clip-path="url(#p84cc543414)" d="M 163.807338 299.559375 
L 163.807338 27.759375 
" style="fill:none;stroke:#cccccc;stroke-linecap:round;"/>
     </g>
     <g id="text_2">
      <!-- 50 -->
      <g style="fill:#262626;" transform="translate(154.909838 320.511875)scale(0.16 -0.16)">
       <defs>
        <path d="M 266 1200 
L 856 1250 
Q 922 819 1161 601 
Q 1400 384 1738 384 
Q 2144 384 2425 690 
Q 2706 997 2706 1503 
Q 2706 1984 2436 2262 
Q 2166 2541 1728 2541 
Q 1456 2541 1237 2417 
Q 1019 2294 894 2097 
L 366 2166 
L 809 4519 
L 3088 4519 
L 3088 3981 
L 1259 3981 
L 1013 2750 
Q 1425 3038 1878 3038 
Q 2478 3038 2890 2622 
Q 3303 2206 3303 1553 
Q 3303 931 2941 478 
Q 2500 -78 1738 -78 
Q 1113 -78 717 272 
Q 322 622 266 1200 
z
" id="ArialMT-35" transform="scale(0.015625)"/>
       </defs>
       <use xlink:href="#ArialMT-35"/>
       <use x="55.615234" xlink:href="#ArialMT-30"/>
      </g>
     </g>
    </g>
    <g id="xtick_3">
     <g id="line2d_3">
      <path clip-path="url(#p84cc543414)" d="M 250.708787 299.559375 
L 250.708787 27.759375 
" style="fill:none;stroke:#cccccc;stroke-linecap:round;"/>
     </g>
     <g id="text_3">
      <!-- 100 -->
      <g style="fill:#262626;" transform="translate(237.362537 320.511875)scale(0.16 -0.16)">
       <defs>
        <path d="M 2384 0 
L 1822 0 
L 1822 3584 
Q 1619 3391 1289 3197 
Q 959 3003 697 2906 
L 697 3450 
Q 1169 3672 1522 3987 
Q 1875 4303 2022 4600 
L 2384 4600 
L 2384 0 
z
" id="ArialMT-31" transform="scale(0.015625)"/>
       </defs>
       <use xlink:href="#ArialMT-31"/>
       <use x="55.615234" xlink:href="#ArialMT-30"/>
       <use x="111.230469" xlink:href="#ArialMT-30"/>
      </g>
     </g>
    </g>
    <g id="xtick_4">
     <g id="line2d_4">
      <path clip-path="url(#p84cc543414)" d="M 337.610237 299.559375 
L 337.610237 27.759375 
" style="fill:none;stroke:#cccccc;stroke-linecap:round;"/>
     </g>
     <g id="text_4">
      <!-- 150 -->
      <g style="fill:#262626;" transform="translate(324.263987 320.511875)scale(0.16 -0.16)">
       <use xlink:href="#ArialMT-31"/>
       <use x="55.615234" xlink:href="#ArialMT-35"/>
       <use x="111.230469" xlink:href="#ArialMT-30"/>
      </g>
     </g>
    </g>
    <g id="xtick_5">
     <g id="line2d_5">
      <path clip-path="url(#p84cc543414)" d="M 424.511686 299.559375 
L 424.511686 27.759375 
" style="fill:none;stroke:#cccccc;stroke-linecap:round;"/>
     </g>
     <g id="text_5">
      <!-- 200 -->
      <g style="fill:#262626;" transform="translate(411.165436 320.511875)scale(0.16 -0.16)">
       <defs>
        <path d="M 3222 541 
L 3222 0 
L 194 0 
Q 188 203 259 391 
Q 375 700 629 1000 
Q 884 1300 1366 1694 
Q 2113 2306 2375 2664 
Q 2638 3022 2638 3341 
Q 2638 3675 2398 3904 
Q 2159 4134 1775 4134 
Q 1369 4134 1125 3890 
Q 881 3647 878 3216 
L 300 3275 
Q 359 3922 746 4261 
Q 1134 4600 1788 4600 
Q 2447 4600 2831 4234 
Q 3216 3869 3216 3328 
Q 3216 3053 3103 2787 
Q 2991 2522 2730 2228 
Q 2469 1934 1863 1422 
Q 1356 997 1212 845 
Q 1069 694 975 541 
L 3222 541 
z
" id="ArialMT-32" transform="scale(0.015625)"/>
       </defs>
       <use xlink:href="#ArialMT-32"/>
       <use x="55.615234" xlink:href="#ArialMT-30"/>
       <use x="111.230469" xlink:href="#ArialMT-30"/>
      </g>
     </g>
    </g>
    <g id="text_6">
     <!-- Epochs -->
     <g style="fill:#262626;" transform="translate(219.82196 340.575938)scale(0.18 -0.18)">
      <defs>
       <path d="M 506 0 
L 506 4581 
L 3819 4581 
L 3819 4041 
L 1113 4041 
L 1113 2638 
L 3647 2638 
L 3647 2100 
L 1113 2100 
L 1113 541 
L 3925 541 
L 3925 0 
L 506 0 
z
" id="ArialMT-45" transform="scale(0.015625)"/>
       <path d="M 422 -1272 
L 422 3319 
L 934 3319 
L 934 2888 
Q 1116 3141 1344 3267 
Q 1572 3394 1897 3394 
Q 2322 3394 2647 3175 
Q 2972 2956 3137 2557 
Q 3303 2159 3303 1684 
Q 3303 1175 3120 767 
Q 2938 359 2589 142 
Q 2241 -75 1856 -75 
Q 1575 -75 1351 44 
Q 1128 163 984 344 
L 984 -1272 
L 422 -1272 
z
M 931 1641 
Q 931 1000 1190 694 
Q 1450 388 1819 388 
Q 2194 388 2461 705 
Q 2728 1022 2728 1688 
Q 2728 2322 2467 2637 
Q 2206 2953 1844 2953 
Q 1484 2953 1207 2617 
Q 931 2281 931 1641 
z
" id="ArialMT-70" transform="scale(0.015625)"/>
       <path d="M 213 1659 
Q 213 2581 725 3025 
Q 1153 3394 1769 3394 
Q 2453 3394 2887 2945 
Q 3322 2497 3322 1706 
Q 3322 1066 3130 698 
Q 2938 331 2570 128 
Q 2203 -75 1769 -75 
Q 1072 -75 642 372 
Q 213 819 213 1659 
z
M 791 1659 
Q 791 1022 1069 705 
Q 1347 388 1769 388 
Q 2188 388 2466 706 
Q 2744 1025 2744 1678 
Q 2744 2294 2464 2611 
Q 2184 2928 1769 2928 
Q 1347 2928 1069 2612 
Q 791 2297 791 1659 
z
" id="ArialMT-6f" transform="scale(0.015625)"/>
       <path d="M 2588 1216 
L 3141 1144 
Q 3050 572 2676 248 
Q 2303 -75 1759 -75 
Q 1078 -75 664 370 
Q 250 816 250 1647 
Q 250 2184 428 2587 
Q 606 2991 970 3192 
Q 1334 3394 1763 3394 
Q 2303 3394 2647 3120 
Q 2991 2847 3088 2344 
L 2541 2259 
Q 2463 2594 2264 2762 
Q 2066 2931 1784 2931 
Q 1359 2931 1093 2626 
Q 828 2322 828 1663 
Q 828 994 1084 691 
Q 1341 388 1753 388 
Q 2084 388 2306 591 
Q 2528 794 2588 1216 
z
" id="ArialMT-63" transform="scale(0.015625)"/>
       <path d="M 422 0 
L 422 4581 
L 984 4581 
L 984 2938 
Q 1378 3394 1978 3394 
Q 2347 3394 2619 3248 
Q 2891 3103 3008 2847 
Q 3125 2591 3125 2103 
L 3125 0 
L 2563 0 
L 2563 2103 
Q 2563 2525 2380 2717 
Q 2197 2909 1863 2909 
Q 1613 2909 1392 2779 
Q 1172 2650 1078 2428 
Q 984 2206 984 1816 
L 984 0 
L 422 0 
z
" id="ArialMT-68" transform="scale(0.015625)"/>
       <path d="M 197 991 
L 753 1078 
Q 800 744 1014 566 
Q 1228 388 1613 388 
Q 2000 388 2187 545 
Q 2375 703 2375 916 
Q 2375 1106 2209 1216 
Q 2094 1291 1634 1406 
Q 1016 1563 777 1677 
Q 538 1791 414 1992 
Q 291 2194 291 2438 
Q 291 2659 392 2848 
Q 494 3038 669 3163 
Q 800 3259 1026 3326 
Q 1253 3394 1513 3394 
Q 1903 3394 2198 3281 
Q 2494 3169 2634 2976 
Q 2775 2784 2828 2463 
L 2278 2388 
Q 2241 2644 2061 2787 
Q 1881 2931 1553 2931 
Q 1166 2931 1000 2803 
Q 834 2675 834 2503 
Q 834 2394 903 2306 
Q 972 2216 1119 2156 
Q 1203 2125 1616 2013 
Q 2213 1853 2448 1751 
Q 2684 1650 2818 1456 
Q 2953 1263 2953 975 
Q 2953 694 2789 445 
Q 2625 197 2315 61 
Q 2006 -75 1616 -75 
Q 969 -75 630 194 
Q 291 463 197 991 
z
" id="ArialMT-73" transform="scale(0.015625)"/>
      </defs>
      <use xlink:href="#ArialMT-45"/>
      <use x="66.699219" xlink:href="#ArialMT-70"/>
      <use x="122.314453" xlink:href="#ArialMT-6f"/>
      <use x="177.929688" xlink:href="#ArialMT-63"/>
      <use x="227.929688" xlink:href="#ArialMT-68"/>
      <use x="283.544922" xlink:href="#ArialMT-73"/>
     </g>
    </g>
   </g>
   <g id="matplotlib.axis_2">
    <g id="ytick_1">
     <g id="line2d_6">
      <path clip-path="url(#p84cc543414)" d="M 59.6125 254.259375 
L 440.067045 254.259375 
" style="fill:none;stroke:#cccccc;stroke-linecap:round;"/>
     </g>
     <g id="text_7">
      <!-- 0.6 -->
      <g style="fill:#262626;" transform="translate(27.8725 259.985625)scale(0.16 -0.16)">
       <defs>
        <path d="M 581 0 
L 581 641 
L 1222 641 
L 1222 0 
L 581 0 
z
" id="ArialMT-2e" transform="scale(0.015625)"/>
        <path d="M 3184 3459 
L 2625 3416 
Q 2550 3747 2413 3897 
Q 2184 4138 1850 4138 
Q 1581 4138 1378 3988 
Q 1113 3794 959 3422 
Q 806 3050 800 2363 
Q 1003 2672 1297 2822 
Q 1591 2972 1913 2972 
Q 2475 2972 2870 2558 
Q 3266 2144 3266 1488 
Q 3266 1056 3080 686 
Q 2894 316 2569 119 
Q 2244 -78 1831 -78 
Q 1128 -78 684 439 
Q 241 956 241 2144 
Q 241 3472 731 4075 
Q 1159 4600 1884 4600 
Q 2425 4600 2770 4297 
Q 3116 3994 3184 3459 
z
M 888 1484 
Q 888 1194 1011 928 
Q 1134 663 1356 523 
Q 1578 384 1822 384 
Q 2178 384 2434 671 
Q 2691 959 2691 1453 
Q 2691 1928 2437 2201 
Q 2184 2475 1800 2475 
Q 1419 2475 1153 2201 
Q 888 1928 888 1484 
z
" id="ArialMT-36" transform="scale(0.015625)"/>
       </defs>
       <use xlink:href="#ArialMT-30"/>
       <use x="55.615234" xlink:href="#ArialMT-2e"/>
       <use x="83.398438" xlink:href="#ArialMT-36"/>
      </g>
     </g>
    </g>
    <g id="ytick_2">
     <g id="line2d_7">
      <path clip-path="url(#p84cc543414)" d="M 59.6125 197.634375 
L 440.067045 197.634375 
" style="fill:none;stroke:#cccccc;stroke-linecap:round;"/>
     </g>
     <g id="text_8">
      <!-- 0.7 -->
      <g style="fill:#262626;" transform="translate(27.8725 203.360625)scale(0.16 -0.16)">
       <defs>
        <path d="M 303 3981 
L 303 4522 
L 3269 4522 
L 3269 4084 
Q 2831 3619 2401 2847 
Q 1972 2075 1738 1259 
Q 1569 684 1522 0 
L 944 0 
Q 953 541 1156 1306 
Q 1359 2072 1739 2783 
Q 2119 3494 2547 3981 
L 303 3981 
z
" id="ArialMT-37" transform="scale(0.015625)"/>
       </defs>
       <use xlink:href="#ArialMT-30"/>
       <use x="55.615234" xlink:href="#ArialMT-2e"/>
       <use x="83.398438" xlink:href="#ArialMT-37"/>
      </g>
     </g>
    </g>
    <g id="ytick_3">
     <g id="line2d_8">
      <path clip-path="url(#p84cc543414)" d="M 59.6125 141.009375 
L 440.067045 141.009375 
" style="fill:none;stroke:#cccccc;stroke-linecap:round;"/>
     </g>
     <g id="text_9">
      <!-- 0.8 -->
      <g style="fill:#262626;" transform="translate(27.8725 146.735625)scale(0.16 -0.16)">
       <defs>
        <path d="M 1131 2484 
Q 781 2613 612 2850 
Q 444 3088 444 3419 
Q 444 3919 803 4259 
Q 1163 4600 1759 4600 
Q 2359 4600 2725 4251 
Q 3091 3903 3091 3403 
Q 3091 3084 2923 2848 
Q 2756 2613 2416 2484 
Q 2838 2347 3058 2040 
Q 3278 1734 3278 1309 
Q 3278 722 2862 322 
Q 2447 -78 1769 -78 
Q 1091 -78 675 323 
Q 259 725 259 1325 
Q 259 1772 486 2073 
Q 713 2375 1131 2484 
z
M 1019 3438 
Q 1019 3113 1228 2906 
Q 1438 2700 1772 2700 
Q 2097 2700 2305 2904 
Q 2513 3109 2513 3406 
Q 2513 3716 2298 3927 
Q 2084 4138 1766 4138 
Q 1444 4138 1231 3931 
Q 1019 3725 1019 3438 
z
M 838 1322 
Q 838 1081 952 856 
Q 1066 631 1291 507 
Q 1516 384 1775 384 
Q 2178 384 2440 643 
Q 2703 903 2703 1303 
Q 2703 1709 2433 1975 
Q 2163 2241 1756 2241 
Q 1359 2241 1098 1978 
Q 838 1716 838 1322 
z
" id="ArialMT-38" transform="scale(0.015625)"/>
       </defs>
       <use xlink:href="#ArialMT-30"/>
       <use x="55.615234" xlink:href="#ArialMT-2e"/>
       <use x="83.398438" xlink:href="#ArialMT-38"/>
      </g>
     </g>
    </g>
    <g id="ytick_4">
     <g id="line2d_9">
      <path clip-path="url(#p84cc543414)" d="M 59.6125 84.384375 
L 440.067045 84.384375 
" style="fill:none;stroke:#cccccc;stroke-linecap:round;"/>
     </g>
     <g id="text_10">
      <!-- 0.9 -->
      <g style="fill:#262626;" transform="translate(27.8725 90.110625)scale(0.16 -0.16)">
       <defs>
        <path d="M 350 1059 
L 891 1109 
Q 959 728 1153 556 
Q 1347 384 1650 384 
Q 1909 384 2104 503 
Q 2300 622 2425 820 
Q 2550 1019 2634 1356 
Q 2719 1694 2719 2044 
Q 2719 2081 2716 2156 
Q 2547 1888 2255 1720 
Q 1963 1553 1622 1553 
Q 1053 1553 659 1965 
Q 266 2378 266 3053 
Q 266 3750 677 4175 
Q 1088 4600 1706 4600 
Q 2153 4600 2523 4359 
Q 2894 4119 3086 3673 
Q 3278 3228 3278 2384 
Q 3278 1506 3087 986 
Q 2897 466 2520 194 
Q 2144 -78 1638 -78 
Q 1100 -78 759 220 
Q 419 519 350 1059 
z
M 2653 3081 
Q 2653 3566 2395 3850 
Q 2138 4134 1775 4134 
Q 1400 4134 1122 3828 
Q 844 3522 844 3034 
Q 844 2597 1108 2323 
Q 1372 2050 1759 2050 
Q 2150 2050 2401 2323 
Q 2653 2597 2653 3081 
z
" id="ArialMT-39" transform="scale(0.015625)"/>
       </defs>
       <use xlink:href="#ArialMT-30"/>
       <use x="55.615234" xlink:href="#ArialMT-2e"/>
       <use x="83.398438" xlink:href="#ArialMT-39"/>
      </g>
     </g>
    </g>
    <g id="ytick_5">
     <g id="line2d_10">
      <path clip-path="url(#p84cc543414)" d="M 59.6125 27.759375 
L 440.067045 27.759375 
" style="fill:none;stroke:#cccccc;stroke-linecap:round;"/>
     </g>
     <g id="text_11">
      <!-- 1.0 -->
      <g style="fill:#262626;" transform="translate(27.8725 33.485625)scale(0.16 -0.16)">
       <use xlink:href="#ArialMT-31"/>
       <use x="55.615234" xlink:href="#ArialMT-2e"/>
       <use x="83.398438" xlink:href="#ArialMT-30"/>
      </g>
     </g>
    </g>
    <g id="text_12">
     <!-- Accuracy -->
     <g style="fill:#262626;" transform="translate(20.084063 200.669062)rotate(-90)scale(0.18 -0.18)">
      <defs>
       <path d="M -9 0 
L 1750 4581 
L 2403 4581 
L 4278 0 
L 3588 0 
L 3053 1388 
L 1138 1388 
L 634 0 
L -9 0 
z
M 1313 1881 
L 2866 1881 
L 2388 3150 
Q 2169 3728 2063 4100 
Q 1975 3659 1816 3225 
L 1313 1881 
z
" id="ArialMT-41" transform="scale(0.015625)"/>
       <path d="M 2597 0 
L 2597 488 
Q 2209 -75 1544 -75 
Q 1250 -75 995 37 
Q 741 150 617 320 
Q 494 491 444 738 
Q 409 903 409 1263 
L 409 3319 
L 972 3319 
L 972 1478 
Q 972 1038 1006 884 
Q 1059 663 1231 536 
Q 1403 409 1656 409 
Q 1909 409 2131 539 
Q 2353 669 2445 892 
Q 2538 1116 2538 1541 
L 2538 3319 
L 3100 3319 
L 3100 0 
L 2597 0 
z
" id="ArialMT-75" transform="scale(0.015625)"/>
       <path d="M 416 0 
L 416 3319 
L 922 3319 
L 922 2816 
Q 1116 3169 1280 3281 
Q 1444 3394 1641 3394 
Q 1925 3394 2219 3213 
L 2025 2691 
Q 1819 2813 1613 2813 
Q 1428 2813 1281 2702 
Q 1134 2591 1072 2394 
Q 978 2094 978 1738 
L 978 0 
L 416 0 
z
" id="ArialMT-72" transform="scale(0.015625)"/>
       <path d="M 2588 409 
Q 2275 144 1986 34 
Q 1697 -75 1366 -75 
Q 819 -75 525 192 
Q 231 459 231 875 
Q 231 1119 342 1320 
Q 453 1522 633 1644 
Q 813 1766 1038 1828 
Q 1203 1872 1538 1913 
Q 2219 1994 2541 2106 
Q 2544 2222 2544 2253 
Q 2544 2597 2384 2738 
Q 2169 2928 1744 2928 
Q 1347 2928 1158 2789 
Q 969 2650 878 2297 
L 328 2372 
Q 403 2725 575 2942 
Q 747 3159 1072 3276 
Q 1397 3394 1825 3394 
Q 2250 3394 2515 3294 
Q 2781 3194 2906 3042 
Q 3031 2891 3081 2659 
Q 3109 2516 3109 2141 
L 3109 1391 
Q 3109 606 3145 398 
Q 3181 191 3288 0 
L 2700 0 
Q 2613 175 2588 409 
z
M 2541 1666 
Q 2234 1541 1622 1453 
Q 1275 1403 1131 1340 
Q 988 1278 909 1158 
Q 831 1038 831 891 
Q 831 666 1001 516 
Q 1172 366 1500 366 
Q 1825 366 2078 508 
Q 2331 650 2450 897 
Q 2541 1088 2541 1459 
L 2541 1666 
z
" id="ArialMT-61" transform="scale(0.015625)"/>
       <path d="M 397 -1278 
L 334 -750 
Q 519 -800 656 -800 
Q 844 -800 956 -737 
Q 1069 -675 1141 -563 
Q 1194 -478 1313 -144 
Q 1328 -97 1363 -6 
L 103 3319 
L 709 3319 
L 1400 1397 
Q 1534 1031 1641 628 
Q 1738 1016 1872 1384 
L 2581 3319 
L 3144 3319 
L 1881 -56 
Q 1678 -603 1566 -809 
Q 1416 -1088 1222 -1217 
Q 1028 -1347 759 -1347 
Q 597 -1347 397 -1278 
z
" id="ArialMT-79" transform="scale(0.015625)"/>
      </defs>
      <use xlink:href="#ArialMT-41"/>
      <use x="66.699219" xlink:href="#ArialMT-63"/>
      <use x="116.699219" xlink:href="#ArialMT-63"/>
      <use x="166.699219" xlink:href="#ArialMT-75"/>
      <use x="222.314453" xlink:href="#ArialMT-72"/>
      <use x="255.615234" xlink:href="#ArialMT-61"/>
      <use x="311.230469" xlink:href="#ArialMT-63"/>
      <use x="361.230469" xlink:href="#ArialMT-79"/>
     </g>
    </g>
   </g>
   <g id="line2d_11">
    <path clip-path="url(#p84cc543414)" d="M 76.905888 180.253562 
L 78.643917 154.325134 
L 80.381946 157.401415 
L 82.119975 139.16362 
L 83.858004 141.580674 
L 85.596033 130.37432 
L 87.334062 137.845234 
L 89.072091 123.782353 
L 90.81012 130.813793 
L 92.548149 130.594073 
L 94.286178 120.706106 
L 96.024207 120.486386 
L 97.762236 126.41916 
L 99.500265 118.728526 
L 101.238294 114.553612 
L 102.976323 119.387719 
L 104.714352 117.849613 
L 106.452381 112.576032 
L 108.19041 110.598419 
L 109.928439 109.719506 
L 111.666468 118.948246 
L 113.404497 110.598419 
L 115.142526 113.454946 
L 116.880555 109.280032 
L 118.618584 113.894419 
L 120.356613 120.046913 
L 122.094642 107.082732 
L 123.832671 121.585053 
L 125.5707 115.652279 
L 127.308729 106.862979 
L 129.046758 105.324872 
L 130.784787 111.037892 
L 132.522816 116.091753 
L 134.260845 106.203785 
L 135.998874 105.984065 
L 137.736903 109.499786 
L 139.474932 109.719506 
L 141.212961 108.840559 
L 142.95099 103.127539 
L 144.689019 100.051292 
L 146.427048 109.719506 
L 148.165077 99.392099 
L 149.903106 102.907819 
L 151.641135 104.885399 
L 153.379164 106.643259 
L 155.117193 103.347258 
L 156.855222 112.136559 
L 158.593251 109.939225 
L 160.33128 101.809152 
L 162.069309 103.786732 
L 163.807338 102.688065 
L 165.545367 106.423505 
L 167.283396 111.697086 
L 169.021425 105.764312 
L 170.759454 104.226205 
L 172.497483 100.710485 
L 174.235512 107.961645 
L 175.973541 102.248592 
L 177.71157 106.423505 
L 179.449599 103.347258 
L 181.187628 99.392099 
L 182.925657 103.347258 
L 184.663686 106.862979 
L 186.401715 109.939225 
L 188.139744 102.688065 
L 189.877773 98.732905 
L 191.615802 100.490765 
L 193.353831 104.226205 
L 195.09186 103.567012 
L 196.829889 96.535572 
L 198.567918 107.522172 
L 200.305947 100.490765 
L 202.043976 103.567012 
L 203.782005 107.741926 
L 205.520034 108.181365 
L 207.258063 104.226205 
L 208.996092 112.136559 
L 210.73412 105.984065 
L 212.472149 106.643259 
L 214.210178 102.468345 
L 215.948207 104.006452 
L 217.686236 101.809152 
L 219.424265 100.051292 
L 221.162294 99.611818 
L 222.900323 101.149959 
L 224.638352 104.226205 
L 226.376381 107.741926 
L 228.11441 100.930205 
L 229.852439 100.271012 
L 231.590468 101.369678 
L 233.328497 104.885399 
L 235.066526 102.248592 
L 236.804555 104.445925 
L 238.542584 105.105119 
L 240.280613 104.445925 
L 242.018642 109.499786 
L 243.756671 104.006452 
L 245.4947 102.468345 
L 247.232729 104.006452 
L 248.970758 107.961645 
L 250.708787 102.907819 
L 252.446816 101.149959 
L 254.184845 100.051292 
L 255.922874 100.930205 
L 257.660903 100.051292 
L 259.398932 106.203785 
L 261.136961 107.741926 
L 262.87499 104.885399 
L 264.613019 100.710485 
L 268.089077 97.634238 
L 269.827106 98.732905 
L 271.565135 107.741926 
L 273.303164 101.809152 
L 275.041193 99.831538 
L 276.779222 103.347258 
L 278.517251 99.611818 
L 280.25528 103.127539 
L 281.993309 100.490765 
L 283.731338 105.544592 
L 285.469367 104.006452 
L 287.207396 104.445925 
L 288.945425 105.764312 
L 290.683454 100.051292 
L 292.421483 99.611818 
L 294.159512 100.490765 
L 295.897541 102.688065 
L 297.63557 99.831538 
L 299.373599 100.710485 
L 301.111628 108.401119 
L 302.849657 100.051292 
L 304.587686 97.194765 
L 306.325715 104.226205 
L 308.063744 100.271012 
L 309.801773 102.248592 
L 313.277831 101.809152 
L 315.01586 101.369678 
L 316.753889 98.952625 
L 318.491918 104.665645 
L 320.229947 99.831538 
L 321.967976 103.567012 
L 323.706005 100.271012 
L 325.444034 91.481711 
L 327.182063 96.096098 
L 328.920092 97.853958 
L 330.658121 102.468345 
L 332.39615 98.073678 
L 334.134179 101.589398 
L 335.872208 99.611818 
L 337.610237 99.831538 
L 339.348266 101.589398 
L 341.086295 101.149959 
L 342.824324 104.665645 
L 344.562353 100.490765 
L 346.300382 99.172345 
L 348.038411 103.127539 
L 349.77644 97.414485 
L 351.514469 98.293432 
L 353.252498 100.271012 
L 356.728555 100.271012 
L 358.466584 103.127539 
L 360.204613 103.786732 
L 361.942642 99.611818 
L 363.680671 103.347258 
L 365.4187 103.127539 
L 367.156729 98.952625 
L 368.894758 102.248592 
L 370.632787 100.271012 
L 372.370816 99.392099 
L 374.108845 100.930205 
L 375.846874 102.907819 
L 377.584903 101.369678 
L 379.322932 100.710485 
L 381.060961 96.755291 
L 382.79899 101.589398 
L 384.537019 95.876378 
L 386.275048 102.028872 
L 388.013077 101.589398 
L 389.751106 94.338238 
L 391.489135 98.293432 
L 393.227164 97.853958 
L 394.965193 96.315852 
L 396.703222 97.853958 
L 398.441251 95.436905 
L 400.17928 96.755291 
L 401.917309 101.589398 
L 403.655338 98.732905 
L 405.393367 101.589398 
L 407.131396 97.634238 
L 408.869425 100.271012 
L 410.607454 100.051292 
L 412.345483 102.468345 
L 414.083512 92.800132 
L 415.821541 98.513152 
L 417.55957 94.557992 
L 419.297599 98.293432 
L 421.035628 96.755291 
L 422.773657 101.369678 
L 422.773657 101.369678 
" style="fill:none;stroke:#4c72b0;stroke-linecap:round;stroke-width:1.5;"/>
   </g>
   <g id="line2d_12">
    <path clip-path="url(#p84cc543414)" d="M 76.905888 175.639175 
L 78.643917 157.401415 
L 80.381946 162.674961 
L 82.119975 159.159275 
L 83.858004 158.060608 
L 85.596033 145.755587 
L 87.334062 146.634534 
L 89.072091 144.65692 
L 90.81012 144.437201 
L 92.548149 140.92148 
L 94.286178 140.70176 
L 96.024207 144.65692 
L 97.762236 138.504427 
L 99.500265 140.482007 
L 101.238294 145.316114 
L 102.976323 139.822814 
L 104.714352 135.6479 
L 106.452381 134.329513 
L 108.19041 129.715126 
L 109.928439 132.351933 
L 111.666468 125.759966 
L 113.404497 129.495406 
L 115.142526 134.549233 
L 116.880555 128.836213 
L 118.618584 130.813793 
L 120.356613 125.320493 
L 122.094642 124.6613 
L 123.832671 130.594073 
L 125.5707 123.342913 
L 127.308729 124.44158 
L 129.046758 125.320493 
L 130.784787 122.244246 
L 132.522816 122.463966 
L 134.260845 122.244246 
L 135.998874 124.44158 
L 137.736903 117.190386 
L 139.474932 125.759966 
L 141.212961 126.41916 
L 142.95099 124.221826 
L 144.689019 126.199406 
L 146.427048 126.858633 
L 148.165077 121.585053 
L 149.903106 123.123159 
L 151.641135 120.266666 
L 153.379164 120.92586 
L 155.117193 122.463966 
L 156.855222 120.046913 
L 158.593251 118.948246 
L 162.069309 120.266666 
L 163.807338 117.410139 
L 165.545367 121.365299 
L 167.283396 117.410139 
L 169.021425 118.508806 
L 170.759454 113.674699 
L 172.497483 113.015472 
L 174.235512 119.167999 
L 175.973541 121.804773 
L 177.71157 113.454946 
L 179.449599 117.849613 
L 181.187628 117.629859 
L 182.925657 116.750946 
L 184.663686 113.235226 
L 186.401715 121.365299 
L 188.139744 118.069333 
L 189.877773 112.356279 
L 191.615802 109.499786 
L 193.353831 107.961645 
L 195.09186 113.015472 
L 196.829889 107.522172 
L 198.567918 114.333893 
L 200.305947 110.598419 
L 202.043976 115.432526 
L 203.782005 109.939225 
L 205.520034 114.553612 
L 207.258063 114.333893 
L 208.996092 116.091753 
L 210.73412 111.037892 
L 212.472149 114.553612 
L 214.210178 111.257612 
L 215.948207 116.091753 
L 217.686236 113.674699 
L 219.424265 107.302452 
L 221.162294 119.387719 
L 222.900323 114.114139 
L 224.638352 105.764312 
L 226.376381 110.818172 
L 228.11441 110.378699 
L 229.852439 110.158979 
L 231.590468 112.576032 
L 233.328497 113.894419 
L 235.066526 110.818172 
L 236.804555 114.773332 
L 238.542584 104.226205 
L 240.280613 102.688065 
L 242.018642 108.840559 
L 243.756671 108.840559 
L 245.4947 111.257612 
L 247.232729 113.015472 
L 248.970758 110.378699 
L 250.708787 111.037892 
L 252.446816 107.302452 
L 254.184845 109.280032 
L 255.922874 114.114139 
L 257.660903 109.280032 
L 259.398932 107.522172 
L 261.136961 104.226205 
L 262.87499 107.741926 
L 264.613019 109.499786 
L 266.351048 107.741926 
L 268.089077 108.401119 
L 269.827106 106.203785 
L 271.565135 104.885399 
L 273.303164 107.961645 
L 275.041193 108.840559 
L 276.779222 107.961645 
L 278.517251 103.567012 
L 280.25528 104.226205 
L 281.993309 104.665645 
L 283.731338 107.522172 
L 285.469367 106.862979 
L 287.207396 100.271012 
L 288.945425 102.907819 
L 290.683454 99.831538 
L 292.421483 106.643259 
L 294.159512 104.885399 
L 295.897541 103.567012 
L 297.63557 105.764312 
L 299.373599 107.082732 
L 301.111628 108.620839 
L 302.849657 100.930205 
L 304.587686 108.401119 
L 306.325715 107.961645 
L 308.063744 112.576032 
L 309.801773 104.665645 
L 311.539802 109.280032 
L 313.277831 114.333893 
L 315.01586 105.764312 
L 316.753889 103.347258 
L 318.491918 103.567012 
L 320.229947 108.620839 
L 321.967976 105.324872 
L 323.706005 102.688065 
L 325.444034 101.809152 
L 327.182063 103.127539 
L 328.920092 107.961645 
L 330.658121 101.589398 
L 332.39615 109.060312 
L 334.134179 101.369678 
L 335.872208 105.324872 
L 337.610237 101.149959 
L 339.348266 105.984065 
L 341.086295 104.226205 
L 342.824324 100.930205 
L 344.562353 107.522172 
L 346.300382 98.952625 
L 348.038411 106.862979 
L 349.77644 98.293432 
L 351.514469 104.665645 
L 353.252498 103.567012 
L 354.990526 107.302452 
L 356.728555 107.082732 
L 358.466584 103.567012 
L 360.204613 105.544592 
L 361.942642 104.665645 
L 363.680671 102.907819 
L 365.4187 104.006452 
L 367.156729 100.051292 
L 368.894758 104.445925 
L 370.632787 96.535572 
L 372.370816 101.369678 
L 374.108845 102.468345 
L 375.846874 101.809152 
L 377.584903 104.006452 
L 379.322932 103.786732 
L 381.060961 102.248592 
L 382.79899 102.028872 
L 384.537019 101.149959 
L 386.275048 98.293432 
L 388.013077 101.809152 
L 389.751106 101.149959 
L 391.489135 107.082732 
L 393.227164 100.490765 
L 394.965193 102.688065 
L 396.703222 102.248592 
L 398.441251 100.051292 
L 400.17928 99.172345 
L 401.917309 104.226205 
L 403.655338 99.392099 
L 405.393367 100.930205 
L 407.131396 99.831538 
L 408.869425 98.073678 
L 410.607454 101.589398 
L 412.345483 102.468345 
L 414.083512 98.293432 
L 415.821541 99.831538 
L 417.55957 99.831538 
L 419.297599 95.876378 
L 421.035628 104.885399 
L 422.773657 100.051292 
L 422.773657 100.051292 
" style="fill:none;stroke:#dd8452;stroke-linecap:round;stroke-width:1.5;"/>
   </g>
   <g id="line2d_13">
    <path clip-path="url(#p84cc543414)" d="M 76.905888 290.559141 
L 78.643917 273.859487 
L 80.381946 274.958153 
L 82.119975 274.738433 
L 83.858004 277.81468 
L 85.596033 262.433413 
L 87.334062 262.213693 
L 89.072091 266.388606 
L 90.81012 266.608326 
L 92.548149 258.258499 
L 94.286178 259.796639 
L 96.024207 257.379586 
L 97.762236 261.115026 
L 99.500265 255.841446 
L 101.238294 256.061166 
L 102.976323 253.204672 
L 104.714352 259.357166 
L 106.452381 259.576886 
L 108.19041 259.137446 
L 109.928439 256.500639 
L 111.666468 254.742779 
L 113.404497 254.303305 
L 115.142526 255.401972 
L 116.880555 258.038779 
L 118.618584 257.159832 
L 120.356613 253.863866 
L 122.094642 258.258499 
L 123.832671 255.182252 
L 125.5707 258.258499 
L 127.308729 250.128392 
L 129.046758 258.917692 
L 130.784787 250.787619 
L 132.522816 249.469199 
L 134.260845 256.061166 
L 135.998874 254.962533 
L 137.736903 252.545479 
L 139.474932 250.348146 
L 141.212961 251.886252 
L 142.95099 249.249479 
L 144.689019 251.007339 
L 146.427048 245.733759 
L 148.165077 248.810005 
L 149.903106 252.545479 
L 151.641135 249.908672 
L 153.379164 250.787619 
L 155.117193 252.984919 
L 156.855222 257.379586 
L 158.593251 249.908672 
L 160.33128 255.621726 
L 162.069309 245.514039 
L 163.807338 249.908672 
L 165.545367 251.227059 
L 167.283396 248.810005 
L 169.021425 248.590285 
L 170.759454 247.491619 
L 172.497483 249.249479 
L 174.235512 251.446812 
L 175.973541 252.545479 
L 177.71157 250.348146 
L 179.449599 249.469199 
L 181.187628 252.106006 
L 182.925657 250.348146 
L 184.663686 250.348146 
L 186.401715 243.975898 
L 188.139744 247.711338 
L 189.877773 247.271899 
L 191.615802 244.635092 
L 193.353831 247.052145 
L 195.09186 248.370566 
L 196.829889 246.832425 
L 198.567918 250.787619 
L 200.305947 246.832425 
L 202.043976 247.491619 
L 203.782005 251.666532 
L 205.520034 247.491619 
L 207.258063 249.688952 
L 208.996092 250.567865 
L 210.73412 257.159832 
L 212.472149 252.545479 
L 214.210178 248.370566 
L 215.948207 243.316705 
L 217.686236 243.975898 
L 219.424265 245.514039 
L 221.162294 245.074565 
L 222.900323 244.415372 
L 224.638352 247.271899 
L 226.376381 247.931092 
L 228.11441 244.195652 
L 229.852439 246.173232 
L 231.590468 246.173232 
L 233.328497 253.644112 
L 235.066526 248.150812 
L 236.804555 251.227059 
L 240.280613 242.437792 
L 242.018642 245.733759 
L 243.756671 243.756179 
L 245.4947 245.733759 
L 247.232729 243.536425 
L 248.970758 246.392952 
L 250.708787 242.877232 
L 252.446816 241.119372 
L 254.184845 243.536425 
L 255.922874 242.218038 
L 257.660903 244.635092 
L 259.398932 243.975898 
L 261.136961 246.173232 
L 262.87499 241.778599 
L 266.351048 244.415372 
L 268.089077 240.020738 
L 269.827106 241.998318 
L 271.565135 236.944458 
L 273.303164 241.998318 
L 275.041193 243.536425 
L 276.779222 247.711338 
L 278.517251 245.074565 
L 280.25528 243.096985 
L 281.993309 244.635092 
L 283.731338 242.218038 
L 285.469367 238.922072 
L 287.207396 244.635092 
L 288.945425 239.141792 
L 290.683454 239.141792 
L 292.421483 240.679932 
L 294.159512 241.558845 
L 295.897541 241.998318 
L 297.63557 240.240458 
L 299.373599 238.702318 
L 301.111628 239.361545 
L 302.849657 235.845825 
L 304.587686 241.119372 
L 306.325715 243.316705 
L 308.063744 242.877232 
L 311.539802 238.043125 
L 313.277831 240.020738 
L 315.01586 243.536425 
L 316.753889 239.581265 
L 318.491918 238.702318 
L 320.229947 241.778599 
L 321.967976 239.581265 
L 323.706005 238.043125 
L 325.444034 240.460178 
L 327.182063 242.657512 
L 328.920092 240.240458 
L 330.658121 241.998318 
L 332.39615 240.460178 
L 334.134179 244.195652 
L 335.872208 239.361545 
L 337.610237 238.262878 
L 339.348266 234.747158 
L 341.086295 240.899652 
L 342.824324 234.747158 
L 344.562353 232.330105 
L 346.300382 233.868211 
L 348.038411 242.437792 
L 349.77644 240.679932 
L 351.514469 238.482598 
L 353.252498 238.922072 
L 354.990526 237.823405 
L 356.728555 244.635092 
L 358.466584 242.437792 
L 360.204613 246.392952 
L 361.942642 238.262878 
L 363.680671 241.339125 
L 365.4187 240.899652 
L 367.156729 240.679932 
L 368.894758 238.922072 
L 370.632787 238.262878 
L 372.370816 240.020738 
L 374.108845 237.603685 
L 375.846874 239.581265 
L 377.584903 238.702318 
L 379.322932 236.944458 
L 381.060961 241.119372 
L 382.79899 246.832425 
L 384.537019 238.702318 
L 386.275048 244.854845 
L 388.013077 234.087965 
L 389.751106 236.285265 
L 391.489135 240.240458 
L 393.227164 238.262878 
L 394.965193 241.778599 
L 396.703222 234.527405 
L 398.441251 242.218038 
L 400.17928 241.339125 
L 401.917309 234.966878 
L 403.655338 240.460178 
L 407.131396 241.778599 
L 408.869425 238.702318 
L 410.607454 238.702318 
L 412.345483 239.141792 
L 414.083512 239.141792 
L 415.821541 239.800985 
L 417.55957 234.307685 
L 419.297599 245.514039 
L 421.035628 241.119372 
L 422.773657 241.119372 
L 422.773657 241.119372 
" style="fill:none;stroke:#55a868;stroke-linecap:round;stroke-width:1.5;"/>
   </g>
   <g id="patch_3">
    <path d="M 59.6125 299.559375 
L 59.6125 27.759375 
" style="fill:none;stroke:#cccccc;stroke-linecap:square;stroke-linejoin:miter;stroke-width:1.25;"/>
   </g>
   <g id="patch_4">
    <path d="M 440.067045 299.559375 
L 440.067045 27.759375 
" style="fill:none;stroke:#cccccc;stroke-linecap:square;stroke-linejoin:miter;stroke-width:1.25;"/>
   </g>
   <g id="patch_5">
    <path d="M 59.6125 299.559375 
L 440.067045 299.559375 
" style="fill:none;stroke:#cccccc;stroke-linecap:square;stroke-linejoin:miter;stroke-width:1.25;"/>
   </g>
   <g id="patch_6">
    <path d="M 59.6125 27.759375 
L 440.067045 27.759375 
" style="fill:none;stroke:#cccccc;stroke-linecap:square;stroke-linejoin:miter;stroke-width:1.25;"/>
   </g>
   <g id="text_13">
    <!-- Accuracy for model with ancient samples -->
    <g style="fill:#262626;" transform="translate(68.66321 21.759375)scale(0.2 -0.2)">
     <defs>
      <path id="ArialMT-20" transform="scale(0.015625)"/>
      <path d="M 556 0 
L 556 2881 
L 59 2881 
L 59 3319 
L 556 3319 
L 556 3672 
Q 556 4006 616 4169 
Q 697 4388 901 4523 
Q 1106 4659 1475 4659 
Q 1713 4659 2000 4603 
L 1916 4113 
Q 1741 4144 1584 4144 
Q 1328 4144 1222 4034 
Q 1116 3925 1116 3625 
L 1116 3319 
L 1763 3319 
L 1763 2881 
L 1116 2881 
L 1116 0 
L 556 0 
z
" id="ArialMT-66" transform="scale(0.015625)"/>
      <path d="M 422 0 
L 422 3319 
L 925 3319 
L 925 2853 
Q 1081 3097 1340 3245 
Q 1600 3394 1931 3394 
Q 2300 3394 2536 3241 
Q 2772 3088 2869 2813 
Q 3263 3394 3894 3394 
Q 4388 3394 4653 3120 
Q 4919 2847 4919 2278 
L 4919 0 
L 4359 0 
L 4359 2091 
Q 4359 2428 4304 2576 
Q 4250 2725 4106 2815 
Q 3963 2906 3769 2906 
Q 3419 2906 3187 2673 
Q 2956 2441 2956 1928 
L 2956 0 
L 2394 0 
L 2394 2156 
Q 2394 2531 2256 2718 
Q 2119 2906 1806 2906 
Q 1569 2906 1367 2781 
Q 1166 2656 1075 2415 
Q 984 2175 984 1722 
L 984 0 
L 422 0 
z
" id="ArialMT-6d" transform="scale(0.015625)"/>
      <path d="M 2575 0 
L 2575 419 
Q 2259 -75 1647 -75 
Q 1250 -75 917 144 
Q 584 363 401 755 
Q 219 1147 219 1656 
Q 219 2153 384 2558 
Q 550 2963 881 3178 
Q 1213 3394 1622 3394 
Q 1922 3394 2156 3267 
Q 2391 3141 2538 2938 
L 2538 4581 
L 3097 4581 
L 3097 0 
L 2575 0 
z
M 797 1656 
Q 797 1019 1065 703 
Q 1334 388 1700 388 
Q 2069 388 2326 689 
Q 2584 991 2584 1609 
Q 2584 2291 2321 2609 
Q 2059 2928 1675 2928 
Q 1300 2928 1048 2622 
Q 797 2316 797 1656 
z
" id="ArialMT-64" transform="scale(0.015625)"/>
      <path d="M 2694 1069 
L 3275 997 
Q 3138 488 2766 206 
Q 2394 -75 1816 -75 
Q 1088 -75 661 373 
Q 234 822 234 1631 
Q 234 2469 665 2931 
Q 1097 3394 1784 3394 
Q 2450 3394 2872 2941 
Q 3294 2488 3294 1666 
Q 3294 1616 3291 1516 
L 816 1516 
Q 847 969 1125 678 
Q 1403 388 1819 388 
Q 2128 388 2347 550 
Q 2566 713 2694 1069 
z
M 847 1978 
L 2700 1978 
Q 2663 2397 2488 2606 
Q 2219 2931 1791 2931 
Q 1403 2931 1139 2672 
Q 875 2413 847 1978 
z
" id="ArialMT-65" transform="scale(0.015625)"/>
      <path d="M 409 0 
L 409 4581 
L 972 4581 
L 972 0 
L 409 0 
z
" id="ArialMT-6c" transform="scale(0.015625)"/>
      <path d="M 1034 0 
L 19 3319 
L 600 3319 
L 1128 1403 
L 1325 691 
Q 1338 744 1497 1375 
L 2025 3319 
L 2603 3319 
L 3100 1394 
L 3266 759 
L 3456 1400 
L 4025 3319 
L 4572 3319 
L 3534 0 
L 2950 0 
L 2422 1988 
L 2294 2553 
L 1622 0 
L 1034 0 
z
" id="ArialMT-77" transform="scale(0.015625)"/>
      <path d="M 425 3934 
L 425 4581 
L 988 4581 
L 988 3934 
L 425 3934 
z
M 425 0 
L 425 3319 
L 988 3319 
L 988 0 
L 425 0 
z
" id="ArialMT-69" transform="scale(0.015625)"/>
      <path d="M 1650 503 
L 1731 6 
Q 1494 -44 1306 -44 
Q 1000 -44 831 53 
Q 663 150 594 308 
Q 525 466 525 972 
L 525 2881 
L 113 2881 
L 113 3319 
L 525 3319 
L 525 4141 
L 1084 4478 
L 1084 3319 
L 1650 3319 
L 1650 2881 
L 1084 2881 
L 1084 941 
Q 1084 700 1114 631 
Q 1144 563 1211 522 
Q 1278 481 1403 481 
Q 1497 481 1650 503 
z
" id="ArialMT-74" transform="scale(0.015625)"/>
      <path d="M 422 0 
L 422 3319 
L 928 3319 
L 928 2847 
Q 1294 3394 1984 3394 
Q 2284 3394 2536 3286 
Q 2788 3178 2913 3003 
Q 3038 2828 3088 2588 
Q 3119 2431 3119 2041 
L 3119 0 
L 2556 0 
L 2556 2019 
Q 2556 2363 2490 2533 
Q 2425 2703 2258 2804 
Q 2091 2906 1866 2906 
Q 1506 2906 1245 2678 
Q 984 2450 984 1813 
L 984 0 
L 422 0 
z
" id="ArialMT-6e" transform="scale(0.015625)"/>
     </defs>
     <use xlink:href="#ArialMT-41"/>
     <use x="66.699219" xlink:href="#ArialMT-63"/>
     <use x="116.699219" xlink:href="#ArialMT-63"/>
     <use x="166.699219" xlink:href="#ArialMT-75"/>
     <use x="222.314453" xlink:href="#ArialMT-72"/>
     <use x="255.615234" xlink:href="#ArialMT-61"/>
     <use x="311.230469" xlink:href="#ArialMT-63"/>
     <use x="361.230469" xlink:href="#ArialMT-79"/>
     <use x="411.230469" xlink:href="#ArialMT-20"/>
     <use x="439.013672" xlink:href="#ArialMT-66"/>
     <use x="466.796875" xlink:href="#ArialMT-6f"/>
     <use x="522.412109" xlink:href="#ArialMT-72"/>
     <use x="555.712891" xlink:href="#ArialMT-20"/>
     <use x="583.496094" xlink:href="#ArialMT-6d"/>
     <use x="666.796875" xlink:href="#ArialMT-6f"/>
     <use x="722.412109" xlink:href="#ArialMT-64"/>
     <use x="778.027344" xlink:href="#ArialMT-65"/>
     <use x="833.642578" xlink:href="#ArialMT-6c"/>
     <use x="855.859375" xlink:href="#ArialMT-20"/>
     <use x="883.642578" xlink:href="#ArialMT-77"/>
     <use x="955.859375" xlink:href="#ArialMT-69"/>
     <use x="978.076172" xlink:href="#ArialMT-74"/>
     <use x="1005.859375" xlink:href="#ArialMT-68"/>
     <use x="1061.474609" xlink:href="#ArialMT-20"/>
     <use x="1089.257812" xlink:href="#ArialMT-61"/>
     <use x="1144.873047" xlink:href="#ArialMT-6e"/>
     <use x="1200.488281" xlink:href="#ArialMT-63"/>
     <use x="1250.488281" xlink:href="#ArialMT-69"/>
     <use x="1272.705078" xlink:href="#ArialMT-65"/>
     <use x="1328.320312" xlink:href="#ArialMT-6e"/>
     <use x="1383.935547" xlink:href="#ArialMT-74"/>
     <use x="1411.71875" xlink:href="#ArialMT-20"/>
     <use x="1439.501953" xlink:href="#ArialMT-73"/>
     <use x="1489.501953" xlink:href="#ArialMT-61"/>
     <use x="1545.117188" xlink:href="#ArialMT-6d"/>
     <use x="1628.417969" xlink:href="#ArialMT-70"/>
     <use x="1684.033203" xlink:href="#ArialMT-6c"/>
     <use x="1706.25" xlink:href="#ArialMT-65"/>
     <use x="1761.865234" xlink:href="#ArialMT-73"/>
    </g>
   </g>
   <g id="legend_1">
    <g id="patch_7">
     <path d="M 354.978608 83.238906 
L 432.367045 83.238906 
Q 434.567045 83.238906 434.567045 81.038906 
L 434.567045 35.459375 
Q 434.567045 33.259375 432.367045 33.259375 
L 354.978608 33.259375 
Q 352.778608 33.259375 352.778608 35.459375 
L 352.778608 81.038906 
Q 352.778608 83.238906 354.978608 83.238906 
z
" style="fill:#ffffff;opacity:0.8;stroke:#cccccc;stroke-linejoin:miter;"/>
    </g>
    <g id="line2d_14">
     <path d="M 357.178608 41.682969 
L 379.178608 41.682969 
" style="fill:none;stroke:#4c72b0;stroke-linecap:round;stroke-width:1.5;"/>
    </g>
    <g id="line2d_15"/>
    <g id="text_14">
     <!-- 100 PCs -->
     <g style="fill:#262626;" transform="translate(387.978608 45.532969)scale(0.11 -0.11)">
      <defs>
       <path d="M 494 0 
L 494 4581 
L 2222 4581 
Q 2678 4581 2919 4538 
Q 3256 4481 3484 4323 
Q 3713 4166 3852 3881 
Q 3991 3597 3991 3256 
Q 3991 2672 3619 2267 
Q 3247 1863 2275 1863 
L 1100 1863 
L 1100 0 
L 494 0 
z
M 1100 2403 
L 2284 2403 
Q 2872 2403 3119 2622 
Q 3366 2841 3366 3238 
Q 3366 3525 3220 3729 
Q 3075 3934 2838 4000 
Q 2684 4041 2272 4041 
L 1100 4041 
L 1100 2403 
z
" id="ArialMT-50" transform="scale(0.015625)"/>
       <path d="M 3763 1606 
L 4369 1453 
Q 4178 706 3683 314 
Q 3188 -78 2472 -78 
Q 1731 -78 1267 223 
Q 803 525 561 1097 
Q 319 1669 319 2325 
Q 319 3041 592 3573 
Q 866 4106 1370 4382 
Q 1875 4659 2481 4659 
Q 3169 4659 3637 4309 
Q 4106 3959 4291 3325 
L 3694 3184 
Q 3534 3684 3231 3912 
Q 2928 4141 2469 4141 
Q 1941 4141 1586 3887 
Q 1231 3634 1087 3207 
Q 944 2781 944 2328 
Q 944 1744 1114 1308 
Q 1284 872 1643 656 
Q 2003 441 2422 441 
Q 2931 441 3284 734 
Q 3638 1028 3763 1606 
z
" id="ArialMT-43" transform="scale(0.015625)"/>
      </defs>
      <use xlink:href="#ArialMT-31"/>
      <use x="55.615234" xlink:href="#ArialMT-30"/>
      <use x="111.230469" xlink:href="#ArialMT-30"/>
      <use x="166.845703" xlink:href="#ArialMT-20"/>
      <use x="194.628906" xlink:href="#ArialMT-50"/>
      <use x="261.328125" xlink:href="#ArialMT-43"/>
      <use x="333.544922" xlink:href="#ArialMT-73"/>
     </g>
    </g>
    <g id="line2d_16">
     <path d="M 357.178608 57.242812 
L 379.178608 57.242812 
" style="fill:none;stroke:#dd8452;stroke-linecap:round;stroke-width:1.5;"/>
    </g>
    <g id="line2d_17"/>
    <g id="text_15">
     <!-- 20 PCs -->
     <g style="fill:#262626;" transform="translate(387.978608 61.092812)scale(0.11 -0.11)">
      <use xlink:href="#ArialMT-32"/>
      <use x="55.615234" xlink:href="#ArialMT-30"/>
      <use x="111.230469" xlink:href="#ArialMT-20"/>
      <use x="139.013672" xlink:href="#ArialMT-50"/>
      <use x="205.712891" xlink:href="#ArialMT-43"/>
      <use x="277.929688" xlink:href="#ArialMT-73"/>
     </g>
    </g>
    <g id="line2d_18">
     <path d="M 357.178608 72.802656 
L 379.178608 72.802656 
" style="fill:none;stroke:#55a868;stroke-linecap:round;stroke-width:1.5;"/>
    </g>
    <g id="line2d_19"/>
    <g id="text_16">
     <!-- 2 PCs -->
     <g style="fill:#262626;" transform="translate(387.978608 76.652656)scale(0.11 -0.11)">
      <use xlink:href="#ArialMT-32"/>
      <use x="55.615234" xlink:href="#ArialMT-20"/>
      <use x="83.398438" xlink:href="#ArialMT-50"/>
      <use x="150.097656" xlink:href="#ArialMT-43"/>
      <use x="222.314453" xlink:href="#ArialMT-73"/>
     </g>
    </g>
   </g>
  </g>
  <g id="axes_2">
   <g id="patch_8">
    <path d="M 516.157955 299.559375 
L 896.6125 299.559375 
L 896.6125 27.759375 
L 516.157955 27.759375 
z
" style="fill:#ffffff;"/>
   </g>
   <g id="matplotlib.axis_3">
    <g id="xtick_6">
     <g id="line2d_20">
      <path clip-path="url(#p64e45039e4)" d="M 533.451343 299.559375 
L 533.451343 27.759375 
" style="fill:none;stroke:#cccccc;stroke-linecap:round;"/>
     </g>
     <g id="text_17">
      <!-- 0 -->
      <g style="fill:#262626;" transform="translate(529.002593 320.511875)scale(0.16 -0.16)">
       <use xlink:href="#ArialMT-30"/>
      </g>
     </g>
    </g>
    <g id="xtick_7">
     <g id="line2d_21">
      <path clip-path="url(#p64e45039e4)" d="M 620.352792 299.559375 
L 620.352792 27.759375 
" style="fill:none;stroke:#cccccc;stroke-linecap:round;"/>
     </g>
     <g id="text_18">
      <!-- 50 -->
      <g style="fill:#262626;" transform="translate(611.455292 320.511875)scale(0.16 -0.16)">
       <use xlink:href="#ArialMT-35"/>
       <use x="55.615234" xlink:href="#ArialMT-30"/>
      </g>
     </g>
    </g>
    <g id="xtick_8">
     <g id="line2d_22">
      <path clip-path="url(#p64e45039e4)" d="M 707.254242 299.559375 
L 707.254242 27.759375 
" style="fill:none;stroke:#cccccc;stroke-linecap:round;"/>
     </g>
     <g id="text_19">
      <!-- 100 -->
      <g style="fill:#262626;" transform="translate(693.907992 320.511875)scale(0.16 -0.16)">
       <use xlink:href="#ArialMT-31"/>
       <use x="55.615234" xlink:href="#ArialMT-30"/>
       <use x="111.230469" xlink:href="#ArialMT-30"/>
      </g>
     </g>
    </g>
    <g id="xtick_9">
     <g id="line2d_23">
      <path clip-path="url(#p64e45039e4)" d="M 794.155691 299.559375 
L 794.155691 27.759375 
" style="fill:none;stroke:#cccccc;stroke-linecap:round;"/>
     </g>
     <g id="text_20">
      <!-- 150 -->
      <g style="fill:#262626;" transform="translate(780.809441 320.511875)scale(0.16 -0.16)">
       <use xlink:href="#ArialMT-31"/>
       <use x="55.615234" xlink:href="#ArialMT-35"/>
       <use x="111.230469" xlink:href="#ArialMT-30"/>
      </g>
     </g>
    </g>
    <g id="xtick_10">
     <g id="line2d_24">
      <path clip-path="url(#p64e45039e4)" d="M 881.057141 299.559375 
L 881.057141 27.759375 
" style="fill:none;stroke:#cccccc;stroke-linecap:round;"/>
     </g>
     <g id="text_21">
      <!-- 200 -->
      <g style="fill:#262626;" transform="translate(867.710891 320.511875)scale(0.16 -0.16)">
       <use xlink:href="#ArialMT-32"/>
       <use x="55.615234" xlink:href="#ArialMT-30"/>
       <use x="111.230469" xlink:href="#ArialMT-30"/>
      </g>
     </g>
    </g>
    <g id="text_22">
     <!-- Epochs -->
     <g style="fill:#262626;" transform="translate(676.367415 340.575938)scale(0.18 -0.18)">
      <use xlink:href="#ArialMT-45"/>
      <use x="66.699219" xlink:href="#ArialMT-70"/>
      <use x="122.314453" xlink:href="#ArialMT-6f"/>
      <use x="177.929688" xlink:href="#ArialMT-63"/>
      <use x="227.929688" xlink:href="#ArialMT-68"/>
      <use x="283.544922" xlink:href="#ArialMT-73"/>
     </g>
    </g>
   </g>
   <g id="matplotlib.axis_4">
    <g id="ytick_6">
     <g id="line2d_25">
      <path clip-path="url(#p64e45039e4)" d="M 516.157955 299.559375 
L 896.6125 299.559375 
" style="fill:none;stroke:#cccccc;stroke-linecap:round;"/>
     </g>
     <g id="text_23">
      <!-- 0.0 -->
      <g style="fill:#262626;" transform="translate(484.417955 305.285625)scale(0.16 -0.16)">
       <use xlink:href="#ArialMT-30"/>
       <use x="55.615234" xlink:href="#ArialMT-2e"/>
       <use x="83.398438" xlink:href="#ArialMT-30"/>
      </g>
     </g>
    </g>
    <g id="ytick_7">
     <g id="line2d_26">
      <path clip-path="url(#p64e45039e4)" d="M 516.157955 260.730804 
L 896.6125 260.730804 
" style="fill:none;stroke:#cccccc;stroke-linecap:round;"/>
     </g>
     <g id="text_24">
      <!-- 0.2 -->
      <g style="fill:#262626;" transform="translate(484.417955 266.457054)scale(0.16 -0.16)">
       <use xlink:href="#ArialMT-30"/>
       <use x="55.615234" xlink:href="#ArialMT-2e"/>
       <use x="83.398438" xlink:href="#ArialMT-32"/>
      </g>
     </g>
    </g>
    <g id="ytick_8">
     <g id="line2d_27">
      <path clip-path="url(#p64e45039e4)" d="M 516.157955 221.902232 
L 896.6125 221.902232 
" style="fill:none;stroke:#cccccc;stroke-linecap:round;"/>
     </g>
     <g id="text_25">
      <!-- 0.4 -->
      <g style="fill:#262626;" transform="translate(484.417955 227.628482)scale(0.16 -0.16)">
       <defs>
        <path d="M 2069 0 
L 2069 1097 
L 81 1097 
L 81 1613 
L 2172 4581 
L 2631 4581 
L 2631 1613 
L 3250 1613 
L 3250 1097 
L 2631 1097 
L 2631 0 
L 2069 0 
z
M 2069 1613 
L 2069 3678 
L 634 1613 
L 2069 1613 
z
" id="ArialMT-34" transform="scale(0.015625)"/>
       </defs>
       <use xlink:href="#ArialMT-30"/>
       <use x="55.615234" xlink:href="#ArialMT-2e"/>
       <use x="83.398438" xlink:href="#ArialMT-34"/>
      </g>
     </g>
    </g>
    <g id="ytick_9">
     <g id="line2d_28">
      <path clip-path="url(#p64e45039e4)" d="M 516.157955 183.073661 
L 896.6125 183.073661 
" style="fill:none;stroke:#cccccc;stroke-linecap:round;"/>
     </g>
     <g id="text_26">
      <!-- 0.6 -->
      <g style="fill:#262626;" transform="translate(484.417955 188.799911)scale(0.16 -0.16)">
       <use xlink:href="#ArialMT-30"/>
       <use x="55.615234" xlink:href="#ArialMT-2e"/>
       <use x="83.398438" xlink:href="#ArialMT-36"/>
      </g>
     </g>
    </g>
    <g id="ytick_10">
     <g id="line2d_29">
      <path clip-path="url(#p64e45039e4)" d="M 516.157955 144.245089 
L 896.6125 144.245089 
" style="fill:none;stroke:#cccccc;stroke-linecap:round;"/>
     </g>
     <g id="text_27">
      <!-- 0.8 -->
      <g style="fill:#262626;" transform="translate(484.417955 149.971339)scale(0.16 -0.16)">
       <use xlink:href="#ArialMT-30"/>
       <use x="55.615234" xlink:href="#ArialMT-2e"/>
       <use x="83.398438" xlink:href="#ArialMT-38"/>
      </g>
     </g>
    </g>
    <g id="ytick_11">
     <g id="line2d_30">
      <path clip-path="url(#p64e45039e4)" d="M 516.157955 105.416518 
L 896.6125 105.416518 
" style="fill:none;stroke:#cccccc;stroke-linecap:round;"/>
     </g>
     <g id="text_28">
      <!-- 1.0 -->
      <g style="fill:#262626;" transform="translate(484.417955 111.142768)scale(0.16 -0.16)">
       <use xlink:href="#ArialMT-31"/>
       <use x="55.615234" xlink:href="#ArialMT-2e"/>
       <use x="83.398438" xlink:href="#ArialMT-30"/>
      </g>
     </g>
    </g>
    <g id="ytick_12">
     <g id="line2d_31">
      <path clip-path="url(#p64e45039e4)" d="M 516.157955 66.587946 
L 896.6125 66.587946 
" style="fill:none;stroke:#cccccc;stroke-linecap:round;"/>
     </g>
     <g id="text_29">
      <!-- 1.2 -->
      <g style="fill:#262626;" transform="translate(484.417955 72.314196)scale(0.16 -0.16)">
       <use xlink:href="#ArialMT-31"/>
       <use x="55.615234" xlink:href="#ArialMT-2e"/>
       <use x="83.398438" xlink:href="#ArialMT-32"/>
      </g>
     </g>
    </g>
    <g id="ytick_13">
     <g id="line2d_32">
      <path clip-path="url(#p64e45039e4)" d="M 516.157955 27.759375 
L 896.6125 27.759375 
" style="fill:none;stroke:#cccccc;stroke-linecap:round;"/>
     </g>
     <g id="text_30">
      <!-- 1.4 -->
      <g style="fill:#262626;" transform="translate(484.417955 33.485625)scale(0.16 -0.16)">
       <use xlink:href="#ArialMT-31"/>
       <use x="55.615234" xlink:href="#ArialMT-2e"/>
       <use x="83.398438" xlink:href="#ArialMT-34"/>
      </g>
     </g>
    </g>
    <g id="text_31">
     <!-- Loss -->
     <g style="fill:#262626;" transform="translate(476.840455 182.669062)rotate(-90)scale(0.18 -0.18)">
      <defs>
       <path d="M 469 0 
L 469 4581 
L 1075 4581 
L 1075 541 
L 3331 541 
L 3331 0 
L 469 0 
z
" id="ArialMT-4c" transform="scale(0.015625)"/>
      </defs>
      <use xlink:href="#ArialMT-4c"/>
      <use x="55.615234" xlink:href="#ArialMT-6f"/>
      <use x="111.230469" xlink:href="#ArialMT-73"/>
      <use x="161.230469" xlink:href="#ArialMT-73"/>
     </g>
    </g>
   </g>
   <g id="line2d_33">
    <path clip-path="url(#p64e45039e4)" d="M 533.451343 165.640796 
L 535.189372 183.613157 
L 536.927401 179.373892 
L 538.66543 195.094829 
L 540.403459 198.849374 
L 542.141488 205.460584 
L 543.879517 205.350999 
L 545.617546 208.989797 
L 547.355575 207.049423 
L 549.093604 210.295509 
L 550.831633 213.059917 
L 552.569662 212.752049 
L 554.307691 215.124485 
L 556.04572 215.683248 
L 557.783749 218.561824 
L 559.521778 214.329392 
L 561.259807 219.826687 
L 562.997836 220.832231 
L 564.735865 223.078547 
L 566.473894 224.303718 
L 568.211923 220.119269 
L 569.949952 222.182709 
L 571.687981 220.807317 
L 573.42601 220.854825 
L 575.164039 219.432759 
L 576.902068 218.797704 
L 578.640097 222.827797 
L 580.378126 220.102883 
L 582.116155 219.323284 
L 583.854184 225.886384 
L 585.592213 226.708689 
L 587.330242 221.993376 
L 589.068271 217.759214 
L 592.544329 228.056759 
L 594.282358 223.64987 
L 596.020387 223.963125 
L 597.758416 223.1325 
L 599.496445 226.717912 
L 604.710531 222.929397 
L 608.186589 225.678271 
L 609.924618 221.308932 
L 611.662647 223.478168 
L 613.400676 222.364675 
L 615.138705 221.983569 
L 616.876734 227.431754 
L 618.614763 223.736989 
L 620.352792 223.966388 
L 622.090821 222.540989 
L 623.82885 219.946646 
L 625.566879 220.049745 
L 627.304908 222.415927 
L 629.042937 223.610781 
L 630.780966 221.224724 
L 632.518995 220.316672 
L 634.257024 225.571845 
L 635.995053 223.936174 
L 637.733082 225.416302 
L 639.471111 216.080346 
L 641.20914 218.203271 
L 642.947169 214.797205 
L 644.685198 219.615206 
L 646.423227 222.114828 
L 648.161256 221.182568 
L 649.899285 222.104853 
L 651.637314 219.890743 
L 653.375343 222.357935 
L 655.113372 216.007993 
L 656.851401 221.112472 
L 658.58943 217.011814 
L 660.327459 217.412951 
L 662.065488 214.112588 
L 663.803517 216.684354 
L 665.541546 213.978008 
L 667.279575 218.387454 
L 669.017604 220.021319 
L 670.755633 215.090742 
L 672.493662 213.607461 
L 674.231691 219.176906 
L 675.96972 215.875878 
L 677.707749 216.767816 
L 679.445778 216.629944 
L 681.183807 214.924675 
L 682.921836 214.82503 
L 684.659865 216.742468 
L 686.397894 217.792402 
L 688.135923 218.334779 
L 689.873952 211.334409 
L 691.611981 216.510077 
L 693.35001 212.350443 
L 695.088039 210.855567 
L 696.826068 211.283753 
L 698.564097 207.860012 
L 700.302126 212.462389 
L 702.040155 214.8769 
L 703.778184 211.494904 
L 705.516213 206.877576 
L 707.254242 215.096227 
L 708.992271 216.059783 
L 710.7303 214.943161 
L 712.468329 212.396482 
L 714.206358 212.544613 
L 715.944387 208.067622 
L 717.682416 209.835378 
L 719.420445 212.636817 
L 721.158474 218.207726 
L 722.896503 214.513661 
L 724.634532 213.252102 
L 726.372561 217.312872 
L 728.11059 210.56372 
L 729.848619 216.060651 
L 731.586648 215.054048 
L 733.324677 210.026626 
L 735.062706 214.719217 
L 736.800735 207.773414 
L 738.538764 213.951404 
L 740.276793 206.785846 
L 742.014822 211.9472 
L 743.752851 211.446858 
L 745.49088 211.894016 
L 747.228908 211.441749 
L 748.966937 215.518575 
L 750.704966 214.984588 
L 752.442995 210.602179 
L 754.181024 210.37437 
L 755.919053 211.642231 
L 757.657082 203.96278 
L 759.395111 215.39184 
L 761.13314 211.903626 
L 762.871169 211.752909 
L 764.609198 213.489816 
L 766.347227 208.377393 
L 768.085256 207.725738 
L 769.823285 209.712202 
L 771.561314 210.82618 
L 773.299343 207.396462 
L 775.037372 208.80588 
L 776.775401 212.209082 
L 778.51343 208.323503 
L 780.251459 213.123203 
L 781.989488 214.474531 
L 783.727517 214.92394 
L 785.465546 212.023522 
L 787.203575 212.944482 
L 788.941604 215.020379 
L 790.679633 212.74558 
L 792.417662 211.084672 
L 794.155691 212.939368 
L 795.89372 210.039604 
L 797.631749 211.706981 
L 799.369778 209.355061 
L 801.107807 211.089109 
L 802.845836 213.270715 
L 804.583865 206.750969 
L 806.321894 214.079996 
L 808.059923 215.054134 
L 809.797952 211.984346 
L 811.535981 208.540492 
L 813.27401 214.538217 
L 815.012039 206.001966 
L 816.750068 210.937079 
L 818.488097 209.609977 
L 820.226126 211.665479 
L 821.964155 211.126099 
L 823.702184 210.955646 
L 825.440213 211.063021 
L 827.178242 210.273262 
L 828.916271 212.658456 
L 830.6543 210.164516 
L 832.392329 204.425855 
L 834.130358 207.357396 
L 835.868387 205.687623 
L 837.606416 213.005674 
L 839.344445 209.296427 
L 841.082474 212.840556 
L 842.820503 206.847686 
L 844.558532 209.791533 
L 846.296561 211.03938 
L 848.03459 212.945836 
L 849.772619 213.073149 
L 851.510648 209.591879 
L 853.248677 212.170964 
L 854.986706 213.53928 
L 856.724735 212.071817 
L 858.462764 208.184075 
L 860.200793 213.415548 
L 861.938822 211.405558 
L 863.676851 210.417898 
L 865.41488 207.657482 
L 867.152909 207.607138 
L 868.890938 201.503625 
L 870.628967 209.371441 
L 872.366996 208.557543 
L 874.105025 211.54961 
L 875.843054 211.209022 
L 877.581083 209.996481 
L 879.319112 211.683559 
L 879.319112 211.683559 
" style="fill:none;stroke:#4c72b0;stroke-linecap:round;stroke-width:1.5;"/>
   </g>
   <g id="line2d_34">
    <path clip-path="url(#p64e45039e4)" d="M 533.451343 165.049291 
L 535.189372 179.293572 
L 536.927401 176.090655 
L 538.66543 183.206165 
L 540.403459 180.310619 
L 542.141488 191.189549 
L 543.879517 192.588512 
L 545.617546 195.337258 
L 547.355575 194.029979 
L 549.093604 195.443673 
L 550.831633 198.236808 
L 552.569662 198.782431 
L 554.307691 204.713432 
L 556.04572 200.200384 
L 557.783749 200.4835 
L 559.521778 203.263715 
L 561.259807 204.049789 
L 562.997836 203.09159 
L 564.735865 208.354956 
L 566.473894 206.947979 
L 568.211923 207.393442 
L 569.949952 207.122875 
L 571.687981 210.734746 
L 573.42601 208.87637 
L 575.164039 213.22076 
L 576.902068 212.845549 
L 578.640097 212.664306 
L 580.378126 211.912022 
L 582.116155 211.287259 
L 583.854184 210.891943 
L 585.592213 211.252035 
L 587.330242 213.319629 
L 589.068271 216.515632 
L 590.8063 214.928922 
L 592.544329 215.511053 
L 594.282358 215.347752 
L 596.020387 214.722301 
L 597.758416 216.43931 
L 599.496445 214.072694 
L 601.234474 211.272054 
L 602.972502 215.192996 
L 604.710531 217.60517 
L 606.44856 214.828519 
L 608.186589 216.393109 
L 609.924618 217.691085 
L 611.662647 216.228888 
L 613.400676 216.939287 
L 615.138705 218.899599 
L 616.876734 216.762887 
L 620.352792 219.602726 
L 622.090821 220.097219 
L 623.82885 219.17686 
L 625.566879 220.321712 
L 627.304908 220.343027 
L 629.042937 220.04238 
L 630.780966 216.966319 
L 632.518995 217.705718 
L 634.257024 222.113295 
L 635.995053 220.393046 
L 639.471111 220.319253 
L 641.20914 221.945706 
L 642.947169 219.94244 
L 644.685198 222.048053 
L 646.423227 222.765396 
L 648.161256 225.53231 
L 649.899285 224.368127 
L 651.637314 225.335739 
L 655.113372 221.966981 
L 658.58943 221.591372 
L 660.327459 224.81845 
L 662.065488 221.975972 
L 663.803517 221.647524 
L 665.541546 221.071675 
L 667.279575 222.121847 
L 669.017604 222.514102 
L 670.755633 221.162555 
L 672.493662 222.201334 
L 674.231691 220.068891 
L 675.96972 226.077082 
L 677.707749 219.070874 
L 679.445778 224.354698 
L 681.183807 225.951435 
L 682.921836 223.393254 
L 684.659865 222.402724 
L 686.397894 225.580483 
L 688.135923 223.164965 
L 689.873952 225.206013 
L 691.611981 222.572743 
L 693.35001 223.70788 
L 695.088039 226.658456 
L 696.826068 226.820727 
L 698.564097 223.200583 
L 700.302126 227.197297 
L 702.040155 223.435358 
L 703.778184 222.764019 
L 707.254242 226.005169 
L 708.992271 225.50566 
L 710.7303 227.407158 
L 712.468329 225.000382 
L 714.206358 225.12942 
L 715.944387 226.097894 
L 717.682416 227.8401 
L 719.420445 228.877612 
L 721.158474 227.123405 
L 722.896503 223.945148 
L 724.634532 226.83558 
L 726.372561 225.943404 
L 728.11059 227.047934 
L 731.586648 226.130133 
L 733.324677 222.469146 
L 735.062706 228.066462 
L 736.800735 224.50593 
L 738.538764 226.019124 
L 740.276793 226.260136 
L 742.014822 224.975092 
L 743.752851 227.362381 
L 745.49088 228.853606 
L 747.228908 228.578168 
L 748.966937 227.115571 
L 750.704966 226.541436 
L 752.442995 226.496248 
L 754.181024 227.356404 
L 755.919053 226.647468 
L 757.657082 226.359122 
L 759.395111 227.414628 
L 761.13314 226.620361 
L 762.871169 226.947919 
L 764.609198 223.865667 
L 766.347227 228.235283 
L 768.085256 226.201774 
L 769.823285 225.628888 
L 771.561314 230.189844 
L 773.299343 228.838892 
L 775.037372 228.729232 
L 776.775401 226.595916 
L 778.51343 228.708461 
L 780.251459 227.736324 
L 781.989488 229.970466 
L 783.727517 227.193623 
L 785.465546 228.161901 
L 787.203575 230.305522 
L 788.941604 226.633582 
L 790.679633 230.400185 
L 792.417662 225.07082 
L 794.155691 229.581178 
L 795.89372 228.709844 
L 797.631749 227.405463 
L 799.369778 229.785241 
L 801.107807 228.536868 
L 802.845836 229.316097 
L 804.583865 226.62337 
L 806.321894 228.260793 
L 808.059923 230.058678 
L 809.797952 229.043204 
L 811.535981 225.527588 
L 813.27401 223.695133 
L 815.012039 225.506667 
L 816.750068 228.540779 
L 818.488097 224.674659 
L 820.226126 226.817539 
L 821.964155 227.69168 
L 823.702184 229.411813 
L 825.440213 228.06284 
L 827.178242 226.133165 
L 828.916271 226.829736 
L 830.6543 228.433254 
L 832.392329 228.995424 
L 834.130358 224.645203 
L 835.868387 229.124282 
L 837.606416 229.848869 
L 839.344445 225.683738 
L 841.082474 228.673919 
L 842.820503 229.569062 
L 844.558532 229.426955 
L 846.296561 227.975647 
L 848.03459 225.329548 
L 849.772619 228.073845 
L 851.510648 226.157188 
L 853.248677 228.361833 
L 854.986706 226.908158 
L 856.724735 228.887905 
L 858.462764 225.252555 
L 860.200793 223.778474 
L 861.938822 228.915943 
L 863.676851 231.10621 
L 865.41488 227.123313 
L 867.152909 228.441233 
L 868.890938 226.361957 
L 870.628967 227.997945 
L 872.366996 229.139332 
L 874.105025 227.941984 
L 875.843054 227.298163 
L 877.581083 223.041442 
L 879.319112 222.186487 
L 879.319112 222.186487 
" style="fill:none;stroke:#dd8452;stroke-linecap:round;stroke-width:1.5;"/>
   </g>
   <g id="line2d_35">
    <path clip-path="url(#p64e45039e4)" d="M 533.451343 50.476845 
L 535.189372 66.442965 
L 536.927401 71.915879 
L 538.66543 76.985839 
L 540.403459 76.727 
L 542.141488 81.778561 
L 543.879517 85.508597 
L 545.617546 83.436085 
L 547.355575 84.363103 
L 549.093604 89.396542 
L 550.831633 89.400291 
L 552.569662 90.020193 
L 554.307691 91.186447 
L 556.04572 91.402493 
L 557.783749 89.413252 
L 559.521778 93.748471 
L 561.259807 91.534458 
L 564.735865 94.688773 
L 566.473894 94.151563 
L 568.211923 96.259323 
L 569.949952 92.265311 
L 571.687981 97.453488 
L 573.42601 94.14867 
L 575.164039 92.06491 
L 576.902068 95.260375 
L 578.640097 93.842179 
L 580.378126 95.762476 
L 582.116155 98.331581 
L 583.854184 97.077196 
L 585.592213 93.207835 
L 587.330242 98.590095 
L 589.068271 98.551978 
L 590.8063 95.939224 
L 592.544329 99.968831 
L 594.282358 98.25236 
L 596.020387 101.701942 
L 597.758416 99.630679 
L 599.496445 100.130466 
L 601.234474 97.929807 
L 602.972502 101.214953 
L 604.710531 101.783755 
L 606.44856 98.858122 
L 608.186589 98.368125 
L 609.924618 100.867591 
L 611.662647 99.738714 
L 613.400676 99.685414 
L 615.138705 102.268266 
L 616.876734 97.493828 
L 618.614763 102.189462 
L 620.352792 103.590184 
L 622.090821 100.763444 
L 623.82885 100.856181 
L 625.566879 104.311085 
L 627.304908 102.20358 
L 629.042937 102.695614 
L 630.780966 101.885517 
L 634.257024 101.494529 
L 635.995053 102.201729 
L 637.733082 100.802696 
L 639.471111 102.213925 
L 641.20914 104.775138 
L 642.947169 105.936833 
L 644.685198 105.754797 
L 648.161256 101.981679 
L 649.899285 106.149326 
L 651.637314 103.078571 
L 653.375343 104.18206 
L 655.113372 105.530604 
L 656.851401 106.149616 
L 658.58943 104.810155 
L 660.327459 103.733721 
L 662.065488 103.050498 
L 663.803517 104.184143 
L 665.541546 105.798411 
L 667.279575 101.283551 
L 669.017604 101.560002 
L 670.755633 106.698895 
L 672.493662 107.214871 
L 674.231691 103.563268 
L 675.96972 106.871454 
L 677.707749 106.207995 
L 679.445778 107.731251 
L 681.183807 106.405075 
L 682.921836 104.728573 
L 684.659865 107.860092 
L 686.397894 107.110146 
L 688.135923 104.541272 
L 689.873952 103.751542 
L 691.611981 102.769372 
L 693.35001 104.629449 
L 695.088039 103.221553 
L 696.826068 108.01777 
L 698.564097 108.014622 
L 700.302126 108.590979 
L 702.040155 105.827618 
L 703.778184 104.58786 
L 705.516213 106.519312 
L 707.254242 106.328794 
L 708.992271 109.085559 
L 710.7303 106.549213 
L 712.468329 109.319367 
L 714.206358 105.400202 
L 715.944387 105.89411 
L 717.682416 108.740996 
L 719.420445 108.53481 
L 721.158474 108.861887 
L 722.896503 105.347897 
L 724.634532 108.875403 
L 726.372561 109.142874 
L 728.11059 109.672238 
L 729.848619 109.64148 
L 731.586648 106.317361 
L 736.800735 109.630337 
L 738.538764 106.144489 
L 740.276793 109.214608 
L 742.014822 110.068469 
L 743.752851 107.926757 
L 745.49088 110.004488 
L 747.228908 111.475613 
L 748.966937 109.446634 
L 750.704966 108.152998 
L 752.442995 109.897842 
L 754.181024 109.665885 
L 755.919053 110.471168 
L 757.657082 110.464942 
L 759.395111 111.435968 
L 761.13314 109.20682 
L 762.871169 110.81249 
L 764.609198 109.237265 
L 766.347227 109.130828 
L 768.085256 110.453012 
L 769.823285 112.23933 
L 771.561314 110.111342 
L 775.037372 112.342146 
L 776.775401 110.278278 
L 778.51343 110.233309 
L 780.251459 110.469872 
L 781.989488 110.344052 
L 783.727517 108.284893 
L 785.465546 109.311718 
L 787.203575 110.120739 
L 788.941604 108.930068 
L 790.679633 107.267314 
L 792.417662 111.3056 
L 794.155691 111.279934 
L 795.89372 111.141338 
L 797.631749 110.399851 
L 799.369778 110.959452 
L 801.107807 113.55574 
L 802.845836 113.439883 
L 804.583865 110.921404 
L 806.321894 111.012023 
L 808.059923 113.055212 
L 809.797952 112.135033 
L 811.535981 112.630272 
L 813.27401 109.396899 
L 815.012039 110.201742 
L 816.750068 108.169534 
L 818.488097 113.052829 
L 820.226126 110.580915 
L 821.964155 111.990073 
L 823.702184 112.306875 
L 825.440213 111.448443 
L 827.178242 111.606618 
L 828.916271 112.115384 
L 830.6543 112.063438 
L 832.392329 111.741059 
L 834.130358 112.2397 
L 835.868387 112.001437 
L 837.606416 113.626039 
L 839.344445 110.68218 
L 841.082474 111.772685 
L 842.820503 111.090318 
L 844.558532 112.600857 
L 846.296561 112.894341 
L 848.03459 112.146026 
L 849.772619 114.267048 
L 851.510648 112.059273 
L 853.248677 114.649207 
L 854.986706 111.560921 
L 856.724735 111.122268 
L 858.462764 113.764264 
L 860.200793 113.191598 
L 861.938822 111.029312 
L 863.676851 111.575686 
L 865.41488 113.866779 
L 867.152909 112.937284 
L 868.890938 112.212958 
L 870.628967 109.890795 
L 872.366996 111.564022 
L 874.105025 113.556075 
L 875.843054 110.807677 
L 877.581083 111.703995 
L 879.319112 111.26908 
L 879.319112 111.26908 
" style="fill:none;stroke:#55a868;stroke-linecap:round;stroke-width:1.5;"/>
   </g>
   <g id="patch_9">
    <path d="M 516.157955 299.559375 
L 516.157955 27.759375 
" style="fill:none;stroke:#cccccc;stroke-linecap:square;stroke-linejoin:miter;stroke-width:1.25;"/>
   </g>
   <g id="patch_10">
    <path d="M 896.6125 299.559375 
L 896.6125 27.759375 
" style="fill:none;stroke:#cccccc;stroke-linecap:square;stroke-linejoin:miter;stroke-width:1.25;"/>
   </g>
   <g id="patch_11">
    <path d="M 516.157955 299.559375 
L 896.6125 299.559375 
" style="fill:none;stroke:#cccccc;stroke-linecap:square;stroke-linejoin:miter;stroke-width:1.25;"/>
   </g>
   <g id="patch_12">
    <path d="M 516.157955 27.759375 
L 896.6125 27.759375 
" style="fill:none;stroke:#cccccc;stroke-linecap:square;stroke-linejoin:miter;stroke-width:1.25;"/>
   </g>
   <g id="text_32">
    <!-- Loss for model with ancient samples -->
    <g style="fill:#262626;" transform="translate(545.208665 21.759375)scale(0.2 -0.2)">
     <use xlink:href="#ArialMT-4c"/>
     <use x="55.615234" xlink:href="#ArialMT-6f"/>
     <use x="111.230469" xlink:href="#ArialMT-73"/>
     <use x="161.230469" xlink:href="#ArialMT-73"/>
     <use x="211.230469" xlink:href="#ArialMT-20"/>
     <use x="239.013672" xlink:href="#ArialMT-66"/>
     <use x="266.796875" xlink:href="#ArialMT-6f"/>
     <use x="322.412109" xlink:href="#ArialMT-72"/>
     <use x="355.712891" xlink:href="#ArialMT-20"/>
     <use x="383.496094" xlink:href="#ArialMT-6d"/>
     <use x="466.796875" xlink:href="#ArialMT-6f"/>
     <use x="522.412109" xlink:href="#ArialMT-64"/>
     <use x="578.027344" xlink:href="#ArialMT-65"/>
     <use x="633.642578" xlink:href="#ArialMT-6c"/>
     <use x="655.859375" xlink:href="#ArialMT-20"/>
     <use x="683.642578" xlink:href="#ArialMT-77"/>
     <use x="755.859375" xlink:href="#ArialMT-69"/>
     <use x="778.076172" xlink:href="#ArialMT-74"/>
     <use x="805.859375" xlink:href="#ArialMT-68"/>
     <use x="861.474609" xlink:href="#ArialMT-20"/>
     <use x="889.257812" xlink:href="#ArialMT-61"/>
     <use x="944.873047" xlink:href="#ArialMT-6e"/>
     <use x="1000.488281" xlink:href="#ArialMT-63"/>
     <use x="1050.488281" xlink:href="#ArialMT-69"/>
     <use x="1072.705078" xlink:href="#ArialMT-65"/>
     <use x="1128.320312" xlink:href="#ArialMT-6e"/>
     <use x="1183.935547" xlink:href="#ArialMT-74"/>
     <use x="1211.71875" xlink:href="#ArialMT-20"/>
     <use x="1239.501953" xlink:href="#ArialMT-73"/>
     <use x="1289.501953" xlink:href="#ArialMT-61"/>
     <use x="1345.117188" xlink:href="#ArialMT-6d"/>
     <use x="1428.417969" xlink:href="#ArialMT-70"/>
     <use x="1484.033203" xlink:href="#ArialMT-6c"/>
     <use x="1506.25" xlink:href="#ArialMT-65"/>
     <use x="1561.865234" xlink:href="#ArialMT-73"/>
    </g>
   </g>
   <g id="legend_2">
    <g id="patch_13">
     <path d="M 811.524063 83.238906 
L 888.9125 83.238906 
Q 891.1125 83.238906 891.1125 81.038906 
L 891.1125 35.459375 
Q 891.1125 33.259375 888.9125 33.259375 
L 811.524063 33.259375 
Q 809.324062 33.259375 809.324062 35.459375 
L 809.324062 81.038906 
Q 809.324062 83.238906 811.524063 83.238906 
z
" style="fill:#ffffff;opacity:0.8;stroke:#cccccc;stroke-linejoin:miter;"/>
    </g>
    <g id="line2d_36">
     <path d="M 813.724062 41.682969 
L 835.724062 41.682969 
" style="fill:none;stroke:#4c72b0;stroke-linecap:round;stroke-width:1.5;"/>
    </g>
    <g id="line2d_37"/>
    <g id="text_33">
     <!-- 100 PCs -->
     <g style="fill:#262626;" transform="translate(844.524062 45.532969)scale(0.11 -0.11)">
      <use xlink:href="#ArialMT-31"/>
      <use x="55.615234" xlink:href="#ArialMT-30"/>
      <use x="111.230469" xlink:href="#ArialMT-30"/>
      <use x="166.845703" xlink:href="#ArialMT-20"/>
      <use x="194.628906" xlink:href="#ArialMT-50"/>
      <use x="261.328125" xlink:href="#ArialMT-43"/>
      <use x="333.544922" xlink:href="#ArialMT-73"/>
     </g>
    </g>
    <g id="line2d_38">
     <path d="M 813.724062 57.242812 
L 835.724062 57.242812 
" style="fill:none;stroke:#dd8452;stroke-linecap:round;stroke-width:1.5;"/>
    </g>
    <g id="line2d_39"/>
    <g id="text_34">
     <!-- 20 PCs -->
     <g style="fill:#262626;" transform="translate(844.524062 61.092812)scale(0.11 -0.11)">
      <use xlink:href="#ArialMT-32"/>
      <use x="55.615234" xlink:href="#ArialMT-30"/>
      <use x="111.230469" xlink:href="#ArialMT-20"/>
      <use x="139.013672" xlink:href="#ArialMT-50"/>
      <use x="205.712891" xlink:href="#ArialMT-43"/>
      <use x="277.929688" xlink:href="#ArialMT-73"/>
     </g>
    </g>
    <g id="line2d_40">
     <path d="M 813.724062 72.802656 
L 835.724062 72.802656 
" style="fill:none;stroke:#55a868;stroke-linecap:round;stroke-width:1.5;"/>
    </g>
    <g id="line2d_41"/>
    <g id="text_35">
     <!-- 2 PCs -->
     <g style="fill:#262626;" transform="translate(844.524062 76.652656)scale(0.11 -0.11)">
      <use xlink:href="#ArialMT-32"/>
      <use x="55.615234" xlink:href="#ArialMT-20"/>
      <use x="83.398438" xlink:href="#ArialMT-50"/>
      <use x="150.097656" xlink:href="#ArialMT-43"/>
      <use x="222.314453" xlink:href="#ArialMT-73"/>
     </g>
    </g>
   </g>
  </g>
 </g>
 <defs>
  <clipPath id="p84cc543414">
   <rect height="271.8" width="380.454545" x="59.6125" y="27.759375"/>
  </clipPath>
  <clipPath id="p64e45039e4">
   <rect height="271.8" width="380.454545" x="516.157955" y="27.759375"/>
  </clipPath>
 </defs>
</svg>
